<svg xmlns="http://www.w3.org/2000/svg" width="18" height="15" viewBox="0 0 18 15" fill="none">
  <path d="M12.004 3.62658L11.4755 5.09443C10.8883 6.72355 9.60543 8.00644 7.97631 8.59358L6.50846 9.12213C6.37615 9.17018 6.37615 9.35778 6.50846 9.40517L7.97631 9.93373C9.60543 10.5209 10.8883 11.8038 11.4755 13.4329L12.004 14.9007C12.0521 15.033 12.2397 15.033 12.2871 14.9007L12.8156 13.4329C13.4028 11.8038 14.6856 10.5209 16.3148 9.93373L17.7826 9.40517C17.9149 9.35712 17.9149 9.16953 17.7826 9.12213L16.3148 8.59358C14.6856 8.00644 13.4028 6.72355 12.8156 5.09443L12.2871 3.62658C12.2397 3.49361 12.0521 3.49361 12.004 3.62658Z" fill="white"/>
  <path d="M6.16743 0.0474081L5.91765 0.740272C5.64026 1.50923 5.03454 2.11495 4.26558 2.39234L3.57272 2.64212C3.51012 2.66482 3.51012 2.7532 3.57272 2.7759L4.26558 3.02568C5.03454 3.30307 5.64026 3.90879 5.91765 4.67775L6.16743 5.37062C6.19013 5.43321 6.27851 5.43321 6.30121 5.37062L6.55099 4.67775C6.82838 3.90879 7.4341 3.30307 8.20306 3.02568L8.89592 2.7759C8.95852 2.7532 8.95852 2.66482 8.89592 2.64212L8.20306 2.39234C7.4341 2.11495 6.82838 1.50923 6.55099 0.740272L6.30121 0.0474081C6.27851 -0.0158027 6.18952 -0.0158027 6.16743 0.0474081Z" fill="white"/>
  <path d="M2.75971 9.56623L2.50994 10.2591C2.23255 11.0281 1.62683 11.6338 0.857865 11.9112L0.165001 12.1609C0.102404 12.1837 0.102404 12.272 0.165001 12.2947L0.857865 12.5445C1.62683 12.8219 2.23255 13.4276 2.50994 14.1966L2.75971 14.8894C2.78242 14.952 2.87079 14.952 2.8935 14.8894L3.14327 14.1966C3.42066 13.4276 4.02638 12.8219 4.79534 12.5445L5.48821 12.2947C5.55081 12.272 5.55081 12.1837 5.48821 12.1609L4.79534 11.9112C4.02638 11.6338 3.42066 11.0281 3.14327 10.2591L2.8935 9.56623C2.87079 9.50364 2.7818 9.50364 2.75971 9.56623Z" fill="white"/>
</svg>