<svg xmlns="http://www.w3.org/2000/svg" width="41" height="35" viewBox="0 0 41 35" fill="none">
  <path d="M13.3721 8.25043L14.5746 11.5898C15.9103 15.2961 18.8289 18.2147 22.5352 19.5504L25.8746 20.7529C26.1756 20.8622 26.1756 21.289 25.8746 21.3968L22.5352 22.5993C18.8289 23.935 15.9103 26.8536 14.5746 30.5599L13.3721 33.8992C13.2628 34.2002 12.836 34.2002 12.7282 33.8992L11.5257 30.5599C10.19 26.8536 7.27138 23.935 3.56512 22.5993L0.225745 21.3968C-0.0752483 21.2875 -0.0752483 20.8607 0.225745 20.7529L3.56512 19.5504C7.27138 18.2147 10.19 15.2961 11.5257 11.5898L12.7282 8.25043C12.836 7.94794 13.2628 7.94794 13.3721 8.25043Z" fill="white"/>
  <path d="M26.6501 0.107854L27.2183 1.68413C27.8494 3.43352 29.2274 4.81154 30.9768 5.44261L32.5531 6.01085C32.6955 6.06251 32.6955 6.26355 32.5531 6.31521L30.9768 6.88345C29.2274 7.51452 27.8494 8.89254 27.2183 10.6419L26.6501 12.2182C26.5984 12.3606 26.3974 12.3606 26.3457 12.2182L25.7775 10.6419C25.1464 8.89254 23.7684 7.51452 22.019 6.88345L20.4427 6.31521C20.3003 6.26355 20.3003 6.06251 20.4427 6.01085L22.019 5.44261C23.7684 4.81154 25.1464 3.43352 25.7775 1.68413L26.3457 0.107854C26.3974 -0.0359513 26.5998 -0.0359513 26.6501 0.107854Z" fill="white"/>
  <path d="M34.4025 21.7634L34.9708 23.3397C35.6019 25.0891 36.9799 26.4671 38.7293 27.0982L40.3055 27.6664C40.448 27.7181 40.448 27.9191 40.3055 27.9708L38.7293 28.539C36.9799 29.1701 35.6019 30.5481 34.9708 32.2975L34.4025 33.8738C34.3509 34.0162 34.1498 34.0162 34.0982 33.8738L33.5299 32.2975C32.8989 30.5481 31.5209 29.1701 29.7715 28.539L28.1952 27.9708C28.0528 27.9191 28.0528 27.7181 28.1952 27.6664L29.7715 27.0982C31.5209 26.4671 32.8989 25.0891 33.5299 23.3397L34.0982 21.7634C34.1498 21.621 34.3523 21.621 34.4025 21.7634Z" fill="white"/>
</svg>