<svg xmlns="http://www.w3.org/2000/svg" width="18" height="18" viewBox="0 0 18 18" fill="none">
  <path d="M8.39453 0.322266C8.77268 0.120585 9.22732 0.120585 9.60547 0.322266L16.7568 4.13672C17.1758 4.36017 17.4375 4.79665 17.4375 5.27148V12.7285C17.4375 13.2033 17.1758 13.6398 16.7568 13.8633L9.60547 17.6777C9.22732 17.8794 8.77268 17.8794 8.39453 17.6777L1.24316 13.8633C0.824197 13.6398 0.5625 13.2033 0.5625 12.7285V5.27148C0.5625 4.79665 0.824197 4.36017 1.24316 4.13672L8.39453 0.322266ZM6.91895 5.80957C6.88632 5.71953 6.75979 5.7196 6.72754 5.80957L6.36816 6.80566C5.96984 7.91048 5.09996 8.78044 3.99512 9.17871L2.99902 9.53711C2.9094 9.56928 2.90947 9.6968 2.99902 9.72949L3.99512 10.0879C5.10015 10.4862 5.9699 11.3569 6.36816 12.4619L6.72754 13.457C6.75969 13.5468 6.88635 13.5468 6.91895 13.457L7.27734 12.4619C7.67562 11.3568 8.54627 10.4862 9.65137 10.0879L10.6465 9.72949C10.7362 9.69734 10.7362 9.5697 10.6465 9.53711L9.65137 9.17871C8.54635 8.78046 7.67566 7.91066 7.27734 6.80566L6.91895 5.80957ZM13.1895 9.83691C13.1745 9.79445 13.114 9.79445 13.0986 9.83691L12.9287 10.3066C12.7405 10.8282 12.3302 11.2396 11.8086 11.4277L11.3389 11.5967C11.2964 11.6121 11.2964 11.6721 11.3389 11.6875L11.8086 11.8564C12.3302 12.0446 12.7405 12.456 12.9287 12.9775L13.0986 13.4473C13.114 13.4897 13.1741 13.4897 13.1895 13.4473L13.3584 12.9775C13.5466 12.4559 13.9579 12.0446 14.4795 11.8564L14.9492 11.6875C14.9917 11.6721 14.9917 11.6121 14.9492 11.5967L14.4795 11.4277C13.9579 11.2396 13.5466 10.8283 13.3584 10.3066L13.1895 9.83691ZM10.8779 3.38086C10.8629 3.33798 10.8025 3.33798 10.7871 3.38086L10.6172 3.85059C10.429 4.37214 10.0186 4.78353 9.49707 4.97168L9.02734 5.14062C8.98488 5.15603 8.98488 5.21604 9.02734 5.23145L9.49707 5.40039C10.0186 5.58853 10.429 5.99995 10.6172 6.52148L10.7871 6.99121C10.8025 7.03367 10.8625 7.03367 10.8779 6.99121L11.0469 6.52148C11.235 5.99987 11.6464 5.58856 12.168 5.40039L12.6377 5.23145C12.6802 5.21604 12.6802 5.15603 12.6377 5.14062L12.168 4.97168C11.6464 4.78351 11.235 4.3722 11.0469 3.85059L10.8779 3.38086Z" fill="white"/>
</svg>