<svg xmlns="http://www.w3.org/2000/svg" width="16" height="16" viewBox="0 0 16 16" fill="none">
  <g clip-path="url(#clip0_12432_5610)">
    <path d="M7.41668 8.35711C7.23094 8.17126 7.01041 8.02383 6.76767 7.92324C6.52494 7.82265 6.26476 7.77087 6.00201 7.77087C5.73926 7.77087 5.47908 7.82265 5.23635 7.92324C4.99361 8.02383 4.77308 8.17126 4.58734 8.35711L0.0273438 12.9171C0.0889841 13.7532 0.463949 14.5352 1.07726 15.1067C1.69057 15.6782 2.49702 15.9972 3.33534 15.9998H12.6687C13.3218 15.9997 13.9604 15.8064 14.504 15.4444L7.41668 8.35711Z" fill="#1455AC"/>
    <path d="M11.9986 5.33329C12.735 5.33329 13.332 4.73634 13.332 3.99996C13.332 3.26358 12.735 2.66663 11.9986 2.66663C11.2622 2.66663 10.6653 3.26358 10.6653 3.99996C10.6653 4.73634 11.2622 5.33329 11.9986 5.33329Z" fill="#1455AC"/>
    <path d="M12.6667 0H3.33333C2.4496 0.00105857 1.60237 0.352588 0.97748 0.97748C0.352588 1.60237 0.00105857 2.4496 0 3.33333L0 11.0573L3.64267 7.41467C3.95221 7.10505 4.31971 6.85944 4.72419 6.69186C5.12866 6.52429 5.56219 6.43805 6 6.43805C6.43781 6.43805 6.87134 6.52429 7.27582 6.69186C7.68029 6.85944 8.04779 7.10505 8.35733 7.41467L15.4447 14.502C15.8067 13.9583 15.9999 13.3198 16 12.6667V3.33333C15.9989 2.4496 15.6474 1.60237 15.0225 0.97748C14.3976 0.352588 13.5504 0.00105857 12.6667 0ZM12 6.66667C11.4726 6.66667 10.957 6.51027 10.5185 6.21725C10.0799 5.92424 9.73816 5.50776 9.53632 5.02049C9.33449 4.53322 9.28168 3.99704 9.38457 3.47976C9.48747 2.96248 9.74144 2.48732 10.1144 2.11438C10.4873 1.74144 10.9625 1.48747 11.4798 1.38457C11.997 1.28168 12.5332 1.33449 13.0205 1.53632C13.5078 1.73816 13.9242 2.07995 14.2173 2.51848C14.5103 2.95701 14.6667 3.47258 14.6667 4C14.6667 4.70724 14.3857 5.38552 13.8856 5.88562C13.3855 6.38572 12.7072 6.66667 12 6.66667Z" fill="#1455AC"/>
  </g>
  <defs>
    <clipPath id="clip0_12432_5610">
      <rect width="16" height="16" fill="white"/>
    </clipPath>
  </defs>
</svg>