<svg xmlns="http://www.w3.org/2000/svg" width="19" height="18" viewBox="0 0 19 18" fill="none">
  <g clip-path="url(#clip0_12432_5618)">
    <path d="M18.5 6V12C18.5 14.0708 16.8207 15.75 14.75 15.75H13.25V2.25H14.75C16.8207 2.25 18.5 3.92925 18.5 6ZM11.75 2.25V15.75H4.25C2.17925 15.75 0.5 14.0708 0.5 12V6C0.5 3.92925 2.17925 2.25 4.25 2.25H11.75ZM8.75 6C8.75 5.58525 8.414 5.25 8 5.25H3.5C3.086 5.25 2.75 5.58525 2.75 6C2.75 6.41475 3.086 6.75 3.5 6.75H5V12C5 12.4148 5.336 12.75 5.75 12.75C6.164 12.75 6.5 12.4148 6.5 12V6.75H8C8.414 6.75 8.75 6.41475 8.75 6ZM11 16.5C10.586 16.5 10.25 16.8353 10.25 17.25C10.25 17.6647 10.586 18 11 18C11.576 18 12.1018 17.7825 12.5 17.4255C12.8982 17.7825 13.424 18 14 18C14.414 18 14.75 17.6647 14.75 17.25C14.75 16.8353 14.414 16.5 14 16.5C13.586 16.5 13.25 16.164 13.25 15.75H11.75C11.75 16.164 11.4132 16.5 11 16.5ZM14 1.5C14.414 1.5 14.75 1.16475 14.75 0.75C14.75 0.33525 14.414 0 14 0C13.424 0 12.8982 0.2175 12.5 0.5745C12.1018 0.2175 11.576 0 11 0C10.586 0 10.25 0.33525 10.25 0.75C10.25 1.16475 10.586 1.5 11 1.5C11.414 1.5 11.75 1.836 11.75 2.25H13.25C13.25 1.836 13.5868 1.5 14 1.5Z" fill="#1455AC" fill-opacity="0.8"/>
  </g>
  <defs>
    <clipPath id="clip0_12432_5618">
      <rect width="18" height="18" fill="white" transform="translate(0.5)"/>
    </clipPath>
  </defs>
</svg>