<svg width="34" height="34" viewBox="0 0 34 34" fill="none" xmlns="http://www.w3.org/2000/svg">
<g clip-path="url(#clip0_183_244)">
<path d="M2.55039 17.4117H12.4184V17.4051C12.425 15.5656 13.1422 13.7926 14.4105 12.4578C16.4691 10.293 21.257 7.86914 24.5906 7.86914C24.823 7.86914 25.0555 7.88242 25.2812 7.90234C24.823 6.05625 23.2094 4.72148 21.3102 4.62187C21.1508 4.61523 20.9914 4.61523 20.832 4.62187C20.5 4.6418 20.2145 4.38945 20.1945 4.05742C20.1945 4.04414 20.1945 4.03086 20.1945 4.02422V4.01758C20.2012 1.79961 18.4016 -0.00664069 16.1836 -0.00664069C14.052 -0.0132813 12.2855 1.65352 12.166 3.77852C12.1594 3.90469 12.1594 4.03086 12.1594 4.15703V4.17695C12.1594 4.44258 11.9402 4.65508 11.6812 4.64844C9.11133 4.64844 7.03281 6.72695 7.03281 9.29688C7.03281 9.84141 7.28516 10.625 7.48438 11.1629C7.5707 11.4086 7.45117 11.6742 7.20547 11.7672C7.17227 11.7805 7.13242 11.7871 7.09258 11.7937C4.31016 12.1125 2.20508 14.4699 2.20508 17.2723V17.4383C2.31797 17.4184 2.4375 17.4117 2.55039 17.4117Z" fill="url(#paint0_linear_183_244)"/>
<path d="M29.591 17.4117C29.5312 17.2656 29.4648 17.1262 29.3918 16.9867C29.2191 16.6746 29.2059 16.2961 29.352 15.9707C29.6441 15.3398 29.7703 14.6426 29.7172 13.952C29.6641 13.2281 29.4051 12.5309 28.9801 11.9398C29.1129 13.8855 28.4488 16.0305 27.9043 17.4117H29.591Z" fill="url(#paint1_linear_183_244)"/>
<path d="M32.6797 5.64453C32.4273 5.40547 32.102 5.25273 31.7566 5.21953C31.5043 5.19297 31.2984 5.00039 31.2586 4.74805C31.1191 3.88477 30.3023 3.29375 29.4391 3.4332C29.0805 3.49297 28.7551 3.67227 28.5094 3.93789C28.1176 4.37617 28.0047 5.00039 28.2039 5.55156C28.3367 5.93008 28.2504 6.34844 27.9715 6.63398L25.8266 8.8918C25.6871 8.85859 25.541 8.82539 25.4016 8.80547C22.2074 8.3207 17.0344 10.9637 15.0422 13.0621C13.9266 14.2375 13.3023 15.7914 13.2891 17.4117H26.9621C27.8984 15.1473 28.4363 12.6438 27.925 10.9172C27.9184 10.8973 27.9117 10.8707 27.9051 10.8508L30.05 8.59297C30.3223 8.30078 30.7406 8.18789 31.1191 8.30742C31.9559 8.57305 32.8457 8.1082 33.1113 7.27148C33.2906 6.69375 33.1246 6.06289 32.6797 5.64453Z" fill="url(#paint2_linear_183_244)"/>
<path d="M29.8039 18.2883H2.55078C1.60117 18.2883 0.824219 19.0586 0.824219 20.0082C0.824219 25.168 3.66641 29.916 8.22188 32.3465C8.20859 32.393 8.20195 32.4328 8.20195 32.4793V32.9641C8.20195 33.5352 8.66016 33.9934 9.23125 33.9934H23.1234C23.6945 33.9934 24.1527 33.5352 24.1527 32.9641V32.4793C24.1527 32.4328 24.1461 32.393 24.1328 32.3465C28.6883 29.916 31.5305 25.168 31.5305 20.0082C31.5238 19.0652 30.7535 18.2883 29.8039 18.2883Z" fill="url(#paint3_linear_183_244)"/>
</g>
<defs>
<linearGradient id="paint0_linear_183_244" x1="1.1712" y1="-0.0066604" x2="15.6092" y2="23.1161" gradientUnits="userSpaceOnUse">
<stop stop-color="#FB5607" stop-opacity="0.9"/>
<stop offset="1" stop-color="#FB5607" stop-opacity="0.5"/>
</linearGradient>
<linearGradient id="paint1_linear_183_244" x1="27.8225" y1="11.9398" x2="31.322" y2="13.3527" gradientUnits="userSpaceOnUse">
<stop stop-color="#FB5607" stop-opacity="0.9"/>
<stop offset="1" stop-color="#FB5607" stop-opacity="0.5"/>
</linearGradient>
<linearGradient id="paint2_linear_183_244" x1="12.3978" y1="3.41282" x2="23.6023" y2="22.6899" gradientUnits="userSpaceOnUse">
<stop stop-color="#FB5607" stop-opacity="0.9"/>
<stop offset="1" stop-color="#FB5607" stop-opacity="0.5"/>
</linearGradient>
<linearGradient id="paint3_linear_183_244" x1="-0.55151" y1="18.2883" x2="9.82015" y2="42.8394" gradientUnits="userSpaceOnUse">
<stop stop-color="#FB5607" stop-opacity="0.9"/>
<stop offset="1" stop-color="#FB5607" stop-opacity="0.5"/>
</linearGradient>
<clipPath id="clip0_183_244">
<rect width="34" height="34" fill="white"/>
</clipPath>
</defs>
</svg>
