<svg width="34" height="34" viewBox="0 0 34 34" fill="none" xmlns="http://www.w3.org/2000/svg">
<path d="M31.1761 12.0979L28.8165 3.84665C28.4941 2.76211 27.4828 2 26.3543 2H22.6904V7.49597C22.6904 8.09686 22.192 8.59517 21.5912 8.59517C20.9903 8.59517 20.492 8.09686 20.492 7.49597V2H13.8968V7.49597C13.8968 8.09686 13.3985 8.59517 12.7976 8.59517C12.1967 8.59517 11.6984 8.09686 11.6984 7.49597V2H8.03443C6.92058 2 5.90932 2.76211 5.57223 3.8613L3.22729 12.0979C2.87555 13.329 2.93417 14.5748 3.3885 15.586C3.71093 16.3042 4.16527 16.9344 4.7515 17.4327C5.76276 18.3414 7.06714 18.8397 8.41548 18.8397C10.2182 18.8397 11.8157 17.975 12.8123 16.6413C13.8089 17.975 15.4064 18.8397 17.209 18.8397C19.0117 18.8397 20.6092 17.975 21.6058 16.6413C22.6024 17.975 24.1999 18.8397 26.0026 18.8397C27.3656 18.8397 28.67 18.3414 29.6519 17.4473C30.2381 16.9344 30.7071 16.3042 31.0296 15.586C31.4839 14.5748 31.5425 13.329 31.1908 12.0979H31.1761Z" fill="url(#paint0_linear_183_256)"/>
<path d="M17.1941 24.702C15.3767 24.702 13.8965 26.1823 13.8965 27.9996V32.03H20.4916V27.9996C20.4916 26.1823 19.0114 24.702 17.1941 24.702Z" fill="url(#paint1_linear_183_256)"/>
<path d="M25.9866 20.3053C24.3745 20.3053 22.8209 19.7337 21.5898 18.7371C19.1277 20.7449 15.2585 20.7449 12.7963 18.7371C11.5652 19.7337 10.0117 20.3053 8.39952 20.3053C6.93393 20.3053 5.54161 19.8216 4.36914 18.9862V27.9996C4.36914 30.2273 6.17182 32.03 8.39952 32.03H11.6971V27.9996C11.6971 24.9659 14.1593 22.5037 17.1931 22.5037C20.2268 22.5037 22.689 24.9659 22.689 27.9996V32.03H25.9866C28.2143 32.03 30.017 30.2273 30.017 27.9996V18.9862C28.8592 19.8216 27.4669 20.3053 25.9866 20.3053Z" fill="url(#paint2_linear_183_256)"/>
<defs>
<linearGradient id="paint0_linear_183_256" x1="1.72679" y1="2" x2="13.9763" y2="27.0274" gradientUnits="userSpaceOnUse">
<stop stop-color="#FB5607" stop-opacity="0.9"/>
<stop offset="1" stop-color="#FB5607" stop-opacity="0.5"/>
</linearGradient>
<linearGradient id="paint1_linear_183_256" x1="13.601" y1="24.702" x2="20.3262" y2="32.03" gradientUnits="userSpaceOnUse">
<stop stop-color="#FB5607" stop-opacity="0.9"/>
<stop offset="1" stop-color="#FB5607" stop-opacity="0.5"/>
</linearGradient>
<linearGradient id="paint2_linear_183_256" x1="3.22004" y1="18.7371" x2="12.0798" y2="39.4332" gradientUnits="userSpaceOnUse">
<stop stop-color="#FB5607" stop-opacity="0.9"/>
<stop offset="1" stop-color="#FB5607" stop-opacity="0.5"/>
</linearGradient>
</defs>
</svg>
