<svg width="34" height="34" viewBox="0 0 34 34" fill="none" xmlns="http://www.w3.org/2000/svg">
<path d="M16.7789 7.42856L18.9218 5.2857H3.60798C3.38954 5.2857 3.07227 5.70309 3.07227 6.35713C3.07227 7.01117 3.38954 7.42856 3.60798 7.42856H16.7789Z" fill="url(#paint0_linear_183_265)"/>
<path d="M19.2842 11.5687C18.8502 11.9062 18.3119 12.0816 17.7624 12.0645C17.2129 12.0474 16.6866 11.8388 16.2745 11.4749C15.8623 11.111 15.5903 10.6146 15.5053 10.0714C15.4203 9.52822 15.5277 8.9724 15.8089 8.49998H4.54317L2.0454 16.9556C2.01527 17.0799 2.00003 17.2073 2 17.3352V24.0042C2 28.4596 5.61182 32.0714 10.0672 32.0714H19.6786V17.3352C19.6786 17.1162 19.7054 16.8981 19.7585 16.6856C19.7603 16.6783 19.7623 16.671 19.7645 16.6637L21.8616 9.56398L19.2842 11.5687ZM10.5714 19.2143H10.5704C10.5708 19.2974 10.5518 19.3794 10.5148 19.4539L9.50911 21.4654L9.95234 27.6712C9.96807 27.8913 9.93828 28.1123 9.86485 28.3205C9.79141 28.5286 9.67589 28.7194 9.5255 28.8809C9.3751 29.0424 9.19305 29.1712 8.99068 29.2593C8.78832 29.3474 8.56999 29.3928 8.34929 29.3928H7.43643C7.21573 29.3928 6.99739 29.3474 6.79503 29.2593C6.59267 29.1712 6.41061 29.0424 6.26022 28.8809C6.10982 28.7194 5.99431 28.5286 5.92087 28.3205C5.84743 28.1123 5.81765 27.8913 5.83337 27.6712L6.27661 21.4654L5.27087 19.4539C5.23395 19.3794 5.21492 19.2974 5.21529 19.2143H5.21429V17.0714C5.21429 16.9293 5.27073 16.7931 5.37119 16.6926C5.47166 16.5921 5.60792 16.5357 5.75 16.5357C5.89208 16.5357 6.02834 16.5921 6.12881 16.6926C6.22927 16.7931 6.28571 16.9293 6.28571 17.0714V18.6786H7.35714V17.0714C7.35714 16.9293 7.41358 16.7931 7.51405 16.6926C7.61452 16.5921 7.75078 16.5357 7.89286 16.5357C8.03494 16.5357 8.1712 16.5921 8.27166 16.6926C8.37213 16.7931 8.42857 16.9293 8.42857 17.0714V18.6786H9.5V17.0714C9.5 16.9293 9.55644 16.7931 9.65691 16.6926C9.75737 16.5921 9.89363 16.5357 10.0357 16.5357C10.1778 16.5357 10.3141 16.5921 10.4145 16.6926C10.515 16.7931 10.5714 16.9293 10.5714 17.0714V19.2143ZM15.4006 28.8638C15.2498 29.0303 15.0658 29.1633 14.8605 29.2544C14.6553 29.3455 14.4332 29.3927 14.2086 29.3928H13.3625C13.138 29.3928 12.9159 29.3458 12.7107 29.2547C12.5055 29.1636 12.3216 29.0306 12.1709 28.8641C12.0203 28.6976 11.9062 28.5014 11.836 28.2881C11.7658 28.0748 11.7411 27.8492 11.7634 27.6258L12.1786 23.4732V23.2951L11.4033 22.9074C11.3082 22.8599 11.2294 22.7851 11.1769 22.6926C11.1244 22.6002 11.1007 22.4942 11.1086 22.3882C11.1266 22.1495 11.5853 16.5357 14.8571 16.5357C14.9992 16.5357 15.1355 16.5921 15.236 16.6926C15.3364 16.7931 15.3929 16.9293 15.3929 17.0714V23.4732L15.808 27.6255C15.8302 27.8489 15.8054 28.0745 15.7353 28.2878C15.6651 28.501 15.5511 28.6972 15.4006 28.8638Z" fill="url(#paint1_linear_183_265)"/>
<path d="M28.7852 0.999985H31.9994V6.89284H28.7852V0.999985Z" fill="url(#paint2_linear_183_265)"/>
<path d="M15.6571 2.294L12.1367 4.21427H20.2144C20.3203 4.21426 20.4239 4.24568 20.512 4.30455C20.6001 4.36341 20.6688 4.44708 20.7093 4.54497C20.7499 4.64286 20.7605 4.75058 20.7398 4.8545C20.7191 4.95842 20.6681 5.05388 20.5932 5.1288L16.9257 8.79637C16.6938 9.02799 16.5591 9.3393 16.5488 9.66685C16.5386 9.99439 16.6536 10.3135 16.8705 10.5592C17.0874 10.8049 17.3898 10.9586 17.7161 10.989C18.0424 11.0194 18.368 10.9243 18.6266 10.723L21.9699 8.12264C22.102 8.02027 22.2642 7.96457 22.4313 7.96427H23.7483C24.2316 7.96372 24.6951 7.77145 25.0369 7.42965C25.3787 7.08784 25.5709 6.62442 25.5715 6.14103C25.5718 5.91426 25.662 5.69686 25.8223 5.53651C25.9827 5.37616 26.2001 5.28596 26.4268 5.2857H27.7144V2.07141H16.5301C16.2251 2.07162 15.925 2.14814 15.6571 2.294Z" fill="url(#paint3_linear_183_265)"/>
<path d="M8.46543 21.8928H7.32034L6.90175 27.7476C6.89652 27.821 6.90645 27.8946 6.93094 27.964C6.95542 28.0334 6.99393 28.097 7.04406 28.1508C7.0942 28.2046 7.15488 28.2476 7.22233 28.2769C7.28979 28.3063 7.36256 28.3214 7.43612 28.3214H8.34898C8.42254 28.3214 8.49532 28.3063 8.56277 28.2769C8.63022 28.2476 8.69091 28.2046 8.74104 28.1508C8.79117 28.097 8.82968 28.0334 8.85417 27.964C8.87865 27.8946 8.88859 27.821 8.88336 27.7476L8.46543 21.8928Z" fill="url(#paint4_linear_183_265)"/>
<path d="M13.2515 22.9643H14.3229V17.7047C13.6626 17.9563 13.1217 18.6933 12.71 19.9047C12.4748 20.6242 12.3097 21.3646 12.2168 22.1158L12.9553 22.4851C13.0443 22.5296 13.1192 22.598 13.1715 22.6826C13.2238 22.7673 13.2515 22.8648 13.2515 22.9643Z" fill="url(#paint5_linear_183_265)"/>
<path d="M7.1529 20.8214H8.63362L9.16933 19.75H6.61719L7.1529 20.8214Z" fill="url(#paint6_linear_183_265)"/>
<path d="M21.5078 32.0714H24.2783L22.893 30.6862L21.5078 32.0714Z" fill="url(#paint7_linear_183_265)"/>
<path d="M14.3718 24.0357H13.1986L12.8289 27.7321C12.8214 27.8066 12.8296 27.8819 12.853 27.953C12.8763 28.0241 12.9144 28.0896 12.9646 28.1451C13.0148 28.2006 13.0762 28.245 13.1446 28.2754C13.213 28.3057 13.2871 28.3214 13.362 28.3214H14.2084C14.2833 28.3214 14.3573 28.3057 14.4257 28.2754C14.4942 28.245 14.5555 28.2006 14.6057 28.1451C14.656 28.0896 14.694 28.0241 14.7174 27.953C14.7408 27.8819 14.749 27.8066 14.7415 27.7321L14.3718 24.0357Z" fill="url(#paint8_linear_183_265)"/>
<path d="M20.7955 16.9556C20.7653 17.0799 20.7501 17.2073 20.75 17.3352V31.3138L22.3571 29.7066V18.1428C22.3571 18.0008 22.4136 17.8645 22.514 17.764C22.6145 17.6636 22.7508 17.6071 22.8929 17.6071C23.0349 17.6071 23.1712 17.6636 23.2717 17.764C23.3721 17.8645 23.4286 18.0008 23.4286 18.1428V29.7066L25.0357 31.3138V17.38C25.0357 17.2265 25.0138 17.0739 24.9704 16.9267L22.8917 9.85902L20.7955 16.9556Z" fill="url(#paint9_linear_183_265)"/>
<defs>
<linearGradient id="paint0_linear_183_265" x1="2.36216" y1="5.2857" x2="2.79757" y2="9.18475" gradientUnits="userSpaceOnUse">
<stop stop-color="#FB5607" stop-opacity="0.9"/>
<stop offset="1" stop-color="#FB5607" stop-opacity="0.5"/>
</linearGradient>
<linearGradient id="paint1_linear_183_265" x1="1.11014" y1="8.49998" x2="22.8181" y2="30.6454" gradientUnits="userSpaceOnUse">
<stop stop-color="#FB5607" stop-opacity="0.9"/>
<stop offset="1" stop-color="#FB5607" stop-opacity="0.5"/>
</linearGradient>
<linearGradient id="paint2_linear_183_265" x1="28.6411" y1="0.999985" x2="33.6333" y2="4.29668" gradientUnits="userSpaceOnUse">
<stop stop-color="#FB5607" stop-opacity="0.9"/>
<stop offset="1" stop-color="#FB5607" stop-opacity="0.5"/>
</linearGradient>
<linearGradient id="paint3_linear_183_265" x1="11.4388" y1="2.07141" x2="17.7939" y2="15.5034" gradientUnits="userSpaceOnUse">
<stop stop-color="#FB5607" stop-opacity="0.9"/>
<stop offset="1" stop-color="#FB5607" stop-opacity="0.5"/>
</linearGradient>
<linearGradient id="paint4_linear_183_265" x1="6.81149" y1="21.8928" x2="10.695" y2="23.3441" gradientUnits="userSpaceOnUse">
<stop stop-color="#FB5607" stop-opacity="0.9"/>
<stop offset="1" stop-color="#FB5607" stop-opacity="0.5"/>
</linearGradient>
<linearGradient id="paint5_linear_183_265" x1="12.1224" y1="17.7047" x2="15.9259" y2="19.5487" gradientUnits="userSpaceOnUse">
<stop stop-color="#FB5607" stop-opacity="0.9"/>
<stop offset="1" stop-color="#FB5607" stop-opacity="0.5"/>
</linearGradient>
<linearGradient id="paint6_linear_183_265" x1="6.50284" y1="19.75" x2="7.11382" y2="21.512" gradientUnits="userSpaceOnUse">
<stop stop-color="#FB5607" stop-opacity="0.9"/>
<stop offset="1" stop-color="#FB5607" stop-opacity="0.5"/>
</linearGradient>
<linearGradient id="paint7_linear_183_265" x1="21.3837" y1="30.6862" x2="22.284" y2="32.8663" gradientUnits="userSpaceOnUse">
<stop stop-color="#FB5607" stop-opacity="0.9"/>
<stop offset="1" stop-color="#FB5607" stop-opacity="0.5"/>
</linearGradient>
<linearGradient id="paint8_linear_183_265" x1="12.7402" y1="24.0357" x2="16.0473" y2="25.8276" gradientUnits="userSpaceOnUse">
<stop stop-color="#FB5607" stop-opacity="0.9"/>
<stop offset="1" stop-color="#FB5607" stop-opacity="0.5"/>
</linearGradient>
<linearGradient id="paint9_linear_183_265" x1="20.558" y1="9.85902" x2="29.5887" y2="12.0431" gradientUnits="userSpaceOnUse">
<stop stop-color="#FB5607" stop-opacity="0.9"/>
<stop offset="1" stop-color="#FB5607" stop-opacity="0.5"/>
</linearGradient>
</defs>
</svg>
