<svg width="380" height="380" viewBox="0 0 380 380" fill="none" xmlns="http://www.w3.org/2000/svg">
<path d="M137.809 227.527C137.809 227.527 130.478 222.412 127.113 223.341C123.748 224.271 119.422 229.001 119.422 229.001C119.422 229.001 127.967 226.542 130.544 227.054C133.123 227.567 137.809 227.527 137.809 227.527Z" fill="#E0E0E0"/>
<path d="M140.277 229.377C139.211 231.793 137.368 233.808 136.337 236.239C135.161 239.013 135.142 242.257 136.285 245.044C138.236 242.998 139.397 240.302 140.025 237.546C140.652 234.789 140.754 232.529 140.88 229.705L140.277 229.377Z" fill="#E0E0E0"/>
<path d="M139.153 228.744C139.49 227.757 131.187 228.187 128.542 231.389C125.898 234.591 123.252 238.071 125.48 246.145C125.48 246.145 130.491 237.393 130.491 237.523C130.491 237.654 138.488 230.693 139.153 228.744Z" fill="#E0E0E0"/>
<path d="M139.217 228.644C138.448 228.942 145.989 231.238 149.469 231.519C152.949 231.801 155.054 230.64 155.054 230.64C155.054 230.64 149.998 224.461 139.217 228.644Z" fill="#E0E0E0"/>
<path d="M177.318 260.418C177.318 260.418 180.949 258.943 181.97 259.964C182.992 260.985 187.19 266.545 191.161 266.885C191.161 266.885 187.53 259.17 184.24 257.922C182.076 257.101 177.318 260.418 177.318 260.418Z" fill="#E0E0E0"/>
<path d="M178.252 260.001C178.252 260.001 178.107 257.277 176.741 255.842C175.374 254.408 170.43 253.428 170.43 253.428C170.43 253.428 172.21 256.282 174.034 257.671C175.858 259.06 178.252 260.001 178.252 260.001Z" fill="#E0E0E0"/>
<path d="M178.247 259.845C178.247 259.845 175.72 259.806 173.931 262.968C172.144 266.129 171.173 270.1 171.322 269.836C171.471 269.573 176.091 267.55 177.307 264.992C178.522 262.434 178.247 259.845 178.247 259.845Z" fill="#E0E0E0"/>
<path d="M178.822 259.845C178.822 259.845 179.276 265.865 180.297 266.886C181.319 267.908 182.794 271.652 182.794 271.652C182.794 271.652 185.063 266.206 183.815 263.596C182.567 260.986 178.822 259.845 178.822 259.845Z" fill="#E0E0E0"/>
<path d="M156.767 271.47C156.476 271.907 150.65 276.421 149.776 278.605C148.902 280.79 149.631 284.139 149.776 285.159C149.922 286.178 155.019 283.848 155.893 279.916C156.767 275.984 156.767 271.47 156.767 271.47Z" fill="#E0E0E0"/>
<path d="M157.901 268.087C157.895 268.815 157.988 275.951 159.863 278.441C161.738 280.931 165.213 283.578 165.213 283.578C165.213 283.578 166.444 274.558 163.844 271.771C161.244 268.985 157.901 268.087 157.901 268.087Z" fill="#E0E0E0"/>
<path d="M157.047 269.312C156.622 269.212 151.352 268.714 148.847 271.714C146.342 274.713 144.938 278.122 144.938 278.122C144.938 278.122 152.905 274.169 154.366 272.42C155.828 270.67 157.047 269.312 157.047 269.312Z" fill="#E0E0E0"/>
<path d="M160.67 266.049C160.67 266.049 162.814 264.458 165.183 265.932C167.552 267.407 171.486 273.133 171.486 273.133C171.486 273.133 166.671 272.819 164.132 270.408C161.594 267.998 160.67 266.049 160.67 266.049Z" fill="#E0E0E0"/>
<path d="M157.245 266.931C157.245 266.931 154.187 264.333 151.856 263.755C149.526 263.177 142.682 264.883 142.682 264.883C142.682 264.883 145.885 267.334 150.618 266.931C155.352 266.527 157.245 266.931 157.245 266.931Z" fill="#E0E0E0"/>
<path d="M147.104 293.379C147.104 293.379 144.919 297.602 147.104 299.932C149.288 302.263 150.467 306.923 150.467 306.923C150.467 306.923 154.24 303.283 152.347 299.204C150.453 295.126 147.104 293.379 147.104 293.379Z" fill="#E0E0E0"/>
<path d="M143.6 293.47C143.018 293.761 139.231 298.859 138.94 302.499C138.649 306.139 138.357 312.402 138.94 311.965C139.522 311.528 143.745 307.596 144.91 303.809C146.075 300.023 143.6 293.47 143.6 293.47Z" fill="#E0E0E0"/>
<path d="M142.174 293.071C141.592 293.216 136.058 292.197 133 296.129C129.941 300.062 127.611 305.741 127.611 305.741C127.611 305.741 135.621 301.645 137.514 299.397C139.407 297.149 142.174 293.071 142.174 293.071Z" fill="#E0E0E0"/>
<path d="M173.429 286.081C173.429 286.081 171.765 291.032 173.429 295.401C175.094 299.77 176.987 302.682 176.987 302.682C176.987 302.682 179.451 293.944 177.855 291.614C176.258 289.285 173.429 286.081 173.429 286.081Z" fill="#E0E0E0"/>
<path d="M174.342 285.555C174.932 286.101 181.759 295.906 186.402 296.781C191.045 297.655 187.129 296.411 187.129 296.411C187.129 296.411 185.666 289.802 183.586 287.066C181.505 284.331 174.342 285.555 174.342 285.555Z" fill="#E0E0E0"/>
<path d="M173.301 285.383C173.301 285.383 178.342 281.887 180.312 280.996C182.328 280.083 188.798 281.278 188.798 281.278C188.798 281.278 180.883 285.397 178.981 284.96C177.079 284.523 173.301 286.209 173.301 286.209" fill="#E0E0E0"/>
<path d="M190.823 237.704C190.823 237.704 186.454 242.332 187.033 245.948C187.612 249.563 188.901 253.034 188.901 253.034L190.823 246.671V237.704Z" fill="#E0E0E0"/>
<path d="M191.413 236.779C191.413 236.779 190.401 243.866 192.426 246.758C194.45 249.651 197.198 255.146 197.487 254.712C197.777 254.278 201.97 250.519 198.933 245.168C195.896 239.816 191.413 236.779 191.413 236.779Z" fill="#E0E0E0"/>
<path d="M189.947 238.034C189.947 238.034 182.972 236.01 181.969 239.336C180.966 242.663 180.098 245.554 180.098 245.554C180.098 245.554 182.426 243.064 185.022 241.489C187.619 239.915 189.947 238.034 189.947 238.034Z" fill="#E0E0E0"/>
<path d="M158.66 239.909C158.66 239.909 158.868 239.72 159.228 239.414C160.875 238.009 165.689 234.141 168.118 234.734C171.076 235.457 175.153 237.291 175.153 237.291C175.153 237.291 164.612 242.77 158.66 239.909Z" fill="#E0E0E0"/>
<path d="M160.071 239.959C160.092 239.432 156.901 238.585 154.101 241.477C151.299 244.37 150.865 246.146 150.865 246.146C150.865 246.146 159.876 244.947 160.071 239.959Z" fill="#E0E0E0"/>
<path d="M159.574 240.541C159.574 240.541 156.37 244.229 158.828 247.844C161.287 251.46 163.417 254.931 163.417 254.931C163.417 254.931 164.678 251.676 163.417 247.736C162.155 243.795 159.574 240.541 159.574 240.541Z" fill="#E0E0E0"/>
<path d="M171.562 249.72C171.418 248.84 172.584 241.618 163.03 242.332H162.154C162.154 242.332 166.723 249.708 167.769 252.022C168.815 254.336 169.602 255.059 170.727 256.071C171.852 257.084 171.707 250.6 171.562 249.72Z" fill="#E0E0E0"/>
<path d="M173.41 285.782C173.546 283.533 172.704 281.242 171.144 279.615C170.997 279.462 170.787 279.302 170.593 279.39C170.464 279.447 170.403 279.594 170.361 279.729C169.955 281.039 170.253 282.489 170.894 283.7C171.536 284.912 172.496 285.921 173.48 286.876" fill="#E0E0E0"/>
<path d="M146.487 292.442C144.783 289.314 142.013 286.779 138.746 285.359C138.54 285.269 138.317 285.182 138.097 285.227C137.759 285.296 137.553 285.656 137.51 285.999C137.423 286.7 137.822 287.365 138.249 287.928C140.318 290.658 143.469 292.543 146.852 293.074" fill="#E0E0E0"/>
<path d="M184.767 281.778C184.767 281.81 184.276 281.809 183.398 281.917C182.524 282.028 181.262 282.273 179.792 282.846C178.325 283.417 176.656 284.307 174.985 285.556C173.306 286.795 171.628 288.372 169.902 290.065C166.431 293.44 163.372 296.576 161.252 298.933C160.189 300.109 159.348 301.078 158.769 301.75C158.499 302.06 158.277 302.314 158.098 302.519C157.942 302.694 157.856 302.782 157.847 302.774C157.837 302.766 157.905 302.664 158.044 302.475C158.183 302.288 158.389 302.01 158.666 301.663C159.214 300.964 160.028 299.969 161.069 298.77C163.146 296.366 166.185 293.194 169.659 289.817C171.387 288.122 173.085 286.538 174.795 285.297C176.498 284.047 178.205 283.165 179.705 282.616C181.207 282.065 182.496 281.854 183.383 281.783C183.828 281.747 184.174 281.74 184.409 281.749C184.644 281.757 184.767 281.767 184.767 281.778Z" fill="#E0E0E0"/>
<path d="M157.662 300.679C157.607 300.716 157.038 299.729 155.797 298.409C154.57 297.09 152.581 295.483 150.01 294.473C147.439 293.463 144.888 293.288 143.091 293.42C141.283 293.543 140.195 293.88 140.18 293.814C140.174 293.795 140.439 293.692 140.933 293.557C141.427 293.42 142.157 293.269 143.071 293.175C144.89 292.979 147.504 293.116 150.137 294.15C152.769 295.183 154.779 296.862 155.978 298.243C156.584 298.934 157.016 299.541 157.285 299.977C157.556 300.413 157.68 300.668 157.662 300.679Z" fill="#E0E0E0"/>
<path d="M159.539 239.858C159.545 239.859 159.542 239.93 159.533 240.067C159.519 240.222 159.502 240.423 159.481 240.675C159.426 241.232 159.349 242.013 159.251 243.008C159.045 245.033 158.75 247.964 158.425 251.589C157.78 258.835 157.024 268.873 157.038 279.976C157.074 291.082 157.851 301.117 158.416 308.372C158.71 311.982 158.949 314.912 159.116 316.965C159.193 317.961 159.254 318.744 159.296 319.303C159.312 319.554 159.325 319.755 159.334 319.911C159.341 320.049 159.342 320.119 159.336 320.12C159.33 320.12 159.317 320.05 159.299 319.914C159.28 319.759 159.257 319.559 159.227 319.309C159.168 318.752 159.086 317.971 158.982 316.977C158.777 314.952 158.492 312.02 158.171 308.393C157.544 301.142 156.727 291.101 156.692 279.976C156.676 268.856 157.474 258.811 158.181 251.566C158.538 247.942 158.871 245.015 159.116 242.993C159.242 242.001 159.341 241.222 159.412 240.667C159.447 240.417 159.476 240.218 159.498 240.063C159.519 239.927 159.533 239.858 159.539 239.858Z" fill="#E0E0E0"/>
<path d="M181.318 259.406C181.319 259.43 180.957 259.484 180.302 259.56C179.646 259.631 178.7 259.758 177.536 259.944C175.21 260.313 172.021 261.009 168.628 262.193C165.236 263.386 162.309 264.83 160.262 265.994C159.237 266.574 158.417 267.065 157.861 267.419C157.301 267.768 156.985 267.952 156.971 267.933C156.957 267.913 157.249 267.691 157.787 267.306C158.322 266.917 159.124 266.392 160.139 265.782C162.165 264.558 165.097 263.066 168.514 261.866C171.932 260.674 175.154 260.01 177.501 259.702C178.674 259.546 179.629 259.455 180.29 259.426C180.951 259.39 181.316 259.382 181.318 259.406Z" fill="#E0E0E0"/>
<path d="M157.738 256.179C157.726 256.18 157.695 256.046 157.646 255.789C157.595 255.496 157.53 255.124 157.451 254.668C157.375 254.18 157.281 253.584 157.1 252.906C156.925 252.228 156.791 251.439 156.497 250.606C156.364 250.185 156.225 249.745 156.081 249.288C155.94 248.828 155.728 248.373 155.545 247.888C155.194 246.913 154.688 245.927 154.185 244.878C153.097 242.82 151.715 240.656 150.028 238.563C146.621 234.387 142.751 231.341 139.851 229.345C139.138 228.823 138.445 228.423 137.862 228.033C137.277 227.644 136.755 227.34 136.329 227.089C135.933 226.848 135.611 226.653 135.356 226.498C135.135 226.36 135.021 226.282 135.028 226.272C135.034 226.261 135.158 226.318 135.389 226.437C135.653 226.577 135.986 226.754 136.396 226.972C136.833 227.207 137.367 227.495 137.963 227.869C138.559 228.244 139.262 228.632 139.987 229.143C142.935 231.095 146.859 234.132 150.297 238.345C151.999 240.456 153.388 242.647 154.469 244.733C154.969 245.796 155.469 246.796 155.813 247.784C155.991 248.275 156.199 248.737 156.334 249.202C156.472 249.666 156.605 250.111 156.732 250.539C157.013 251.382 157.131 252.181 157.29 252.866C157.454 253.553 157.529 254.155 157.584 254.649C157.638 255.111 157.682 255.485 157.716 255.783C157.742 256.041 157.75 256.177 157.738 256.179Z" fill="#E0E0E0"/>
<path d="M191.914 237.372C191.917 237.383 191.791 237.438 191.548 237.534C191.268 237.64 190.914 237.773 190.479 237.937C189.545 238.274 188.204 238.785 186.559 239.445C183.269 240.76 178.79 242.758 174.05 245.361C169.312 247.974 165.228 250.688 162.355 252.765C160.918 253.801 159.767 254.661 158.984 255.269C158.612 255.549 158.31 255.776 158.072 255.957C157.86 256.111 157.746 256.188 157.739 256.179C157.731 256.169 157.831 256.074 158.027 255.903C158.255 255.71 158.544 255.464 158.9 255.163C159.658 254.522 160.788 253.632 162.21 252.567C165.051 250.435 169.129 247.679 173.882 245.058C178.637 242.446 183.148 240.477 186.469 239.217C188.13 238.585 189.486 238.107 190.434 237.81C190.878 237.671 191.24 237.558 191.525 237.469C191.777 237.394 191.91 237.36 191.914 237.372Z" fill="#E0E0E0"/>
<path d="M171.744 352.7H144.312L141.443 319.185H174.959L171.744 352.7Z" fill="#E0E0E0"/>
<path d="M177.184 319.185H139.32V324.339H177.184V319.185Z" fill="#E0E0E0"/>
<path d="M176.939 324.352C176.939 324.448 168.472 324.525 158.03 324.525C147.584 324.525 139.119 324.448 139.119 324.352C139.119 324.256 147.584 324.179 158.03 324.179C168.472 324.179 176.939 324.256 176.939 324.352Z" fill="#EBEBEB"/>
<path d="M292.31 353.214L315.611 353.395L315.841 323.984L292.54 323.802L292.31 353.214Z" fill="#EBEBEB"/>
<path d="M306.74 324.854L306.326 353.331L302.645 353.303L303.433 324.828L306.74 324.854Z" fill="#FAFAFA"/>
<path d="M279.177 324.639L292.545 324.743L315.845 324.925L292.52 327.994L292.323 353.222L278.961 353.117L279.177 324.639Z" fill="#E0E0E0"/>
<path d="M286.453 324.696L285.922 353.172L281.955 353.141L282.603 324.665L286.453 324.696Z" fill="#FAFAFA"/>
<path d="M297.032 316.028C297.037 316.208 296.647 316.393 295.931 316.569C295.215 316.741 294.17 316.912 292.843 316.981C292.179 317.013 291.444 317.016 290.647 316.956C290.249 316.925 289.835 316.884 289.409 316.816C288.975 316.745 288.571 316.681 288.045 316.526C287.786 316.443 287.508 316.342 287.207 316.165C286.912 315.991 286.579 315.731 286.323 315.334C286.06 314.94 285.945 314.443 285.94 314.052C285.931 313.654 285.994 313.332 286.052 313.063C286.274 312.124 286.498 311.161 286.947 310.113C287.173 309.595 287.453 309.084 287.799 308.61C287.979 308.372 288.156 308.156 288.374 307.93C288.597 307.704 288.85 307.49 289.151 307.302C289.452 307.116 289.806 306.958 290.205 306.879C290.603 306.799 291.041 306.814 291.412 306.909C292.162 307.108 292.635 307.489 293.007 307.792C294.423 308.988 295.423 310.334 296.068 311.551C296.714 312.771 297.003 313.856 297.099 314.611C297.189 315.372 297.098 315.806 296.929 315.845C296.552 315.935 296.005 314.435 294.52 312.548C293.776 311.611 292.786 310.585 291.529 309.682C291.236 309.467 290.972 309.34 290.852 309.332C290.791 309.327 290.771 309.334 290.725 309.347C290.68 309.362 290.611 309.393 290.522 309.453C290.433 309.515 290.33 309.605 290.227 309.716C290.123 309.831 290.002 309.984 289.897 310.128C289.686 310.43 289.5 310.772 289.334 311.15C289.006 311.902 288.766 312.802 288.533 313.65C288.486 313.829 288.465 313.961 288.461 314.016L288.458 314.043L288.457 314.047C288.441 314.049 288.403 314.059 288.385 314.064C288.303 314.085 288.281 314.106 288.337 314.073C288.346 314.066 288.4 314.03 288.422 314.009C288.422 314.009 288.421 314.014 288.427 314.021C288.437 314.033 288.456 314.056 288.493 314.082C288.562 314.135 288.684 314.198 288.825 314.255C289.104 314.366 289.51 314.478 289.863 314.57C290.224 314.666 290.582 314.743 290.93 314.815C291.629 314.955 292.298 315.056 292.916 315.139C294.153 315.303 295.186 315.415 295.903 315.554C296.623 315.692 297.026 315.848 297.032 316.028Z" fill="#E0E0E0"/>
<path d="M296.551 316.241C296.486 315.872 298.229 315.325 300.949 314.527C302.303 314.116 303.893 313.618 305.535 312.883C305.94 312.707 306.309 312.512 306.527 312.33C306.635 312.243 306.684 312.164 306.67 312.172C306.653 312.177 306.641 312.276 306.638 312.225C306.629 312.181 306.575 312.032 306.47 311.817C306.36 311.588 306.249 311.357 306.136 311.123C305.913 310.669 305.682 310.243 305.428 309.856C305.172 309.472 304.9 309.138 304.598 308.865C304.45 308.724 304.287 308.604 304.129 308.49C303.984 308.391 303.838 308.313 303.704 308.261C303.428 308.156 303.232 308.143 303.017 308.196C302.794 308.25 302.504 308.421 302.194 308.674C300.857 309.794 299.776 311.03 299.01 312.134C297.448 314.356 297.036 316.092 296.647 316.035C296.477 316.012 296.35 315.537 296.41 314.681C296.471 313.83 296.748 312.599 297.416 311.212C298.082 309.82 299.12 308.307 300.612 306.871C301.014 306.5 301.53 306.078 302.262 305.826C302.996 305.565 303.872 305.606 304.567 305.859C304.922 305.981 305.242 306.146 305.539 306.335C305.815 306.518 306.081 306.712 306.328 306.934C306.828 307.372 307.248 307.887 307.601 308.417C307.95 308.948 308.229 309.484 308.469 309.993C308.584 310.245 308.698 310.494 308.811 310.742C308.925 311.005 309.08 311.342 309.156 311.811C309.241 312.27 309.161 312.906 308.895 313.357C308.64 313.815 308.318 314.096 308.031 314.309C307.448 314.724 306.914 314.926 306.438 315.104C304.545 315.796 302.793 316.132 301.334 316.326C298.409 316.687 296.609 316.58 296.551 316.241Z" fill="#EBEBEB"/>
<path d="M274.924 324.598L309.174 324.865L309.25 315.13L275 314.863L274.924 324.598Z" fill="#E0E0E0"/>
<path d="M287.518 324.696L318.477 324.938L318.552 315.203L287.594 314.961L287.518 324.696Z" fill="#EBEBEB"/>
<path d="M309.065 315.137L308.847 324.917L305.236 324.842L305.489 315.109L309.065 315.137Z" fill="#FAFAFA"/>
<path d="M283.411 314.985L283.062 324.677L279.092 324.645L279.305 314.904L283.411 314.985Z" fill="#FAFAFA"/>
<path d="M318.099 353.292L331.303 353.395L331.433 336.729L318.229 336.626L318.099 353.292Z" fill="#EBEBEB"/>
<path d="M326.281 337.226L326.047 353.363L323.961 353.346L324.408 337.211L326.281 337.226Z" fill="#FAFAFA"/>
<path d="M310.663 337.104L318.238 337.163L331.442 337.266L318.224 339.005L318.113 353.3L310.541 353.241L310.663 337.104Z" fill="#E0E0E0"/>
<path d="M314.787 337.136L314.486 353.272L312.238 353.255L312.605 337.119L314.787 337.136Z" fill="#FAFAFA"/>
<path d="M320.781 332.225C320.784 332.468 319.915 332.77 318.402 332.894C317.63 332.938 316.749 332.951 315.635 332.667C315.34 332.566 314.919 332.435 314.565 331.925C314.396 331.672 314.322 331.352 314.319 331.108C314.313 330.858 314.352 330.662 314.385 330.503C314.51 329.965 314.636 329.414 314.899 328.799C315.031 328.496 315.197 328.194 315.402 327.913C315.607 327.644 315.844 327.363 316.22 327.128C316.571 326.891 317.156 326.749 317.637 326.886C318.107 327.011 318.389 327.246 318.605 327.423C319.419 328.122 319.986 328.907 320.345 329.617C321.059 331.06 320.954 332.084 320.724 332.12C320.461 332.181 320.106 331.35 319.25 330.322C318.821 329.811 318.261 329.252 317.56 328.761C317.4 328.645 317.266 328.591 317.241 328.6L317.237 328.603L317.24 328.566L317.245 328.612C317.245 328.616 317.225 328.625 317.19 328.65C317.121 328.695 317.003 328.825 316.888 328.988C316.778 329.147 316.68 329.328 316.589 329.534C316.412 329.94 316.274 330.444 316.142 330.918L316.104 331.082C316.132 331.083 316.014 331.086 315.986 331.092C315.941 331.099 315.91 331.105 315.884 331.111C315.837 331.124 315.825 331.136 315.856 331.117C315.882 331.101 315.923 331.069 315.986 331.003L316.024 330.961V330.964C316.027 330.967 316.029 330.971 316.036 330.976C316.058 330.997 316.117 331.03 316.188 331.061C316.919 331.328 317.781 331.484 318.456 331.592C319.85 331.799 320.779 331.96 320.781 332.225Z" fill="#E0E0E0"/>
<path d="M320.509 332.346C320.461 332.064 321.442 331.687 322.963 331.19C323.719 330.935 324.603 330.636 325.509 330.215C325.73 330.116 325.924 330.006 326.01 329.927C326.053 329.89 326.053 329.867 326.017 329.917C325.979 329.967 325.963 330.098 325.969 330.111C325.882 329.93 325.794 329.746 325.704 329.56C325.579 329.308 325.453 329.078 325.319 328.874C325.183 328.671 325.044 328.501 324.894 328.362C324.738 328.218 324.575 328.106 324.475 328.068C324.362 328.024 324.32 328.02 324.251 328.029C324.176 328.039 324.035 328.11 323.868 328.242C323.127 328.844 322.51 329.516 322.065 330.112C321.158 331.311 320.856 332.267 320.564 332.229C320.31 332.22 320.099 331.055 320.837 329.402C321.204 328.584 321.788 327.698 322.649 326.852C322.887 326.629 323.201 326.364 323.668 326.202C324.138 326.032 324.703 326.058 325.14 326.217C325.363 326.294 325.563 326.396 325.746 326.512C325.914 326.623 326.076 326.74 326.226 326.875C326.529 327.14 326.782 327.45 326.992 327.766C327.2 328.081 327.363 328.397 327.501 328.691L327.695 329.121C327.76 329.274 327.858 329.485 327.909 329.794C327.966 330.095 327.91 330.532 327.731 330.833C327.559 331.14 327.349 331.32 327.168 331.453C326.8 331.713 326.481 331.828 326.204 331.928C325.107 332.316 324.096 332.49 323.258 332.577C321.58 332.736 320.555 332.609 320.509 332.346Z" fill="#E0E0E0"/>
<path d="M308.249 337.077L327.656 337.228L327.699 331.712L308.292 331.561L308.249 337.077Z" fill="#E0E0E0"/>
<path d="M315.383 337.133L332.926 337.27L332.969 331.754L315.426 331.617L315.383 337.133Z" fill="#EBEBEB"/>
<path d="M327.599 331.719L327.476 337.261L325.43 337.219L325.573 331.703L327.599 331.719Z" fill="#FAFAFA"/>
<path d="M313.062 331.634L312.865 337.125L310.615 337.108L310.736 331.588L313.062 331.634Z" fill="#FAFAFA"/>
<path d="M132.907 32.3091H32.3008V198.84H132.907V32.3091Z" fill="#E0E0E0"/>
<path d="M129.561 32.3091H28.9551V198.84H129.561V32.3091Z" fill="#EBEBEB"/>
<path d="M125.276 35.6865H33.2383V195.464H125.276V35.6865Z" fill="#FAFAFA"/>
<path d="M107.357 56.4482H50.7617V174.702H107.357V56.4482Z" fill="#EBEBEB"/>
<path d="M50.761 132.856C50.6303 121.809 60.5628 111.025 71.5014 109.483C76.7173 108.747 82.26 109.783 87.1339 107.784C95.8336 104.217 98.6015 92.6577 107.357 89.2294L107.756 174.701H50.761V132.856Z" fill="#E0E0E0"/>
<path d="M356.621 353.404C356.621 353.513 281.676 353.601 189.249 353.601C96.7897 353.601 21.8613 353.513 21.8613 353.404C21.8613 353.294 96.7897 353.206 189.249 353.206C281.676 353.206 356.621 353.294 356.621 353.404Z" fill="#263238"/>
<path d="M325.734 298.745L168.966 298.663C164.119 298.66 160.191 294.728 160.193 289.881L160.316 57.2676C160.319 52.4203 164.251 48.4926 169.098 48.4949L325.866 48.5777C330.714 48.58 334.641 52.5122 334.638 57.3595L334.515 289.972C334.513 294.821 330.582 298.748 325.734 298.745Z" fill="#263238"/>
<path d="M328.756 65.8267H165.428V274.747H328.756V65.8267Z" fill="white"/>
<path d="M254.045 286.136C254.043 289.83 251.047 292.823 247.353 292.821C243.659 292.819 240.666 289.823 240.668 286.129C240.67 282.436 243.666 279.442 247.361 279.444C251.054 279.446 254.047 282.443 254.045 286.136Z" fill="#455A64"/>
<path d="M272.804 58.5185L222.148 58.4919C221.638 58.4919 221.225 58.0777 221.225 57.5677L221.225 56.6519C221.225 56.142 221.64 55.7285 222.15 55.7285L272.806 55.7551C273.316 55.7551 273.729 56.1693 273.729 56.6793L273.728 57.5951C273.728 58.105 273.314 58.5185 272.804 58.5185Z" fill="#455A64"/>
<path d="M321.805 245.842C320.722 245.841 319.843 244.962 319.844 243.878L319.922 95.5548C319.923 94.4711 320.802 93.5925 321.886 93.5933C322.97 93.594 323.848 94.4733 323.847 95.5571L323.769 243.88C323.769 244.964 322.89 245.843 321.805 245.842Z" fill="#E0E0E0"/>
<path d="M281.305 82.9198C281.305 83.0292 266.152 83.1098 247.465 83.0999C228.771 83.09 213.621 82.9935 213.621 82.8841C213.621 82.7746 228.771 82.6941 247.465 82.7039C266.153 82.7138 281.306 82.8103 281.305 82.9198Z" fill="#263238"/>
<path d="M181.297 86.6826C181.302 86.678 181.377 86.6727 181.516 86.6666C181.692 86.6605 181.891 86.6529 182.122 86.6446C182.705 86.6294 183.449 86.6111 184.355 86.5876L184.285 86.659C184.276 86.162 184.267 85.6208 184.257 85.0387C184.26 84.7362 184.231 84.4558 184.261 84.1031C184.322 83.7512 184.635 83.4412 185.021 83.4047C185.384 83.3978 185.697 83.3811 186.092 83.3994C186.501 83.4488 186.848 83.8424 186.836 84.2749C186.844 85.0311 186.853 85.8207 186.863 86.6385L186.745 86.523C187.651 86.5138 188.593 86.5047 189.564 86.4948L189.443 86.6187C189.433 85.4833 189.423 84.3091 189.413 83.106C189.411 82.8058 189.409 82.5079 189.406 82.2115C189.404 81.9402 189.244 81.7631 189.015 81.5548C188.598 81.1437 188.187 80.7378 187.783 80.3388C187.379 79.9406 186.983 79.5484 186.595 79.1646C186.401 78.9731 186.209 78.7831 186.019 78.5946C185.82 78.4024 185.667 78.2086 185.443 78.1622C185.225 78.1029 184.983 78.1493 184.808 78.283C184.64 78.4244 184.455 78.6304 184.284 78.7968C183.937 79.1464 183.598 79.4869 183.271 79.816C182.635 80.4756 181.968 81.0814 181.489 81.6476C181.288 81.9584 181.362 82.3414 181.347 82.6933C181.346 83.0414 181.344 83.3728 181.343 83.6851C181.338 84.2901 181.334 84.8228 181.33 85.2849C181.324 85.6877 181.319 86.0252 181.315 86.3094C181.308 86.548 181.303 86.6765 181.297 86.6826C181.291 86.6886 181.284 86.5731 181.276 86.3451C181.267 86.0662 181.258 85.7341 181.245 85.3389C181.234 84.873 181.221 84.3357 181.207 83.7246C181.201 83.4047 181.194 83.0665 181.187 82.71C181.184 82.5292 181.181 82.3445 181.178 82.1545C181.176 81.9523 181.228 81.7441 181.334 81.5594C181.859 80.9157 182.479 80.3533 183.121 79.6716C183.446 79.3387 183.781 78.9959 184.125 78.6433C184.307 78.4654 184.453 78.2906 184.671 78.1029C184.899 77.9274 185.213 77.8643 185.5 77.9403C185.805 78.0079 186.002 78.2572 186.183 78.4282C186.374 78.6152 186.567 78.8044 186.761 78.9952C187.151 79.3774 187.549 79.7681 187.954 80.1648C188.359 80.5623 188.771 80.9674 189.188 81.3778C189.389 81.551 189.668 81.8512 189.655 82.2046C189.657 82.5026 189.66 82.8028 189.662 83.1045C189.671 84.3076 189.679 85.4818 189.687 86.6172L189.687 86.7403L189.564 86.7411C188.593 86.7464 187.651 86.7517 186.745 86.757L186.628 86.7578L186.627 86.6415C186.623 85.823 186.62 85.0341 186.617 84.2772C186.629 83.9428 186.369 83.6479 186.058 83.6046C185.739 83.5871 185.352 83.5977 185.039 83.6C184.741 83.6243 184.492 83.863 184.44 84.1381C184.413 84.417 184.434 84.7506 184.427 85.0372C184.426 85.6201 184.425 86.1612 184.424 86.6582V86.7304L184.354 86.7297C183.43 86.7206 182.672 86.7137 182.079 86.7076C181.854 86.7031 181.66 86.6985 181.488 86.6947C181.359 86.6909 181.293 86.6871 181.297 86.6826Z" fill="#263238"/>
<path d="M310.556 79.1342C310.534 79.1091 310.503 79.0947 310.471 79.0939L303.827 79.0582H301.877L301.303 79.0651L301.253 78.6843L301.152 77.9372C301.145 77.8817 301.098 77.8407 301.041 77.8407H301.013L299.196 77.8498C299.051 77.8536 298.955 77.8559 298.955 77.9699C298.955 78.0824 299.05 78.0862 299.195 78.0923L300.886 78.128L301.826 85.4103C301.834 85.4665 301.881 85.5076 301.937 85.5076L307.363 85.5342L309.401 85.5258C309.574 85.522 309.661 85.5205 309.661 85.4057C309.661 85.2925 309.575 85.2895 309.402 85.2834L302.124 85.1846L301.951 83.8941L309.6 83.999H309.602C309.656 83.999 309.702 83.9602 309.712 83.9078L310.277 80.8632L310.578 79.2262C310.585 79.1935 310.576 79.1601 310.556 79.1342ZM301.335 79.3014L310.214 79.4169L309.428 83.6767L303.976 83.6509L302.355 83.6524L301.919 83.6585L301.335 79.3014Z" fill="#263238"/>
<path d="M303.964 87.2047C303.947 87.1135 303.883 86.8809 303.657 86.6962C303.481 86.5488 303.152 86.4211 302.798 86.545C302.439 86.659 302.179 87.02 302.18 87.4007C302.172 87.8339 302.479 88.1645 302.782 88.2664C302.887 88.3051 302.991 88.3219 303.089 88.3219C303.321 88.3219 303.52 88.2314 303.644 88.1311C303.876 87.9487 303.943 87.7177 303.961 87.6265C303.972 87.5702 303.985 87.4836 303.973 87.4159C303.985 87.3475 303.973 87.2609 303.964 87.2047ZM302.89 87.9685C302.696 87.8985 302.501 87.6819 302.505 87.403C302.505 87.1256 302.703 86.9128 302.902 86.8452C302.973 86.8193 303.042 86.8087 303.108 86.8087C303.258 86.8087 303.39 86.8649 303.473 86.9295C303.625 87.042 303.685 87.1879 303.707 87.2655C303.723 87.3217 303.73 87.3658 303.736 87.3939C303.736 87.3992 303.738 87.4061 303.739 87.4137C303.738 87.4213 303.736 87.4281 303.736 87.4334C303.73 87.4615 303.723 87.5056 303.705 87.5619C303.682 87.6386 303.619 87.7838 303.464 87.8963C303.344 87.9844 303.122 88.0581 302.89 87.9685Z" fill="#263238"/>
<path d="M308.835 87.2434C308.818 87.1522 308.754 86.9204 308.528 86.735C308.352 86.5883 308.022 86.4606 307.669 86.583C307.311 86.6977 307.051 87.058 307.051 87.4387C307.043 87.8712 307.35 88.2025 307.653 88.3051C307.758 88.3431 307.862 88.3599 307.96 88.3599C308.192 88.3599 308.392 88.2694 308.515 88.1691C308.747 87.9875 308.814 87.7557 308.832 87.6645C308.843 87.6082 308.856 87.5208 308.844 87.4532C308.855 87.381 308.843 87.289 308.835 87.2434ZM307.761 88.0065C307.571 87.9381 307.372 87.7177 307.376 87.4418C307.376 87.1667 307.579 86.9501 307.773 86.8839C307.844 86.8581 307.913 86.8467 307.98 86.8467C308.129 86.8467 308.262 86.9037 308.344 86.9683C308.496 87.0808 308.556 87.2267 308.579 87.3042C308.594 87.3605 308.601 87.4045 308.607 87.4327C308.607 87.4372 308.609 87.4448 308.61 87.4524C308.609 87.46 308.607 87.4669 308.607 87.4722C308.601 87.5003 308.594 87.5436 308.576 87.5999C308.553 87.6774 308.49 87.8225 308.335 87.9343C308.215 88.0232 307.994 88.0961 307.761 88.0065Z" fill="#263238"/>
<path d="M207.117 252.355C207.117 253.432 206.336 254.082 205.05 254.081L203.692 254.08L203.691 255.677H203.156L203.159 250.62L205.052 250.621C206.338 250.621 207.117 251.271 207.117 252.355ZM206.583 252.354C206.584 251.546 206.049 251.083 205.037 251.082L203.694 251.081L203.692 253.61L205.036 253.61C206.047 253.611 206.582 253.149 206.583 252.354Z" fill="#263238"/>
<path d="M211.663 251.881L211.661 255.681H211.169L211.17 254.988C210.902 255.449 210.41 255.716 209.804 255.716C208.836 255.716 208.2 255.174 208.201 254.083L208.203 251.879H208.716L208.714 254.032C208.713 254.841 209.133 255.254 209.855 255.254C210.65 255.254 211.148 254.741 211.149 253.874L211.15 251.88L211.663 251.881Z" fill="#263238"/>
<path d="M215.016 251.853V252.351C214.973 252.351 214.93 252.344 214.893 252.344C214.098 252.344 213.614 252.849 213.613 253.745L213.613 255.682H213.1L213.102 251.882H213.594L213.593 252.625C213.831 252.12 214.315 251.853 215.016 251.853Z" fill="#263238"/>
<path d="M215.521 253.783C215.522 252.649 216.346 251.854 217.481 251.855C218.124 251.855 218.665 252.108 218.968 252.607L218.585 252.867C218.325 252.484 217.921 252.302 217.48 252.302C216.649 252.302 216.042 252.895 216.041 253.783C216.041 254.679 216.648 255.264 217.478 255.264C217.919 255.264 218.324 255.092 218.584 254.709L218.967 254.969C218.663 255.46 218.121 255.72 217.478 255.719C216.344 255.719 215.521 254.917 215.521 253.783Z" fill="#263238"/>
<path d="M223.411 253.484L223.41 255.687H222.897L222.899 253.534C222.899 252.732 222.481 252.32 221.758 252.319C220.942 252.318 220.429 252.824 220.428 253.691L220.427 255.685H219.914L219.917 250.324H220.43L220.429 252.55C220.711 252.109 221.21 251.857 221.853 251.857C222.776 251.858 223.412 252.392 223.411 253.484Z" fill="#263238"/>
<path d="M227.675 253.335L227.673 255.69H227.182V255.098C226.951 255.488 226.503 255.726 225.875 255.726C225.015 255.725 224.488 255.276 224.488 254.619C224.488 254.034 224.864 253.543 225.955 253.544L227.161 253.544V253.313C227.161 252.663 226.793 252.308 226.085 252.308C225.594 252.308 225.131 252.481 224.82 252.756L224.589 252.372C224.972 252.048 225.536 251.86 226.136 251.86C227.119 251.86 227.676 252.352 227.675 253.335ZM227.162 254.548V253.927L225.97 253.926C225.233 253.925 224.995 254.214 224.994 254.605C224.994 255.045 225.348 255.321 225.955 255.321C226.533 255.321 226.959 255.046 227.162 254.548Z" fill="#263238"/>
<path d="M228.543 255.256L228.774 254.852C229.077 255.09 229.59 255.278 230.125 255.279C230.848 255.279 231.144 255.034 231.144 254.658C231.145 253.667 228.681 254.447 228.681 252.944C228.681 252.323 229.216 251.86 230.185 251.861C230.676 251.861 231.211 251.999 231.528 252.216L231.304 252.628C230.972 252.396 230.574 252.303 230.185 252.303C229.498 252.302 229.194 252.569 229.194 252.93C229.194 253.956 231.658 253.185 231.657 254.645C231.657 255.301 231.078 255.728 230.089 255.728C229.46 255.726 228.853 255.523 228.543 255.256Z" fill="#263238"/>
<path d="M235.914 253.953L232.735 253.951C232.793 254.746 233.399 255.273 234.23 255.273C234.692 255.273 235.104 255.108 235.393 254.776L235.682 255.109C235.342 255.514 234.815 255.73 234.215 255.729C233.031 255.729 232.222 254.918 232.223 253.792C232.223 252.665 233.012 251.864 234.08 251.864C235.149 251.865 235.922 252.652 235.922 253.794C235.922 253.836 235.914 253.895 235.914 253.953ZM232.736 253.568L235.431 253.569C235.366 252.825 234.824 252.305 234.08 252.305C233.343 252.304 232.801 252.823 232.736 253.568Z" fill="#263238"/>
<path d="M244.441 251.898L243.001 255.697H242.517L241.319 252.582L240.118 255.696H239.634L238.205 251.895H238.696L239.886 255.125L241.109 251.897H241.55L242.761 255.127L243.97 251.898H244.441Z" fill="#263238"/>
<path d="M247.967 253.345L247.965 255.7H247.474V255.108C247.242 255.498 246.794 255.737 246.166 255.736C245.306 255.735 244.779 255.287 244.779 254.63C244.78 254.044 245.156 253.553 246.247 253.554L247.454 253.555V253.323C247.454 252.673 247.086 252.318 246.378 252.318C245.887 252.318 245.425 252.492 245.114 252.766L244.883 252.383C245.266 252.059 245.83 251.871 246.43 251.871C247.412 251.871 247.967 252.363 247.967 253.345ZM247.454 254.558V253.937L246.262 253.937C245.525 253.936 245.287 254.225 245.286 254.615C245.286 255.056 245.64 255.331 246.246 255.331C246.824 255.331 247.252 255.057 247.454 254.558Z" fill="#263238"/>
<path d="M248.834 255.267L249.066 254.863C249.368 255.102 249.882 255.289 250.416 255.29C251.138 255.291 251.435 255.045 251.435 254.669C251.435 253.679 248.972 254.459 248.972 252.955C248.973 252.335 249.507 251.872 250.476 251.872C250.967 251.872 251.502 252.01 251.819 252.227L251.595 252.639C251.263 252.407 250.865 252.314 250.476 252.314C249.789 252.313 249.485 252.581 249.485 252.942C249.485 253.968 251.949 253.196 251.948 254.656C251.948 255.313 251.37 255.739 250.38 255.739C249.751 255.737 249.145 255.534 248.834 255.267Z" fill="#263238"/>
<path d="M254.262 255.27L254.494 254.865C254.796 255.104 255.31 255.292 255.844 255.292C256.566 255.292 256.862 255.047 256.862 254.671C256.863 253.681 254.399 254.461 254.4 252.958C254.4 252.337 254.935 251.875 255.903 251.875C256.395 251.875 256.929 252.012 257.246 252.23L257.023 252.641C256.691 252.41 256.292 252.316 255.903 252.316C255.217 252.316 254.913 252.583 254.913 252.944C254.912 253.97 257.377 253.199 257.376 254.659C257.376 255.315 256.798 255.742 255.808 255.742C255.179 255.74 254.573 255.537 254.262 255.27Z" fill="#263238"/>
<path d="M261.749 251.907L261.747 255.707H261.256V255.014C260.988 255.476 260.496 255.743 259.89 255.743C258.922 255.742 258.286 255.2 258.287 254.109L258.288 251.906H258.801L258.8 254.059C258.799 254.867 259.219 255.28 259.941 255.28C260.736 255.28 261.235 254.768 261.235 253.901L261.236 251.907H261.749Z" fill="#263238"/>
<path d="M262.803 253.807C262.803 252.673 263.627 251.879 264.761 251.879C265.404 251.88 265.945 252.132 266.249 252.631L265.866 252.891C265.606 252.508 265.202 252.326 264.761 252.326C263.93 252.325 263.323 252.918 263.323 253.807C263.322 254.703 263.928 255.288 264.76 255.288C265.201 255.288 265.605 255.115 265.865 254.732L266.248 254.992C265.944 255.483 265.402 255.744 264.759 255.743C263.625 255.745 262.802 254.942 262.803 253.807Z" fill="#263238"/>
<path d="M266.807 253.81C266.807 252.676 267.631 251.881 268.765 251.881C269.408 251.882 269.949 252.135 270.252 252.633L269.869 252.894C269.61 252.511 269.205 252.329 268.764 252.329C267.933 252.328 267.326 252.921 267.326 253.81C267.325 254.706 267.931 255.291 268.763 255.291C269.204 255.291 269.608 255.118 269.869 254.735L270.252 254.995C269.948 255.486 269.406 255.747 268.764 255.746C267.63 255.747 266.806 254.944 266.807 253.81Z" fill="#263238"/>
<path d="M274.502 253.973L271.323 253.971C271.381 254.766 271.986 255.294 272.818 255.294C273.28 255.294 273.692 255.129 273.981 254.797L274.271 255.13C273.931 255.534 273.403 255.751 272.803 255.75C271.618 255.749 270.81 254.939 270.811 253.813C270.811 252.686 271.599 251.884 272.669 251.885C273.737 251.885 274.51 252.673 274.509 253.814C274.509 253.857 274.502 253.914 274.502 253.973ZM271.324 253.588L274.019 253.589C273.954 252.844 273.412 252.325 272.669 252.325C271.931 252.325 271.389 252.844 271.324 253.588Z" fill="#263238"/>
<path d="M275.029 255.281L275.261 254.877C275.564 255.115 276.077 255.303 276.612 255.304C277.334 255.304 277.63 255.058 277.63 254.683C277.631 253.693 275.167 254.472 275.168 252.969C275.168 252.348 275.703 251.886 276.671 251.886C277.162 251.886 277.696 252.024 278.014 252.241L277.79 252.653C277.458 252.421 277.06 252.328 276.671 252.328C275.985 252.328 275.681 252.594 275.681 252.955C275.68 253.981 278.145 253.21 278.144 254.67C278.144 255.327 277.565 255.753 276.575 255.753C275.947 255.751 275.34 255.548 275.029 255.281Z" fill="#263238"/>
<path d="M278.562 255.283L278.794 254.878C279.097 255.117 279.611 255.305 280.145 255.305C280.867 255.305 281.163 255.06 281.163 254.684C281.164 253.693 278.7 254.473 278.701 252.97C278.701 252.349 279.236 251.887 280.204 251.887C280.696 251.887 281.23 252.024 281.547 252.242L281.324 252.654C280.991 252.422 280.593 252.328 280.204 252.328C279.518 252.328 279.214 252.595 279.214 252.956C279.213 253.982 281.678 253.211 281.677 254.671C281.677 255.327 281.099 255.754 280.108 255.754C279.48 255.753 278.873 255.55 278.562 255.283Z" fill="#263238"/>
<path d="M283.21 251.47V251.919L284.38 251.92V252.353L283.224 252.352L283.223 255.719H282.71L282.711 252.352H282.031V251.919L282.711 251.92V251.45C282.711 250.771 283.117 250.323 283.86 250.323C284.142 250.323 284.431 250.403 284.618 250.562L284.445 250.945C284.301 250.822 284.098 250.757 283.881 250.756C283.442 250.754 283.21 251.001 283.21 251.47Z" fill="#263238"/>
<path d="M288.499 251.921L288.497 255.721H288.005L288.006 255.028C287.738 255.489 287.246 255.757 286.64 255.757C285.672 255.756 285.036 255.214 285.037 254.124L285.038 251.92H285.551L285.55 254.073C285.55 254.882 285.969 255.295 286.691 255.295C287.486 255.295 287.984 254.782 287.985 253.915L287.986 251.921H288.499Z" fill="#263238"/>
<path d="M289.941 250.361H290.454L290.451 255.722H289.938L289.941 250.361Z" fill="#263238"/>
<path d="M215.234 238.121H212.508V236.828H219.488V238.121H216.762V245.054H215.235V238.121H215.234Z" fill="#FB5607"/>
<path d="M226.678 241.458V245.054H225.209V241.646C225.209 240.529 224.656 239.989 223.716 239.989C222.67 239.989 221.965 240.623 221.965 241.881V245.054H220.496V236.334H221.965V239.507C222.447 238.99 223.187 238.708 224.057 238.708C225.561 238.708 226.678 239.567 226.678 241.458Z" fill="#FB5607"/>
<path d="M233.797 241.375V245.054H232.411V244.29C232.058 244.831 231.376 245.136 230.436 245.136C229.003 245.136 228.098 244.349 228.098 243.255C228.098 242.21 228.803 241.387 230.707 241.387H232.329V241.293C232.329 240.435 231.811 239.93 230.765 239.93C230.06 239.93 229.332 240.165 228.861 240.553L228.285 239.483C228.955 238.966 229.931 238.708 230.941 238.708C232.751 238.708 233.797 239.566 233.797 241.375ZM232.329 243.091V242.362H230.812C229.814 242.362 229.543 242.739 229.543 243.197C229.543 243.726 229.99 244.066 230.742 244.066C231.458 244.067 232.082 243.737 232.329 243.091Z" fill="#FB5607"/>
<path d="M241.858 241.458V245.054H240.389V241.646C240.389 240.529 239.836 239.989 238.896 239.989C237.85 239.989 237.145 240.623 237.145 241.881V245.054H235.676V238.778H237.074V239.589C237.556 239.014 238.32 238.708 239.236 238.708C240.741 238.708 241.858 239.566 241.858 241.458Z" fill="#FB5607"/>
<path d="M246.287 242.363L245.194 243.397V245.054H243.725V236.334H245.194V241.599L248.237 238.778H250L247.379 241.41L250.246 245.054H248.46L246.287 242.363Z" fill="#FB5607"/>
<path d="M260.316 238.779L257.378 245.56C256.802 246.982 256.003 247.417 254.958 247.417C254.335 247.417 253.676 247.205 253.277 246.84L253.865 245.759C254.148 246.03 254.547 246.194 254.946 246.194C255.463 246.194 255.769 245.947 256.051 245.324L256.156 245.077L253.418 238.779H254.946L256.92 243.42L258.906 238.779H260.316Z" fill="#FB5607"/>
<path d="M260.535 241.916C260.535 240.036 261.946 238.708 263.872 238.708C265.823 238.708 267.222 240.036 267.222 241.916C267.222 243.797 265.823 245.136 263.872 245.136C261.946 245.136 260.535 243.797 260.535 241.916ZM265.741 241.916C265.741 240.718 264.942 239.954 263.872 239.954C262.815 239.954 262.016 240.718 262.016 241.916C262.016 243.115 262.815 243.879 263.872 243.879C264.942 243.879 265.741 243.115 265.741 241.916Z" fill="#FB5607"/>
<path d="M274.707 238.779V245.054H273.308V244.255C272.838 244.831 272.097 245.137 271.287 245.137C269.677 245.137 268.584 244.255 268.584 242.363V238.779H270.053V242.163C270.053 243.304 270.594 243.844 271.522 243.844C272.544 243.844 273.238 243.209 273.238 241.952V238.779H274.707Z" fill="#FB5607"/>
<path d="M276.361 244.22C276.361 243.715 276.761 243.315 277.314 243.315C277.854 243.315 278.242 243.715 278.242 244.22C278.242 244.725 277.854 245.136 277.314 245.136C276.761 245.136 276.361 244.725 276.361 244.22ZM276.443 236.828H278.183L277.889 242.328H276.726L276.443 236.828Z" fill="#FB5607"/>
<path d="M266.282 113.697L264.063 145.133C263.701 150.265 259.432 154.243 254.286 154.243C248.621 154.243 244.134 149.454 244.506 143.801C244.703 140.809 244.881 138.359 244.881 138.359C244.881 138.359 237.27 137.175 237.177 129.566C237.123 125.171 237.88 115.199 238.53 107.558C238.969 102.393 243.293 98.4283 248.477 98.4283H253.073C260.99 98.8912 266.964 105.796 266.282 113.697Z" fill="#FFBE9D"/>
<path d="M244.882 138.359C244.882 138.359 249.678 138.64 254.789 135.43C254.789 135.43 252.339 140.966 244.746 140.28L244.882 138.359Z" fill="#EB996E"/>
<path d="M239.959 114.825C240.093 114.967 240.916 114.358 242.086 114.361C243.254 114.347 244.112 114.949 244.239 114.806C244.302 114.742 244.165 114.486 243.791 114.214C243.423 113.944 242.796 113.68 242.067 113.683C241.339 113.687 240.726 113.955 240.374 114.229C240.014 114.505 239.892 114.762 239.959 114.825Z" fill="#263238"/>
<path d="M250.382 118.07C250.361 118.644 250.831 119.134 251.43 119.166C252.027 119.198 252.529 118.761 252.55 118.187C252.57 117.613 252.101 117.122 251.503 117.09C250.904 117.057 250.402 117.496 250.382 118.07Z" fill="#263238"/>
<path d="M239.942 118.07C239.922 118.644 240.391 119.134 240.99 119.166C241.587 119.198 242.09 118.761 242.11 118.187C242.131 117.613 241.661 117.122 241.064 117.09C240.464 117.057 239.962 117.496 239.942 118.07Z" fill="#263238"/>
<path d="M251.252 114.983C251.386 115.125 252.211 114.516 253.38 114.519C254.548 114.505 255.406 115.106 255.533 114.964C255.595 114.901 255.459 114.644 255.083 114.372C254.716 114.101 254.089 113.838 253.36 113.841C252.632 113.845 252.019 114.113 251.666 114.388C251.308 114.663 251.185 114.92 251.252 114.983Z" fill="#263238"/>
<path d="M247.093 124.079C247.098 124.012 246.372 123.887 245.194 123.736C244.895 123.706 244.612 123.646 244.562 123.442C244.491 123.226 244.617 122.905 244.761 122.558C245.042 121.835 245.336 121.078 245.644 120.284C246.871 117.047 247.758 114.384 247.627 114.337C247.496 114.289 246.396 116.873 245.17 120.11C244.875 120.909 244.592 121.669 244.324 122.398C244.212 122.737 244.017 123.122 244.169 123.57C244.25 123.793 244.469 123.955 244.66 124.007C244.852 124.065 245.02 124.068 245.167 124.078C246.353 124.14 247.088 124.145 247.093 124.079Z" fill="#263238"/>
<path d="M250.534 124.888C250.344 124.876 250.341 126.146 249.255 127.047C248.17 127.951 246.817 127.808 246.807 127.985C246.79 128.065 247.109 128.232 247.68 128.248C248.24 128.267 249.058 128.087 249.723 127.536C250.385 126.984 250.67 126.247 250.714 125.726C250.762 125.195 250.62 124.88 250.534 124.888Z" fill="#263238"/>
<path d="M251.324 110.743C251.44 111.061 252.607 110.911 253.979 111.076C255.355 111.214 256.461 111.616 256.643 111.33C256.724 111.194 256.531 110.895 256.084 110.587C255.64 110.28 254.933 109.987 254.109 109.896C253.285 109.806 252.531 109.937 252.032 110.14C251.528 110.343 251.275 110.593 251.324 110.743Z" fill="#263238"/>
<path d="M239.778 111.295C239.984 111.56 240.789 111.285 241.758 111.272C242.726 111.225 243.547 111.451 243.736 111.173C243.819 111.038 243.689 110.772 243.331 110.521C242.977 110.27 242.387 110.065 241.721 110.085C241.055 110.106 240.478 110.347 240.142 110.619C239.8 110.892 239.687 111.165 239.778 111.295Z" fill="#263238"/>
<path d="M263.717 119.407C263.847 119.351 268.945 117.861 268.779 123.063C268.612 128.265 263.425 127.026 263.42 126.876C263.416 126.726 263.717 119.407 263.717 119.407Z" fill="#FFBE9D"/>
<path d="M265.072 124.956C265.095 124.94 265.161 125.023 265.311 125.097C265.458 125.17 265.714 125.226 265.988 125.133C266.545 124.949 267.035 124.091 267.09 123.155C267.119 122.682 267.034 122.228 266.878 121.849C266.732 121.463 266.494 121.19 266.218 121.132C265.945 121.059 265.744 121.218 265.676 121.363C265.601 121.506 265.631 121.611 265.604 121.619C265.588 121.631 265.495 121.529 265.544 121.315C265.569 121.212 265.633 121.092 265.759 120.996C265.887 120.898 266.073 120.852 266.264 120.879C266.665 120.92 267.013 121.301 267.185 121.716C267.378 122.134 267.485 122.645 267.453 123.176C267.386 124.223 266.818 125.187 266.059 125.38C265.69 125.464 265.389 125.344 265.234 125.216C265.077 125.082 265.053 124.964 265.072 124.956Z" fill="#EB996E"/>
<path d="M266.611 119.231C265.818 119.04 264.445 119.771 264.107 120.515C263.769 121.258 263.694 122.099 263.357 122.843C263.019 123.586 262.257 124.258 261.463 124.07C260.915 123.94 260.524 123.427 260.379 122.883C260.235 122.339 260.293 121.763 260.364 121.205C260.67 118.775 261.182 116.366 261.279 113.919C261.377 111.473 261.028 108.931 259.744 106.846C258.459 104.761 256.099 103.229 253.658 103.425C252.042 103.555 250.559 104.399 248.953 104.624C247.048 104.891 245.035 104.219 243.673 102.861C243.498 102.687 242.686 102.152 242.686 102.152C242.686 102.026 242.805 100.94 243.233 100.543C246.419 97.5962 252.161 96.7739 256.37 97.8333C260.579 98.8927 264.524 101.864 266.335 105.809C268.146 109.754 267.609 115.24 266.611 119.231Z" fill="#263238"/>
<path d="M237.697 106.186C238.378 107.766 240.117 108.685 241.83 108.859C243.543 109.033 245.252 108.59 246.908 108.12C248.564 107.65 253.005 106.914 254.726 106.966C254.984 106.974 255.293 106.969 255.43 106.751C255.611 106.462 255.321 106.113 255.053 105.903C252.785 104.126 247.302 103.037 244.424 102.916C241.546 102.795 238.524 104.033 236.965 106.455" fill="#263238"/>
<path d="M238.445 106.384C238.445 106.384 240.665 104.118 244.113 103.824C250.693 103.262 261.483 105.285 267.15 116.617C267.15 116.617 268.334 112.91 268.334 110.593C268.334 109.046 267.408 99.8306 257.926 96.932C257.926 96.932 243.641 91.4805 238.445 106.384Z" fill="#FB5607"/>
<g opacity="0.4">
<path d="M238.445 106.384C238.445 106.384 240.717 103.682 244.793 103.501C250.681 103.241 261.809 105.938 267.149 116.617C267.149 116.617 268.333 112.91 268.333 110.593C268.333 109.046 267.407 99.8306 257.926 96.932C257.926 96.932 243.641 91.4805 238.445 106.384Z" fill="black"/>
</g>
<path d="M266.262 115.003C263.42 110.224 259.168 106.938 254.579 104.071C249.99 101.205 242.403 98.3699 237.173 96.9814C235.603 96.5649 233.967 96.2001 232.366 96.4768C230.766 96.7534 229.199 97.8189 228.802 99.3936C228.305 101.365 231.803 104.407 233.448 105.604C235.092 106.8 238.445 108.555 238.445 108.555C238.445 108.555 238.399 104.884 244.253 104.144C252.234 103.137 266.505 115.207 266.262 115.003Z" fill="#FB5607"/>
<path d="M255.636 100.724C255.573 100.838 253.402 99.3564 250.309 98.623C247.223 97.8562 244.615 98.1769 244.611 98.0462C244.605 98.0006 245.245 97.8592 246.302 97.8151C247.356 97.7695 248.829 97.8584 250.403 98.2384C251.975 98.6222 253.324 99.2188 254.24 99.7432C255.159 100.267 255.663 100.686 255.636 100.724Z" fill="white"/>
<path d="M294.917 224.717C294.917 224.826 275.46 224.914 251.463 224.914C227.459 224.914 208.006 224.826 208.006 224.717C208.006 224.607 227.459 224.519 251.463 224.519C275.46 224.519 294.917 224.607 294.917 224.717Z" fill="#263238"/>
<path d="M214.286 162.531L203.099 167.591L185.737 153.439L180.447 161.815C180.447 161.815 190.333 173.253 193.996 177.138C197.659 181.023 200.101 183.097 202.987 182.726C205.874 182.355 222.361 174.585 222.361 174.585C222.361 174.585 218.48 163.021 214.286 162.531Z" fill="#FFBE9D"/>
<path d="M166.72 146.302C166.72 146.302 168.902 147.939 170.327 147.837C171.752 147.734 177.155 147.706 177.559 147.734C177.962 147.762 183.231 150.629 183.231 150.629L187.09 154.342L181.032 162.765C181.032 162.765 180.032 161.614 179.351 161.702C178.669 161.79 170.347 161.073 169.094 160.648C167.841 160.223 166.238 159.976 165.819 159.204C165.4 158.432 165.304 157.885 166.454 156.885C166.454 156.885 164.916 155.697 166.032 154.222C166.032 154.222 164.297 152.953 164.919 151.781C164.919 151.781 163.935 151.375 163.775 150.756C163.616 150.137 163.844 148.803 163.844 148.803L166.329 148.031C166.33 148.03 165.58 147.167 166.72 146.302Z" fill="#FFBE9D"/>
<path d="M165.745 148.211C165.745 148.181 165.862 148.159 166.068 148.1C166.276 148.053 166.565 147.923 166.995 147.911C167.43 147.928 167.9 148.081 168.344 148.438C168.785 148.781 169.096 149.481 168.861 150.145C168.756 150.477 168.475 150.751 168.186 150.871C167.897 151.001 167.623 151.045 167.376 151.102C166.92 151.197 166.476 151.289 166.039 151.38C165.276 151.526 164.798 151.59 164.785 151.537C164.773 151.484 165.228 151.324 165.975 151.108C166.405 150.99 166.842 150.871 167.29 150.748C167.79 150.623 168.339 150.507 168.487 150.015C168.655 149.531 168.453 149.011 168.104 148.713C167.764 148.407 167.317 148.23 166.983 148.192C166.633 148.166 166.315 148.249 166.093 148.253C165.869 148.266 165.745 148.236 165.745 148.211Z" fill="#EB996E"/>
<path d="M168.861 150.393C168.857 150.366 169.063 150.306 169.443 150.23C169.823 150.157 170.377 150.056 171.081 150.046C171.776 150.041 172.662 150.133 173.484 150.666C173.882 150.934 174.268 151.345 174.389 151.907C174.512 152.438 174.331 153.133 173.769 153.449C173.225 153.748 172.674 153.717 172.193 153.772C171.702 153.81 171.227 153.848 170.768 153.883C169.892 153.944 169.082 154 168.353 154.05C166.977 154.134 166.124 154.158 166.119 154.104C166.115 154.049 166.959 153.927 168.329 153.772C169.056 153.696 169.864 153.611 170.737 153.52C171.195 153.477 171.67 153.431 172.16 153.385C172.653 153.332 173.179 153.332 173.569 153.107C173.956 152.894 174.096 152.405 174.01 151.983C173.927 151.561 173.623 151.207 173.278 150.966C172.567 150.48 171.744 150.354 171.077 150.326C169.723 150.303 168.868 150.469 168.861 150.393Z" fill="#EB996E"/>
<path d="M173.998 153.439C174.008 153.42 174.156 153.461 174.316 153.674C174.469 153.881 174.603 154.282 174.459 154.749C174.315 155.218 173.861 155.639 173.286 155.845C172.706 156.062 172.045 156.063 171.399 156.095C168.783 156.217 166.706 156.731 166.678 156.616C166.644 156.521 168.711 155.826 171.379 155.7C172.044 155.669 172.66 155.672 173.165 155.501C173.67 155.339 174.053 155.009 174.196 154.654C174.341 154.295 174.277 153.949 174.184 153.753C174.087 153.549 173.978 153.465 173.998 153.439Z" fill="#EB996E"/>
<path d="M182.62 154.902C182.636 154.946 182.233 155.154 181.523 155.326C180.816 155.499 179.795 155.601 178.683 155.454C177.573 155.304 176.614 154.936 175.978 154.583C175.338 154.231 175.003 153.924 175.031 153.886C175.091 153.776 176.59 154.791 178.737 155.062C180.877 155.365 182.591 154.779 182.62 154.902Z" fill="#EB996E"/>
<path d="M173.958 151.021C174.009 150.919 174.549 151.11 175.215 151.028C175.884 150.963 176.368 150.658 176.44 150.746C176.522 150.814 176.061 151.336 175.259 151.422C174.457 151.514 173.894 151.105 173.958 151.021Z" fill="#EB996E"/>
<path d="M173.361 159.323C173.26 159.312 173.498 158.168 174.514 157.231C175.519 156.283 176.677 156.124 176.68 156.226C176.714 156.34 175.699 156.65 174.783 157.521C173.852 158.373 173.472 159.365 173.361 159.323Z" fill="#EB996E"/>
<path d="M155.333 181.183H188.344L194.468 229.461H148.887L155.333 181.183Z" fill="#FB5607"/>
<path d="M188.344 181.183H192.163L203.425 229.461H194.469L188.344 181.183Z" fill="#FB5607"/>
<path opacity="0.3" d="M188.344 181.183H192.163L203.425 229.461H194.469L188.344 181.183Z" fill="black"/>
<path d="M169.908 156.081C169.908 156.058 170.003 156.026 170.174 156.068C170.343 156.106 170.58 156.246 170.75 156.517C170.925 156.775 171.013 157.207 170.856 157.609C170.711 158.012 170.38 158.366 169.961 158.585C169.366 158.889 168.758 158.907 168.284 158.914L168.429 158.817C167.997 159.648 167.48 160.014 167.441 159.967C167.382 159.913 167.788 159.472 168.124 158.676L168.161 158.588L168.27 158.579C168.731 158.537 169.287 158.488 169.778 158.235C170.122 158.056 170.392 157.775 170.516 157.478C170.649 157.178 170.614 156.881 170.506 156.653C170.285 156.181 169.892 156.139 169.908 156.081Z" fill="#EB996E"/>
<path d="M163.719 183.29C163.692 183.286 163.719 182.938 163.791 182.31C163.862 181.683 163.99 180.778 164.173 179.665C164.533 177.437 165.137 174.38 165.849 171.015C166.561 167.65 167.208 164.606 167.637 162.395C167.839 161.35 168.008 160.473 168.143 159.776C168.261 159.158 168.339 158.816 168.367 158.821C168.394 158.825 168.367 159.173 168.295 159.8C168.225 160.427 168.096 161.331 167.913 162.445C167.553 164.673 166.949 167.731 166.237 171.096C165.524 174.461 164.878 177.504 164.449 179.715C164.247 180.76 164.078 181.638 163.944 182.334C163.825 182.952 163.747 183.294 163.719 183.29Z" fill="#FB5607"/>
<path d="M181.146 183.775C181.12 183.782 180.991 183.386 180.782 182.665C180.561 181.873 180.274 180.842 179.928 179.601C179.224 177.009 178.278 173.421 177.257 169.453C176.235 165.484 175.332 161.885 174.697 159.275C174.401 158.022 174.154 156.981 173.965 156.181C173.801 155.448 173.723 155.039 173.749 155.033C173.776 155.026 173.904 155.422 174.115 156.144C174.335 156.936 174.622 157.967 174.968 159.208C175.672 161.799 176.618 165.387 177.64 169.355C178.66 173.323 179.564 176.92 180.199 179.53C180.495 180.783 180.741 181.825 180.93 182.626C181.095 183.359 181.173 183.768 181.146 183.775Z" fill="#FB5607"/>
<path d="M203.424 229.462C203.39 229.504 202.785 229.076 201.836 228.35C200.886 227.625 199.591 226.602 198.177 225.452C197.932 225.252 197.691 225.056 197.462 224.868L197.749 224.823C196.861 226.162 196.061 227.335 195.473 228.166C194.885 228.998 194.509 229.488 194.467 229.461C194.425 229.433 194.725 228.894 195.256 228.024C195.785 227.154 196.545 225.954 197.422 224.608L197.539 224.427L197.709 224.563C197.939 224.75 198.181 224.945 198.426 225.144C199.841 226.293 201.107 227.351 202.011 228.132C202.916 228.915 203.459 229.42 203.424 229.462Z" fill="#263238"/>
<path d="M190.349 181.183C190.457 181.165 192.165 190.897 194.163 202.917C196.162 214.941 197.694 224.699 197.587 224.718C197.479 224.735 195.772 215.006 193.773 202.982C191.774 190.961 190.242 181.201 190.349 181.183Z" fill="#263238"/>
<path d="M190.27 194.887C190.27 194.887 190.029 195.163 189.5 195.618C188.974 196.072 188.155 196.706 186.983 197.331C185.816 197.954 184.291 198.58 182.426 198.897C180.574 199.198 178.355 199.267 176.067 198.526C174.937 198.148 173.793 197.536 172.875 196.582C171.965 195.642 171.254 194.371 171.138 192.931C171.013 191.498 171.601 189.957 172.784 188.96C173.368 188.459 174.128 188.13 174.924 188.068C175.721 187.999 176.53 188.193 177.252 188.552C177.973 188.92 178.617 189.451 179.121 190.106C179.624 190.767 179.975 191.537 180.185 192.348C180.613 193.975 180.512 195.714 180.168 197.389C179.478 200.752 177.68 204.018 174.984 206.476C173.633 207.697 172.111 208.708 170.461 209.381C168.819 210.057 167.045 210.402 165.313 210.259C163.584 210.116 161.925 209.482 160.614 208.44C159.295 207.415 158.356 205.923 158.101 204.333C157.833 202.754 158.129 201.108 158.988 199.836C159.819 198.57 161.261 197.674 162.748 197.805C163.486 197.868 164.165 198.263 164.609 198.808C165.063 199.35 165.322 200.002 165.453 200.65C165.72 201.962 165.455 203.252 165.019 204.361C164.095 206.598 162.406 208.131 160.785 209.078C159.139 210.021 157.548 210.455 156.254 210.716C154.954 210.971 153.928 211.054 153.234 211.101C152.887 211.121 152.622 211.133 152.444 211.136C152.266 211.139 152.174 211.138 152.174 211.131C152.174 211.124 152.264 211.112 152.441 211.095C152.639 211.077 152.899 211.053 153.228 211.022C153.917 210.95 154.937 210.841 156.223 210.566C157.501 210.284 159.069 209.831 160.674 208.888C162.251 207.944 163.885 206.424 164.759 204.258C165.172 203.186 165.415 201.942 165.155 200.713C165.028 200.103 164.78 199.498 164.367 199.014C163.963 198.526 163.369 198.187 162.717 198.133C161.393 198.02 160.047 198.841 159.278 200.03C158.48 201.221 158.202 202.78 158.461 204.271C158.708 205.771 159.59 207.168 160.849 208.144C162.099 209.133 163.692 209.74 165.345 209.874C168.695 210.136 172.109 208.563 174.718 206.185C177.351 203.786 179.111 200.594 179.789 197.311C180.129 195.675 180.225 193.991 179.821 192.444C179.624 191.675 179.291 190.945 178.828 190.333C178.36 189.72 177.758 189.222 177.089 188.878C176.419 188.543 175.675 188.364 174.953 188.425C174.232 188.479 173.547 188.77 173.008 189.228C171.916 190.138 171.355 191.576 171.467 192.905C171.568 194.251 172.233 195.467 173.098 196.371C173.968 197.287 175.063 197.886 176.16 198.262C178.378 199 180.567 198.957 182.392 198.679C184.234 198.387 185.748 197.792 186.913 197.196C188.084 196.598 188.912 195.99 189.453 195.557C189.73 195.349 189.922 195.166 190.06 195.054C190.193 194.938 190.265 194.881 190.27 194.887Z" fill="white"/>
<path d="M236.991 147.745H231.04C229.121 148.417 213.67 161.565 213.67 161.565L222.403 175.288L233.727 168.666L236.991 147.745Z" fill="#455A64"/>
<path d="M231.04 147.745L244.188 142.755C244.188 142.755 246.107 146.786 251.961 145.922C257.814 145.057 264.725 140.931 264.725 140.931C264.725 140.931 274.802 146.69 277.777 149.088C280.752 151.488 275.377 201.775 275.377 201.775L274.034 216.842C274.034 216.842 275.089 217.61 275.089 220.202C275.089 222.793 275.185 224.52 275.185 224.52H223.099C223.099 224.52 221.826 218.474 222.786 216.075C223.746 213.676 225.329 211.276 225.329 211.276L226.144 188.051L226.432 167.322L231.04 147.745Z" fill="#455A64"/>
<path d="M277.777 149.089C277.777 149.089 281.979 150.275 283.226 156.508C284.472 162.742 284.246 186.544 284.246 186.544L260.775 181.461C260.775 181.461 263.958 171.469 263.958 170.79C263.958 170.11 270.418 154.016 270.646 153.675C270.871 153.335 277.777 149.089 277.777 149.089Z" fill="#455A64"/>
<path d="M226.037 157.534C226.146 157.533 226.296 161.694 226.372 166.826C226.448 171.961 226.42 176.123 226.312 176.125C226.202 176.126 226.053 171.967 225.977 166.831C225.901 161.699 225.928 157.536 226.037 157.534Z" fill="#263238"/>
<path d="M266.896 159.765C266.922 159.77 266.889 160.064 266.807 160.592C266.726 161.119 266.589 161.879 266.405 162.815C266.038 164.687 265.465 167.261 264.725 170.077C263.983 172.893 263.216 175.416 262.614 177.226C262.314 178.131 262.06 178.86 261.87 179.359C261.683 179.859 261.566 180.131 261.541 180.122C261.515 180.114 261.582 179.825 261.724 179.311C261.895 178.716 262.103 177.993 262.347 177.143C262.879 175.315 263.602 172.785 264.342 169.976C265.08 167.167 265.695 164.609 266.131 162.756C266.336 161.895 266.512 161.163 266.655 160.561C266.785 160.044 266.869 159.76 266.896 159.765Z" fill="#263238"/>
<path d="M264.692 159.261C264.801 159.267 264.776 161.412 264.637 164.051C264.498 166.692 264.297 168.826 264.187 168.821C264.078 168.815 264.103 166.671 264.242 164.031C264.381 161.391 264.583 159.255 264.692 159.261Z" fill="#263238"/>
<path d="M258.84 167.122C258.84 167.231 256.584 167.319 253.802 167.319C251.019 167.319 248.764 167.23 248.764 167.122C248.764 167.013 251.019 166.924 253.802 166.924C256.584 166.924 258.84 167.012 258.84 167.122Z" fill="white"/>
<path d="M231.944 201.291L257.913 198.169L262.008 181.727L276.537 184.874C276.537 184.874 270.79 207.697 264.868 209.904C258.946 212.11 229.648 208.381 229.648 208.381L231.944 201.291Z" fill="#FFBE9D"/>
<path d="M230.885 201.104C230.885 201.104 227.765 199.819 226.56 199.641C225.354 199.462 223.935 199.726 223.578 200.306L216.569 204.368C216.569 204.368 211.39 203.877 210.899 205.037C210.899 205.037 207.596 204.1 207.06 204.77C207.06 204.77 205.408 205.306 205.676 206.064C205.943 206.823 211.926 208.921 211.926 208.921L220.14 209.769C220.14 209.769 223.265 208.073 224.56 207.939C225.854 207.805 228.433 208.283 228.28 208.233C228.174 208.199 233.068 208.783 233.068 208.783C233.068 208.783 234.068 207.716 234.47 204.769C234.872 201.823 234.47 201.198 234.47 201.198L230.885 201.104Z" fill="#FFBE9D"/>
<path d="M227.418 204.852C227.42 204.872 227.195 204.884 226.908 204.653C226.612 204.445 226.365 203.958 225.912 203.647C225.681 203.502 225.369 203.441 225.015 203.376C224.669 203.314 224.224 203.206 223.893 202.883C223.564 202.575 223.346 202.134 223.29 201.653C223.229 201.181 223.357 200.623 223.727 200.24C224.463 199.498 225.513 199.342 226.338 199.521C227.175 199.702 227.82 200.132 228.298 200.525C228.777 200.925 229.109 201.298 229.333 201.557C229.556 201.819 229.667 201.973 229.648 201.992C229.598 202.044 229.076 201.479 228.125 200.746C227.646 200.395 227.022 200.022 226.267 199.88C225.535 199.731 224.609 199.908 224.017 200.51C223.444 201.11 223.636 202.138 224.145 202.621C224.644 203.14 225.502 203 226.066 203.415C226.599 203.842 226.765 204.321 227.011 204.54C227.235 204.778 227.428 204.818 227.418 204.852Z" fill="#EB996E"/>
<path d="M223.084 203.495C223.08 203.56 222.689 203.538 222.135 203.789C221.568 204.004 220.894 204.58 219.891 204.849C218.854 205.065 217.992 204.732 217.39 204.654C216.783 204.54 216.401 204.566 216.391 204.507C216.378 204.459 216.776 204.329 217.423 204.376C218.061 204.394 218.931 204.656 219.801 204.463C220.667 204.239 221.402 203.696 222.038 203.525C222.675 203.323 223.099 203.453 223.084 203.495Z" fill="#EB996E"/>
<path d="M223.255 206.763C223.267 206.785 223.103 206.902 222.782 207.073C222.46 207.242 221.972 207.447 221.343 207.622C220.088 207.989 218.263 208.114 216.297 207.914C215.319 207.791 214.394 207.643 213.55 207.517C212.713 207.371 211.941 207.325 211.31 207.016C211.005 206.865 210.753 206.63 210.64 206.37C210.523 206.116 210.503 205.867 210.54 205.676C210.625 205.277 210.877 205.186 210.874 205.206C210.903 205.231 210.715 205.36 210.693 205.696C210.67 206.022 210.857 206.538 211.43 206.764C211.978 207.003 212.767 207.034 213.602 207.156C214.458 207.27 215.373 207.392 216.334 207.52C218.271 207.716 220.039 207.637 221.275 207.349C222.518 207.08 223.225 206.7 223.255 206.763Z" fill="#EB996E"/>
<path d="M262.224 204.812C262.106 204.846 261.679 203.232 260.537 201.566C259.414 199.887 258.074 198.891 258.15 198.795C258.191 198.707 259.692 199.594 260.865 201.344C262.053 203.083 262.32 204.806 262.224 204.812Z" fill="#EB996E"/>
<path d="M68.5597 294.559L67.5664 345.295L79.8533 346.613L88.2954 294.955L81.6629 286.613L68.5597 294.559Z" fill="#FFBE9D"/>
<path d="M81.3604 344.106L81.3536 344.934C81.3536 344.934 95.333 350.737 95.4523 353.403L67.5664 352.939V343.648C71.6803 345.637 76.5496 345.944 81.3604 344.106Z" fill="#FB5607"/>
<path d="M67.5664 352.94L67.6948 350.709L94.3746 351.971C94.3746 351.971 95.6074 352.531 95.4523 353.404L67.5664 352.94Z" fill="#263238"/>
<path d="M63.4811 139.55C63.2812 137.213 61.8782 134.848 59.6423 134.139L57.0697 135.614C54.3595 136.862 52.9247 140.344 53.9682 143.138C50.6074 145.051 49.4522 149.997 51.619 153.201C49.95 153.974 49.2356 156.014 49.2645 157.852C49.2934 159.691 49.8839 161.477 50.0481 163.308C50.175 164.722 50.0481 166.161 50.308 167.557C50.5679 168.953 51.3256 170.375 52.6435 170.906C54.0282 171.464 55.682 170.851 56.6882 169.748C57.6937 168.646 58.1558 167.151 58.3959 165.678C59.089 161.432 58.1877 156.996 59.257 152.829C59.8399 150.558 60.9822 148.477 61.9375 146.335C62.8944 144.194 63.681 141.887 63.4811 139.55Z" fill="#263238"/>
<path d="M62.2483 139.248C59.3345 139.228 56.4921 137.525 55.1005 134.965C53.7097 132.404 53.8268 129.092 55.3954 126.637C55.6325 126.266 55.9206 125.898 56.3302 125.735C57.1951 125.392 58.0927 126.095 58.7592 126.744C60.362 128.306 61.9649 129.867 63.5677 131.429" fill="#263238"/>
<path d="M62.381 133.241C58.7695 131.534 55.9316 127.485 54.8783 123.632C53.8249 119.778 55.0379 111.972 56.0783 108.115C57.3445 103.422 59.2954 109.461 60.8921 109.957C61.8429 110.252 62.5094 111.149 62.7952 112.103C63.0809 113.057 63.049 114.073 63.0141 115.068C62.8035 121.126 62.5923 127.184 62.381 133.241Z" fill="#263238"/>
<path d="M71.6143 94.9521C77.654 91.7069 82.4983 93.6244 84.8543 95.4666C87.2103 97.3089 88.6315 100.116 89.4956 102.979C90.3597 105.843 90.7382 108.828 91.4404 111.736C92.0302 114.179 92.0241 114.335 92.3699 116.825C92.7165 119.315 92.6017 123.757 91.3279 125.924C90.1036 128.007 88.785 129.863 86.7641 131.187C86.0368 131.664 85.1773 132.162 84.3481 131.899C83.7462 131.708 83.3388 131.162 82.9763 130.646C76.4274 121.294 71.2655 110.974 67.7109 100.125" fill="#263238"/>
<path d="M64.892 101.928L75.3512 97.7133L78.0902 98.0188C84.25 98.0112 88.5303 104.784 88.5942 109.773C88.6656 115.315 88.5334 122.084 87.6723 126.174C85.9402 134.397 79.5342 135.133 79.5342 135.133C79.5342 135.12 79.6094 137.379 79.6748 140.137C79.7926 145.094 75.7517 149.148 70.7942 149.047C66.0685 148.951 62.2837 145.102 62.2662 140.376L62.1348 104.755C62.1811 103.239 63.3789 102.012 64.892 101.928Z" fill="#FFBE9D"/>
<path d="M85.9262 115.26C85.9178 115.823 85.4345 116.279 84.847 116.282C84.261 116.284 83.7906 115.831 83.7989 115.269C83.8073 114.706 84.2907 114.249 84.8766 114.247C85.4649 114.244 85.9345 114.699 85.9262 115.26Z" fill="#263238"/>
<path d="M86.4099 112.602C86.2709 112.735 85.4957 112.099 84.3511 112.044C83.2088 111.973 82.3401 112.52 82.2231 112.373C82.1653 112.308 82.312 112.064 82.6905 111.817C83.0637 111.57 83.6907 111.343 84.4028 111.381C85.1149 111.421 85.7016 111.713 86.0322 111.999C86.3712 112.287 86.4776 112.543 86.4099 112.602Z" fill="#263238"/>
<path d="M79.423 121.556C79.4207 121.491 80.1381 121.404 81.2979 121.313C81.5912 121.298 81.8709 121.253 81.9302 121.057C82.0092 120.849 81.9036 120.528 81.779 120.181C81.5396 119.461 81.2895 118.705 81.0266 117.913C79.9861 114.686 79.2482 112.038 79.3781 111.998C79.5088 111.957 80.4581 114.54 81.4993 117.767C81.7486 118.562 81.988 119.32 82.2144 120.046C82.3087 120.383 82.4797 120.769 82.3087 121.2C82.219 121.415 81.9971 121.562 81.8071 121.603C81.6171 121.651 81.4529 121.646 81.3078 121.647C80.1442 121.652 79.4245 121.621 79.423 121.556Z" fill="#263238"/>
<path d="M79.5344 135.133C79.5344 135.133 73.94 135.212 68.582 131.615C68.582 131.615 71.2512 137.508 79.5868 137.149L79.5344 135.133Z" fill="#EB996E"/>
<path d="M78.6919 124.031C78.2587 123.359 77.5914 123.054 76.8489 123.057C76.3336 123.059 75.8145 123.274 75.5044 123.701C75.1951 124.128 75.1343 124.778 75.4231 125.252C75.7484 125.786 76.4195 125.978 76.9857 125.864C77.5519 125.752 78.0367 125.396 78.4973 125.039C78.6242 124.94 78.7549 124.837 78.8332 124.69C78.9123 124.544 78.7922 124.171 78.6919 124.031Z" fill="#EB996E"/>
<path d="M76.0161 122.178C76.2023 122.177 76.143 123.419 77.1614 124.354C78.1775 125.291 79.5083 125.218 79.5098 125.392C79.5235 125.471 79.2028 125.618 78.6434 125.605C78.0947 125.597 77.3028 125.38 76.6796 124.809C76.0579 124.236 75.8155 123.501 75.7987 122.989C75.7782 122.468 75.9317 122.167 76.0161 122.178Z" fill="#263238"/>
<path d="M86.2441 109.404C86.0298 109.654 85.2553 109.345 84.3084 109.284C83.3637 109.191 82.5497 109.371 82.3787 109.09C82.3043 108.954 82.4441 108.701 82.8066 108.472C83.1646 108.244 83.7521 108.073 84.4026 108.125C85.0524 108.178 85.6049 108.442 85.9211 108.725C86.2426 109.009 86.3391 109.282 86.2441 109.404Z" fill="#263238"/>
<path d="M73.2843 115.194C73.2577 115.756 73.7107 116.242 74.2974 116.281C74.8826 116.32 75.3796 115.897 75.407 115.335C75.4336 114.774 74.9806 114.287 74.3954 114.248C73.8087 114.208 73.3117 114.632 73.2843 115.194Z" fill="#263238"/>
<path d="M71.1431 112.468C71.2731 112.608 72.0871 112.022 73.2324 112.039C74.3769 112.04 75.2099 112.64 75.3353 112.501C75.3969 112.44 75.2654 112.187 74.9036 111.917C74.5464 111.647 73.9354 111.381 73.2217 111.375C72.5081 111.37 71.9047 111.625 71.5566 111.889C71.2017 112.155 71.0793 112.406 71.1431 112.468Z" fill="#263238"/>
<path d="M71.6435 108.837C71.8418 109.1 72.6337 108.84 73.583 108.84C74.5315 108.805 75.3332 109.036 75.521 108.767C75.6038 108.635 75.4807 108.374 75.1326 108.123C74.7899 107.873 74.2138 107.665 73.5617 107.677C72.9096 107.689 72.3419 107.918 72.0083 108.18C71.6701 108.443 71.5561 108.709 71.6435 108.837Z" fill="#263238"/>
<path d="M74.1449 96.8294C71.4963 95.7623 67.4455 96.1226 65.1716 97.8501C62.8977 99.5775 61.4772 102.279 60.9589 105.087C60.4406 107.895 61.136 112.055 61.877 114.813C66.1642 109.292 70.5767 102.921 74.7142 97.2854L74.1449 96.8294Z" fill="#263238"/>
<path d="M76.1712 94.3206C90.7001 92.2732 89.358 114.246 89.358 114.246C87.9064 106.15 76.6371 97.679 76.6371 97.679L74.3457 97.2922L76.1712 94.3206Z" fill="#263238"/>
<path d="M63.0368 118.759C63.0665 118.142 62.4258 116.651 61.8208 116.525C60.2058 116.19 57.2646 116.173 57.0305 120.306C56.7098 125.956 62.4486 125.112 62.4676 124.95C62.482 124.825 62.935 120.891 63.0368 118.759Z" fill="#FFBE9D"/>
<path d="M61.6148 122.713C61.5912 122.693 61.5122 122.776 61.3419 122.843C61.1755 122.907 60.8935 122.943 60.6055 122.816C60.021 122.563 59.5726 121.587 59.603 120.567C59.6175 120.052 59.7528 119.568 59.9587 119.173C60.1548 118.77 60.4383 118.496 60.7423 118.46C61.0448 118.408 61.2477 118.6 61.3077 118.763C61.3746 118.926 61.332 119.036 61.3617 119.047C61.3761 119.062 61.4878 118.96 61.4559 118.724C61.4392 118.61 61.3807 118.473 61.2538 118.357C61.1246 118.239 60.9285 118.172 60.718 118.182C60.2802 118.188 59.866 118.566 59.6403 119C59.391 119.434 59.2261 119.977 59.2101 120.555C59.1812 121.696 59.7041 122.794 60.5074 123.077C60.8988 123.203 61.2378 123.102 61.4164 122.978C61.5965 122.849 61.6338 122.724 61.6148 122.713Z" fill="#EB996E"/>
<path d="M56.3924 105.244C57.8364 101.37 60.7578 98.1708 64.1649 95.8292C65.9919 94.5729 68.0265 93.5203 70.2274 93.2574C72.4291 92.9936 74.8239 93.6282 76.2877 95.2934L76.6965 95.7106C74.1969 101.249 72.4375 105.935 69.2212 111.09C68.0394 112.985 67.5302 119.435 67.2452 121.649C66.2724 129.211 62.1342 132.447 62.1342 132.447C53.1829 132.453 54.9484 109.118 56.3924 105.244Z" fill="#263238"/>
<path d="M60.7692 131.558C60.7548 131.602 60.3117 131.515 59.6566 131.203C59.003 130.894 58.1541 130.327 57.4032 129.506C56.6546 128.681 56.1689 127.783 55.9219 127.104C55.6719 126.423 55.6263 125.974 55.6719 125.963C55.7889 125.92 56.2373 127.665 57.695 129.239C59.1269 130.836 60.8232 131.445 60.7692 131.558Z" fill="#455A64"/>
<path d="M59.6954 138.914C59.6962 139.015 58.4961 138.921 57.3554 138.055C56.2055 137.2 55.7814 136.074 55.8787 136.046C55.982 135.988 56.5285 136.951 57.5932 137.738C58.6451 138.542 59.7228 138.798 59.6954 138.914Z" fill="#455A64"/>
<path d="M55.9254 145.853C55.8365 145.917 55.3189 145.346 54.7694 144.579C54.22 143.812 53.846 143.138 53.935 143.075C54.0239 143.011 54.5414 143.582 55.0909 144.348C55.6404 145.116 56.0143 145.79 55.9254 145.853Z" fill="#455A64"/>
<path d="M53.0134 154.408C52.9313 154.48 52.5315 154.158 52.1211 153.69C51.7107 153.221 51.444 152.783 51.5268 152.711C51.6089 152.638 52.0086 152.96 52.419 153.429C52.8294 153.897 53.0954 154.336 53.0134 154.408Z" fill="#455A64"/>
<path d="M54.7366 118.036C54.7252 118.011 55.1067 117.789 55.8059 117.41C56.1578 117.226 56.5849 116.993 57.0637 116.694C57.5448 116.399 58.1079 116.089 58.6893 115.681C59.8833 114.914 61.2399 113.902 62.6717 112.694C64.0853 111.463 65.5628 110.022 66.9733 108.382C68.3687 106.728 69.5551 105.038 70.5446 103.447C71.5098 101.84 72.2926 100.34 72.8595 99.0387C73.1696 98.3996 73.3855 97.7939 73.5998 97.2725C73.8194 96.7519 73.9805 96.2936 74.1067 95.9167C74.3697 95.1665 74.5277 94.7539 74.5543 94.7615C74.5809 94.7691 74.4722 95.1962 74.2534 95.9645C74.1485 96.3506 74.0087 96.8188 73.8073 97.35C73.6112 97.8828 73.4121 98.4991 73.1164 99.1505C72.5783 100.476 71.8145 102.004 70.8569 103.636C69.875 105.253 68.6841 106.968 67.2743 108.639C65.8493 110.297 64.3468 111.745 62.9073 112.972C61.4481 114.177 60.0627 115.174 58.8398 115.918C58.244 116.314 57.6664 116.608 57.1724 116.887C56.6799 117.17 56.2406 117.383 55.8758 117.548C55.1523 117.886 54.748 118.062 54.7366 118.036Z" fill="#455A64"/>
<path d="M68.7147 111.266C68.7345 111.285 68.5863 111.475 68.2997 111.803C68.0163 112.134 67.577 112.589 67.0108 113.125C65.8807 114.2 64.1904 115.563 62.1361 116.779C60.0788 117.992 58.0694 118.814 56.5821 119.285C55.8388 119.522 55.2293 119.687 54.8021 119.775C54.3758 119.867 54.1379 119.906 54.1311 119.879C54.1151 119.817 55.0408 119.557 56.4909 119.021C57.9409 118.486 59.904 117.634 61.9347 116.438C63.9617 115.237 65.6549 113.929 66.8231 112.917C67.9935 111.906 68.6683 111.221 68.7147 111.266Z" fill="#455A64"/>
<path d="M89.8045 118.482C89.7726 118.473 89.8805 118.036 90.0363 117.244C90.1944 116.452 90.3639 115.292 90.411 113.853C90.5235 110.997 89.939 106.905 87.7092 103.102C85.4725 99.3016 82.1817 96.7997 79.6319 95.5077C78.3513 94.848 77.2561 94.4316 76.487 94.1846C75.7187 93.9353 75.2855 93.8175 75.2931 93.7848C75.2961 93.7711 75.4078 93.7863 75.6183 93.8274C75.8266 93.8737 76.1412 93.9216 76.5319 94.0371C77.32 94.2408 78.4433 94.6208 79.7581 95.2577C82.3755 96.5026 85.7651 99.0174 88.0504 102.902C90.3297 106.788 90.8776 110.972 90.6907 113.864C90.6071 115.322 90.3927 116.489 90.1868 117.277C90.0979 117.675 89.9869 117.973 89.9261 118.178C89.8585 118.381 89.8174 118.486 89.8045 118.482Z" fill="#455A64"/>
<path d="M157.154 169.858C156.77 170.257 156.673 171.127 156.901 171.623C157.128 172.118 157.572 172.478 158.03 172.773C158.792 171.991 159.426 171.084 159.899 170.099" fill="#EB996E"/>
<path d="M153.852 168.897C153.381 169.188 153.071 170.007 153.168 170.543C153.266 171.08 153.607 171.538 153.977 171.938C154.909 171.369 155.748 170.647 156.451 169.811" fill="#EB996E"/>
<path d="M78.9023 143.835C78.9023 143.835 103.901 163.507 108.405 164.15C112.909 164.794 133.999 162.24 142.649 161.969L143.876 169.228C143.876 169.228 119.985 177.34 111.3 177.661C102.614 177.983 97.6249 175.638 97.6249 175.638L81.3822 159.003L78.9023 143.835Z" fill="#FFBE9D"/>
<path d="M142.1 162.044C142.1 162.044 153.26 160.454 154.995 161.321C156.73 162.189 161.716 166.4 161.716 166.4C161.716 166.4 163.375 171.075 162.33 171.296C161.285 171.515 160.201 169.78 160.201 169.78L158.791 167.177L152.556 165.66L142.209 166.575L142.1 162.044Z" fill="#FFBE9D"/>
<path d="M143.877 169.229C144.039 169.425 148.024 171.351 150.052 171.295C152.08 171.239 154.401 169.658 156.149 169.9C157.895 170.141 161.517 170.421 161.957 169.795C162.397 169.169 162.522 168.44 161.927 167.877C161.331 167.313 158.404 166.759 156.292 166.192C154.179 165.626 153.162 164.751 153.162 164.751L140.873 166.105L140.176 169.939L143.877 169.229Z" fill="#FFBE9D"/>
<path d="M149.193 164.626C149.193 164.599 149.421 164.583 149.837 164.577C150.251 164.591 150.854 164.634 151.58 164.788C153.046 165.057 154.953 165.821 157.062 166.527C158.124 166.877 159.143 167.113 160.105 167.245C160.586 167.319 161.096 167.437 161.463 167.772C161.833 168.107 161.958 168.587 161.917 168.985C161.882 169.391 161.662 169.73 161.407 169.917C161.153 170.11 160.884 170.182 160.668 170.199C160.226 170.224 160.019 170.061 160.031 170.049C160.041 170.014 160.261 170.115 160.648 170.046C161.011 169.991 161.61 169.655 161.638 168.963C161.656 168.636 161.534 168.258 161.246 168.018C160.957 167.768 160.523 167.667 160.051 167.606C159.084 167.493 158.011 167.258 156.941 166.904C154.8 166.187 152.939 165.394 151.518 165.061C150.106 164.689 149.19 164.7 149.193 164.626Z" fill="#EB996E"/>
<path d="M157.235 166.939C157.194 167.035 156.316 166.731 155.43 166.029C154.539 165.33 154.039 164.548 154.122 164.486C154.211 164.415 154.825 165.053 155.674 165.717C156.519 166.389 157.283 166.836 157.235 166.939Z" fill="#EB996E"/>
<path d="M57.3689 292.895L34.7148 302.984L37.4372 315.079C37.4372 315.079 65.9273 306.588 75.2707 304.7C84.5891 302.818 99.691 300.41 103.957 291.373L57.3689 292.895Z" fill="#FFBE9D"/>
<path d="M39.611 315.299L38.8206 315.513C38.8206 315.513 37.0012 330.363 34.4939 331.183L27.543 304.506L36.3901 302.043C35.5861 306.488 36.5855 311.205 39.611 315.299Z" fill="#FB5607"/>
<path d="M27.541 304.505L29.6987 304.037L35.5704 329.777C35.5704 329.777 35.3629 331.099 34.4912 331.183L27.541 304.505Z" fill="#263238"/>
<path d="M103.842 291.719C103.842 291.719 103.792 291.951 103.601 292.355C103.416 292.761 103.066 293.328 102.515 293.975C101.415 295.276 99.484 296.82 96.9258 298.432C95.627 299.227 94.11 299.914 92.4403 300.533C90.7721 301.178 88.8987 301.57 86.9766 302.061C83.1136 303.036 78.875 304.148 74.4283 305.322C65.5462 307.667 57.5076 309.79 51.6473 311.336C48.7517 312.074 46.3972 312.674 44.7275 313.099C43.934 313.288 43.304 313.439 42.8389 313.55C42.4057 313.649 42.1769 313.695 42.1739 313.681C42.1701 313.668 42.3928 313.597 42.8191 313.473C43.2797 313.344 43.9029 313.169 44.6887 312.95C46.3508 312.495 48.6947 311.854 51.5758 311.066C57.3936 309.483 65.4306 307.291 74.328 304.939C78.7755 303.764 83.0178 302.663 86.8892 301.706C88.8288 301.221 90.6794 300.848 92.3293 300.224C93.9861 299.624 95.4978 298.956 96.7814 298.192C99.3411 296.621 101.282 295.123 102.4 293.872C103.537 292.629 103.795 291.693 103.842 291.719Z" fill="#EB996E"/>
<path d="M67.8547 194.559L68.3662 199.021C68.3662 199.021 60.5222 213.85 60.5222 221.807C60.5222 229.764 56.9023 293.102 56.9023 293.102C56.9023 293.102 99.4578 295.525 103.956 291.373C108.454 287.221 108.454 287.221 108.454 287.221L123.677 283.069L99.9282 196.407V191.764L67.8547 194.559Z" fill="#263238"/>
<path d="M96.9695 216.026C96.9763 216.025 96.99 216.085 97.0113 216.201C97.0341 216.342 97.0614 216.512 97.0956 216.72C97.1655 217.21 97.2605 217.878 97.3806 218.72C97.6284 220.492 97.9795 222.996 98.4104 226.076C99.2981 232.284 100.62 240.847 102.324 250.261C104.034 259.678 105.801 268.161 107.15 274.286C107.828 277.32 108.379 279.788 108.768 281.534C108.952 282.365 109.097 283.023 109.203 283.507C109.245 283.713 109.278 283.883 109.307 284.022C109.328 284.139 109.335 284.199 109.329 284.201C109.322 284.202 109.301 284.145 109.267 284.031C109.229 283.894 109.182 283.728 109.126 283.525C109.001 283.045 108.832 282.393 108.619 281.569C108.183 279.87 107.586 277.402 106.878 274.346C105.459 268.234 103.645 259.755 101.935 250.331C100.229 240.909 98.95 232.334 98.133 226.113C97.7234 223.002 97.4163 220.482 97.2279 218.738C97.1389 217.891 97.0683 217.221 97.0166 216.729C96.9983 216.518 96.9839 216.346 96.9717 216.205C96.9634 216.088 96.9626 216.027 96.9695 216.026Z" fill="#455A64"/>
<path d="M66.4052 223.96C66.4182 223.956 66.479 224.129 66.5823 224.462C66.6925 224.833 66.8362 225.317 67.0148 225.919C67.3986 227.23 67.9313 229.051 68.5849 231.282C69.9271 235.805 71.8712 242.026 74.2462 248.82C76.6265 255.615 78.987 261.692 80.7586 266.064C81.6394 268.215 82.3584 269.971 82.8752 271.235C83.1108 271.817 83.3008 272.285 83.446 272.644C83.5721 272.968 83.6329 273.14 83.62 273.146C83.6078 273.152 83.5227 272.99 83.3722 272.676C83.2096 272.325 82.9976 271.867 82.7331 271.297C82.1828 270.096 81.4175 268.345 80.4987 266.171C78.6595 261.822 76.2548 255.754 73.8715 248.951C71.4934 242.149 69.5889 235.906 68.3151 231.359C67.6767 229.086 67.1835 227.24 66.865 225.959C66.7161 225.348 66.596 224.858 66.504 224.481C66.4265 224.142 66.3916 223.963 66.4052 223.96Z" fill="#455A64"/>
<path d="M101.377 198.504C101.379 198.531 100.924 198.585 100.101 198.66C99.2767 198.736 98.0835 198.823 96.6068 198.912C93.655 199.09 89.57 199.25 85.0564 199.27C80.5412 199.287 76.4554 199.161 73.5013 199.006C72.0246 198.929 70.8299 198.852 70.0061 198.782C69.1815 198.714 68.727 198.663 68.7285 198.636C68.73 198.609 69.1876 198.607 70.0144 198.628C70.9074 198.653 72.087 198.685 73.5127 198.726C76.4661 198.808 80.5465 198.891 85.0548 198.873C89.5616 198.853 93.6413 198.739 96.5939 198.631C98.0197 198.58 99.1984 198.537 100.091 198.505C100.918 198.479 101.376 198.477 101.377 198.504Z" fill="#455A64"/>
<path d="M79.5859 140.648C79.3807 140.164 94.6817 152.366 96.6045 158.309C98.5273 164.253 98.8534 181.397 98.8534 181.397L99.9288 192.403L69.3806 194.559L68.5613 192.403L66.3041 186.27L63.1577 177.005C63.1577 177.005 55.6284 165.311 54.1327 160.273C52.276 154.019 55.3533 147.612 55.3533 147.612L62.2647 139.813L79.5859 140.648Z" fill="#FB5607"/>
<path d="M62.2665 140.375C62.2665 140.375 60.5733 137.23 61.6175 135.861C62.4482 134.773 77.1557 136.137 80.1577 136.773C81.9201 137.147 80.125 141.077 80.125 141.077L62.2665 140.375Z" fill="#FB5607"/>
<g opacity="0.3">
<path d="M71.0774 155.193C72.3596 158.509 70.5492 168.808 70.2696 171.26C69.9899 173.712 69.2937 176.094 68.5816 178.457C68.2502 179.555 67.9348 180.821 68.5565 181.784C69.5582 183.337 72.1422 182.898 73.3924 184.259C71.066 185.347 68.3848 185.657 65.8714 185.131C65.4314 185.039 64.9663 184.903 64.6813 184.555C64.4609 184.287 64.3826 183.933 64.3142 183.592C63.5907 179.987 63.27 176.248 63.9616 172.636C64.6532 169.025 68.1005 160.353 71.0014 158.093" fill="black"/>
</g>
<path d="M71.6117 159.741C71.7083 159.769 71.2447 161.446 70.1434 163.269C69.0513 165.098 67.7889 166.296 67.7198 166.223C67.6316 166.144 68.7382 164.852 69.8045 163.065C70.8806 161.284 71.5008 159.701 71.6117 159.741Z" fill="#263238"/>
<path d="M80.1576 140.702C80.1621 140.728 79.9136 140.796 79.4584 140.895C79.0039 140.997 78.3396 141.111 77.5143 141.222C75.8643 141.447 73.557 141.603 71.014 141.478C68.4703 141.348 66.1903 140.959 64.5715 140.571C63.7613 140.378 63.1115 140.198 62.67 140.05C62.2269 139.906 61.9867 139.814 61.9943 139.788C62.0118 139.727 63.0059 139.984 64.63 140.298C66.2534 140.614 68.5151 140.954 71.0345 141.083C73.5524 141.207 75.837 141.096 77.4839 140.945C79.1308 140.795 80.1462 140.639 80.1576 140.702Z" fill="#263238"/>
<path d="M90.9196 170.24C90.8519 170.219 91.1194 169.399 91.3254 168.038C91.5352 166.681 91.6157 164.766 91.254 162.7C90.8838 160.636 90.1489 158.865 89.4854 157.662C88.8242 156.455 88.2922 155.778 88.3477 155.735C88.369 155.717 88.518 155.873 88.771 156.172C89.0294 156.466 89.3608 156.926 89.7279 157.523C90.4666 158.712 91.2646 160.514 91.6438 162.632C92.0155 164.75 91.8855 166.717 91.6013 168.086C91.4614 168.772 91.3087 169.32 91.1673 169.684C91.0313 170.051 90.9454 170.248 90.9196 170.24Z" fill="#263238"/>
<g opacity="0.3">
<path d="M70.6727 141.222C68.2665 141.01 65.434 140.722 63.0879 140.146C66.5831 142.017 70.846 142.986 74.7797 142.489C76.2503 142.302 77.7977 141.888 78.772 140.771C76.5217 141.651 73.0788 141.432 70.6727 141.222Z" fill="black"/>
</g>
<g opacity="0.3">
<path d="M87.918 173.736C90.6608 170.877 92.0121 166.739 91.4846 162.812C91.9004 164.346 91.9847 165.193 92.0493 166.78C92.1139 168.368 91.9209 169.89 90.983 171.172C90.046 172.456 89.5033 173.233 87.918 173.736Z" fill="black"/>
</g>
<path d="M66.6228 148.509C63.348 145.783 58.3723 146.154 55.7693 149.528C55.6591 149.671 55.5542 149.817 55.4554 149.965C53.87 152.343 49.4939 189.395 51.2374 193.834C52.9816 198.273 55.5177 197.957 55.5177 197.957C55.5177 197.957 66.9777 197.827 75.2215 195.925C83.4652 194.023 92.6581 190.899 92.6581 190.899L91.1343 181.925C91.1343 181.925 70.9487 184.598 65.4 183.964L67.5181 165.926C67.5181 165.926 72.3411 160.048 70.9579 154.658C70.3012 152.097 68.4187 150.003 66.6228 148.509Z" fill="#FFBE9D"/>
<path d="M97.498 176.41L102.029 173.364L105.291 170.613C105.291 170.613 105.693 171.977 104.678 173.511C103.663 175.046 101.963 177.342 101.963 177.342L97.498 176.41Z" fill="#FFBE9D"/>
<path d="M104.261 174.574C104.223 174.543 104.515 174.226 104.833 173.569C105.139 172.928 105.424 171.848 105.128 170.662L105.399 170.743C104.435 171.567 103.334 172.508 102.156 173.514L102.149 173.521L102.139 173.527C102.062 173.579 101.979 173.634 101.896 173.691C100.888 174.362 99.9265 175.002 99.0373 175.594C98.1595 176.18 97.3623 176.698 96.6532 177.069C95.2578 177.848 94.3823 178.305 94.3542 178.258C94.3268 178.211 95.1514 177.668 96.5057 176.831C97.1943 176.43 97.9748 175.89 98.8397 175.288C99.7221 174.689 100.675 174.042 101.676 173.362C101.759 173.307 101.842 173.251 101.918 173.2L101.901 173.213C103.092 172.222 104.206 171.296 105.181 170.484L105.395 170.306L105.452 170.565C105.747 171.9 105.379 173.006 105.009 173.659C104.822 173.991 104.634 174.225 104.495 174.369C104.354 174.515 104.274 174.586 104.261 174.574Z" fill="#EB996E"/>
<path d="M95.8613 184.06C96.0156 183.754 107.932 170.472 110.868 167.202C111.251 166.774 111.872 166.659 112.384 166.917C113.133 167.294 113.319 168.278 112.758 168.902L97.4968 185.872L95.8613 184.06Z" fill="#263238"/>
<path d="M108.548 178.257C109.036 177.594 108.305 176.297 107.631 175.941C106.957 175.585 104.26 177.073 104.26 177.073L103.283 177.161C103.283 177.161 98.0497 176.102 97.8749 176.188C97.8042 176.223 95.7773 177.065 94.0939 178.466C93.546 178.922 93.1052 179.487 92.7153 180.084C92.3155 180.695 91.3359 181.703 89.0566 182.247L91.2774 191.267C91.2774 191.267 96.1436 190.122 96.5115 190.118C96.8801 190.114 100.954 189.786 101.496 189.696C102.039 189.606 104.339 188.889 106.083 187.592C107.827 186.294 107.013 185.192 107.013 185.192C108.819 183.967 107.411 182.748 107.411 182.748L107.916 181.886C108.663 180.508 107.152 179.749 107.152 179.749C107.152 179.749 108.059 178.919 108.548 178.257Z" fill="#FFBE9D"/>
<path d="M104.927 181.057C104.896 180.957 105.467 180.698 106.113 180.297C106.763 179.901 107.251 179.507 107.326 179.58C107.399 179.644 106.999 180.183 106.305 180.607C105.613 181.036 104.953 181.15 104.927 181.057Z" fill="#EB996E"/>
<path d="M106.456 183.508C106.392 183.429 106.578 183.171 106.871 182.931C107.164 182.69 107.453 182.558 107.518 182.636C107.581 182.713 107.396 182.972 107.103 183.213C106.809 183.454 106.52 183.586 106.456 183.508Z" fill="#EB996E"/>
<path d="M105.918 185.506C105.908 185.404 106.212 185.294 106.566 185.157C106.923 185.024 107.222 184.904 107.282 184.987C107.342 185.065 107.105 185.344 106.696 185.499C106.288 185.654 105.925 185.605 105.918 185.506Z" fill="#EB996E"/>
<path d="M104.26 177.072C104.27 177.187 103.029 177.347 101.504 177.462C99.9756 177.567 98.7573 177.704 98.733 177.612C98.7018 177.492 99.9353 177.173 101.473 177.068C103.008 176.952 104.252 176.97 104.26 177.072Z" fill="#EB996E"/>
<path d="M65.6661 183.798C65.7481 183.871 64.8415 185.036 63.6414 186.4C62.4414 187.765 61.4017 188.812 61.3196 188.74C61.2375 188.668 62.1435 187.503 63.3443 186.139C64.5451 184.774 65.584 183.727 65.6661 183.798Z" fill="#EB996E"/>
<path d="M70.7832 159.299C70.7452 159.291 70.8379 158.895 70.9071 158.171C70.9778 157.45 71.0294 156.388 70.7612 155.124C70.4944 153.862 69.8537 152.437 68.8262 151.068C67.8306 149.687 66.3608 148.439 64.5641 147.648C62.769 146.864 60.815 146.7 59.2152 147.299C57.585 147.798 56.369 148.838 55.7367 149.957C55.0831 151.065 54.8217 152.103 54.6492 152.806C54.482 153.515 54.4181 153.916 54.3839 153.911C54.3702 153.909 54.3725 153.807 54.3892 153.614C54.4082 153.422 54.4295 153.136 54.4987 152.775C54.6271 152.055 54.8468 150.988 55.4958 149.815C55.8211 149.234 56.2786 148.639 56.8934 148.138C57.5052 147.634 58.2652 147.234 59.1012 146.954C60.7664 146.305 62.867 146.467 64.7222 147.285C66.588 148.105 68.1103 149.417 69.1203 150.852C70.1577 152.265 70.7976 153.759 71.0355 155.068C71.2772 156.381 71.1784 157.467 71.0606 158.19C71.0021 158.555 70.9367 158.833 70.8812 159.019C70.8296 159.206 70.7961 159.302 70.7832 159.299Z" fill="#263238"/>
<path d="M127.156 123.381H95.9942C94.7151 123.381 93.6777 124.418 93.6777 125.697V155.896C93.6777 157.176 94.7151 158.213 95.9942 158.213H107.468L111.95 164.564L115.839 158.213H127.157C128.437 158.213 129.474 157.176 129.474 155.896V125.697C129.474 124.417 128.436 123.381 127.156 123.381Z" fill="#FAFAFA"/>
<path d="M127.156 123.381C127.156 123.381 127.488 123.315 128.072 123.534C128.358 123.65 128.695 123.859 128.992 124.21C129.28 124.561 129.524 125.068 129.533 125.675C129.546 128.041 129.565 131.464 129.588 135.769C129.6 140.092 129.615 145.299 129.631 151.206C129.634 152.683 129.636 154.205 129.639 155.767C129.688 156.587 129.278 157.464 128.564 157.947C128.209 158.188 127.789 158.345 127.354 158.377C126.921 158.398 126.533 158.384 126.117 158.389C122.834 158.392 119.4 158.396 115.838 158.401L115.997 158.311C114.768 160.322 113.454 162.471 112.113 164.665L111.96 164.915L111.79 164.675C110.365 162.657 108.849 160.51 107.306 158.326L107.466 158.409C104.897 158.41 102.176 158.41 99.4207 158.411C98.1667 158.401 96.9629 158.43 95.6891 158.39C95.0249 158.313 94.4047 157.955 94.0035 157.429C93.5855 156.917 93.4388 156.195 93.4791 155.593C93.4798 153.17 93.4813 150.783 93.4821 148.437C93.4859 143.746 93.4897 139.221 93.4935 134.908C93.4965 132.753 93.4988 130.651 93.5019 128.609C93.5057 127.585 93.5087 126.576 93.5117 125.583C93.5452 124.508 94.3455 123.551 95.3487 123.302C95.8609 123.162 96.345 123.236 96.8094 123.218C97.2806 123.219 97.7472 123.22 98.2093 123.221C99.1342 123.223 100.042 123.225 100.932 123.227C102.711 123.232 104.418 123.235 106.049 123.24C112.557 123.267 117.829 123.288 121.493 123.303C123.301 123.319 124.714 123.332 125.691 123.34C126.158 123.349 126.52 123.356 126.783 123.36C127.031 123.367 127.156 123.381 127.156 123.381C127.156 123.381 127.03 123.394 126.784 123.401C126.522 123.406 126.158 123.413 125.692 123.421C124.714 123.429 123.302 123.442 121.493 123.458C117.829 123.473 112.557 123.495 106.05 123.521C104.42 123.525 102.712 123.53 100.932 123.534C100.042 123.536 99.135 123.538 98.2101 123.54C97.7472 123.541 97.2806 123.543 96.8101 123.543C96.3374 123.561 95.8541 123.498 95.4345 123.622C94.5651 123.84 93.8758 124.674 93.8507 125.601C93.8507 126.589 93.8507 127.593 93.8507 128.611C93.8537 130.653 93.856 132.755 93.8591 134.911C93.8629 139.222 93.8667 143.748 93.8705 148.439C93.8712 150.785 93.8727 153.173 93.8735 155.596C93.8408 156.199 93.9632 156.738 94.3166 157.191C94.6563 157.635 95.1784 157.936 95.737 158C96.9165 158.034 98.1888 158.009 99.4215 158.017C102.177 158.018 104.897 158.018 107.467 158.018H107.569L107.627 158.102C109.168 160.288 110.682 162.436 112.106 164.456L111.784 164.466C113.128 162.274 114.446 160.127 115.678 158.118L115.733 158.028H115.838C119.4 158.032 122.833 158.037 126.117 158.04C126.521 158.037 126.949 158.05 127.326 158.034C127.701 158.008 128.062 157.873 128.37 157.667C128.988 157.243 129.344 156.514 129.305 155.769C129.308 154.207 129.311 152.685 129.313 151.207C129.329 145.301 129.344 140.094 129.356 135.77C129.378 131.466 129.396 128.043 129.409 125.677C129.41 125.101 129.187 124.614 128.918 124.27C128.64 123.927 128.321 123.716 128.046 123.593C127.487 123.359 127.152 123.406 127.156 123.381Z" fill="#263238"/>
<path d="M116.794 145.409C116.794 145.414 116.721 145.418 116.581 145.423C116.429 145.426 116.226 145.43 115.97 145.437C115.423 145.443 114.654 145.451 113.703 145.462C111.769 145.47 109.1 145.482 106.096 145.496H106.033L106.025 145.434C105.968 145.032 105.908 144.606 105.846 144.174C105.336 140.484 104.881 137.192 104.583 135.04L104.628 135.079C103.771 135.071 103.087 135.065 102.602 135.06C102.376 135.056 102.198 135.052 102.063 135.049C101.941 135.045 101.877 135.041 101.877 135.037C101.877 135.032 101.941 135.028 102.063 135.024C102.198 135.021 102.376 135.016 102.602 135.011C103.086 135.005 103.771 134.997 104.628 134.987L104.668 134.987L104.673 135.026C104.983 137.176 105.457 140.466 105.988 144.153C106.049 144.585 106.109 145.011 106.166 145.413L106.095 145.351C109.098 145.356 111.768 145.361 113.703 145.364C114.653 145.371 115.422 145.378 115.969 145.383C116.226 145.388 116.429 145.392 116.581 145.395C116.721 145.4 116.794 145.405 116.794 145.409Z" fill="#263238"/>
<path d="M106.014 145.633C105.954 145.624 105.906 145.577 105.897 145.516L104.469 135.216L102.061 135.189C101.845 135.182 101.746 135.179 101.74 135.044C101.743 134.898 101.848 134.895 102.059 134.888L102.6 134.875L104.666 134.85C104.736 134.85 104.795 134.9 104.805 134.968L106.277 145.216L116.584 145.259C116.833 145.266 116.927 145.269 116.932 145.405C116.932 145.408 116.932 145.411 116.932 145.413C116.929 145.55 116.835 145.553 116.586 145.561L115.972 145.575L113.704 145.6L106.033 145.634C106.027 145.634 106.021 145.633 106.014 145.633Z" fill="#263238"/>
<path d="M105.781 143.209C105.781 143.207 105.799 143.205 105.834 143.203C105.877 143.201 105.928 143.199 105.992 143.197C106.141 143.194 106.345 143.19 106.604 143.185C107.149 143.179 107.924 143.171 108.894 143.161C110.859 143.152 113.608 143.139 116.789 143.125L116.721 143.182C116.953 141.852 117.204 140.415 117.464 138.927C117.598 138.162 117.73 137.41 117.856 136.693L117.926 136.777C114.231 136.772 110.97 136.769 108.62 136.766C107.458 136.759 106.523 136.753 105.865 136.749C105.551 136.744 105.302 136.741 105.123 136.738C105.045 136.735 104.982 136.733 104.931 136.731C104.887 136.729 104.865 136.727 104.865 136.725C104.865 136.722 104.887 136.72 104.931 136.718C104.982 136.716 105.045 136.714 105.123 136.711C105.302 136.708 105.55 136.703 105.865 136.697C106.523 136.691 107.458 136.683 108.62 136.672C110.97 136.663 114.231 136.65 117.926 136.635L118.011 136.634L117.997 136.718C117.871 137.434 117.74 138.186 117.606 138.951C117.344 140.439 117.091 141.876 116.857 143.204L116.847 143.261H116.79C113.608 143.255 110.86 143.251 108.895 143.247C107.926 143.24 107.15 143.234 106.605 143.23C106.346 143.226 106.142 143.223 105.993 143.22C105.929 143.217 105.878 143.215 105.835 143.213C105.799 143.213 105.781 143.211 105.781 143.209Z" fill="#263238"/>
<path d="M105.786 143.349C105.726 143.34 105.643 143.312 105.644 143.207C105.645 143.075 105.782 143.068 105.828 143.065L106.603 143.046L108.893 143.023L116.616 142.987L117.678 136.915L104.928 136.869C104.865 136.866 104.726 136.859 104.729 136.722C104.731 136.591 104.862 136.584 104.924 136.58L105.863 136.56L110.562 136.526L118.01 136.497C118.051 136.497 118.09 136.514 118.116 136.545C118.143 136.576 118.153 136.617 118.146 136.658L116.983 143.286C116.971 143.352 116.914 143.4 116.847 143.4L105.829 143.352C105.82 143.353 105.805 143.351 105.786 143.349Z" fill="#263238"/>
<path d="M108.776 148.324C108.763 148.325 108.762 148.229 108.715 148.07C108.669 147.913 108.558 147.687 108.322 147.515C108.093 147.343 107.72 147.248 107.363 147.384C107.008 147.508 106.704 147.887 106.708 148.327C106.704 148.768 107.011 149.145 107.366 149.268C107.724 149.403 108.096 149.308 108.324 149.135C108.56 148.961 108.67 148.735 108.716 148.578C108.762 148.419 108.762 148.324 108.776 148.324C108.782 148.324 108.802 148.42 108.77 148.593C108.738 148.761 108.636 149.015 108.385 149.216C108.143 149.417 107.73 149.539 107.321 149.394C106.916 149.262 106.56 148.832 106.565 148.328C106.559 147.823 106.913 147.393 107.318 147.26C107.726 147.113 108.14 147.234 108.383 147.435C108.635 147.635 108.737 147.888 108.769 148.057C108.802 148.229 108.782 148.325 108.776 148.324Z" fill="#263238"/>
<path d="M107.517 149.584C107.438 149.572 107.356 149.553 107.274 149.524C106.851 149.385 106.421 148.929 106.426 148.327C106.42 147.726 106.848 147.269 107.274 147.129C107.765 146.953 108.226 147.127 108.47 147.329C108.789 147.583 108.88 147.905 108.904 148.032C108.916 148.097 108.936 148.227 108.918 148.325C108.936 148.423 108.917 148.554 108.905 148.619C108.881 148.746 108.791 149.068 108.471 149.324C108.27 149.491 107.916 149.64 107.517 149.584ZM107.842 147.466C107.709 147.447 107.562 147.457 107.412 147.513C107.126 147.613 106.842 147.924 106.845 148.326C106.842 148.73 107.127 149.04 107.411 149.139C107.746 149.265 108.067 149.157 108.24 149.026C108.462 148.863 108.55 148.652 108.583 148.54C108.606 148.46 108.617 148.397 108.624 148.357C108.625 148.349 108.627 148.337 108.63 148.325C108.627 148.313 108.625 148.302 108.624 148.294C108.617 148.254 108.606 148.191 108.582 148.11C108.549 147.999 108.46 147.788 108.24 147.628C108.143 147.554 108.004 147.489 107.842 147.466Z" fill="#263238"/>
<path d="M115.659 148.315C115.646 148.315 115.645 148.22 115.598 148.06C115.552 147.903 115.441 147.677 115.204 147.505C114.976 147.333 114.603 147.238 114.246 147.374C113.891 147.498 113.587 147.877 113.591 148.317C113.588 148.758 113.893 149.135 114.248 149.259C114.606 149.393 114.979 149.298 115.207 149.125C115.443 148.952 115.553 148.725 115.599 148.568C115.645 148.41 115.646 148.314 115.659 148.315C115.665 148.314 115.685 148.41 115.653 148.583C115.621 148.752 115.519 149.005 115.268 149.206C115.026 149.407 114.612 149.529 114.204 149.384C113.798 149.252 113.444 148.822 113.447 148.318C113.442 147.813 113.796 147.383 114.2 147.25C114.609 147.104 115.023 147.224 115.266 147.425C115.518 147.625 115.62 147.878 115.652 148.047C115.685 148.219 115.665 148.315 115.659 148.315Z" fill="#263238"/>
<path d="M114.402 149.574C114.322 149.563 114.241 149.543 114.158 149.514C113.735 149.376 113.305 148.92 113.311 148.317C113.304 147.717 113.732 147.26 114.158 147.119C114.649 146.943 115.11 147.116 115.354 147.318C115.673 147.572 115.764 147.894 115.788 148.021C115.8 148.086 115.82 148.217 115.802 148.315C115.82 148.413 115.801 148.543 115.789 148.608C115.765 148.735 115.675 149.056 115.355 149.314C115.154 149.481 114.8 149.631 114.402 149.574ZM114.725 147.456C114.593 147.437 114.445 147.447 114.295 147.503C114.009 147.603 113.725 147.914 113.729 148.316C113.726 148.72 114.011 149.031 114.294 149.129C114.631 149.256 114.951 149.147 115.123 149.016C115.345 148.853 115.433 148.642 115.466 148.53C115.49 148.451 115.5 148.388 115.507 148.347C115.509 148.339 115.51 148.328 115.513 148.315C115.511 148.303 115.509 148.293 115.507 148.284C115.5 148.244 115.49 148.181 115.465 148.1C115.432 147.989 115.343 147.778 115.122 147.618C115.027 147.544 114.888 147.479 114.725 147.456Z" fill="#263238"/>
<path d="M121.848 137.808C121.848 139.789 120.241 141.396 118.26 141.396C116.279 141.396 114.672 139.79 114.672 137.808C114.672 135.826 116.278 134.22 118.26 134.22C120.242 134.22 121.848 135.826 121.848 137.808Z" fill="#FB5607"/>
<path d="M116.209 137.884L116.746 137.348L117.781 138.268L119.814 136.313L120.312 136.849L117.705 139.303L116.209 137.884Z" fill="white"/>
</svg>
