<svg width="71" height="58" viewBox="0 0 71 58" fill="none" xmlns="http://www.w3.org/2000/svg">
<path d="M33.668 26.2632C33.668 25.5643 33.1013 24.9976 32.4023 24.9976H18.4805C17.7816 24.9976 17.2148 25.5643 17.2148 26.2632C17.2148 26.9621 17.7816 27.5288 18.4805 27.5288H32.4023C33.1013 27.5288 33.668 26.9621 33.668 26.2632Z" fill="#A7A7A7"/>
<path d="M18.4766 31.3889C17.7777 31.3889 17.2109 31.9556 17.2109 32.6545C17.2109 33.3534 17.7777 33.9202 18.4766 33.9202H25.858C26.5569 33.9202 27.1236 33.3534 27.1236 32.6545C27.1236 31.9556 26.5569 31.3889 25.858 31.3889H18.4766Z" fill="#A7A7A7"/>
<path d="M42.0062 26.3334C41.3073 26.3334 40.7406 26.9002 40.7406 27.5991V37.8352C40.7406 39.7505 39.1825 41.3086 37.2672 41.3086H28.8016C28.5273 41.3086 28.2602 41.3972 28.0408 41.5631L20.7311 47.0602C20.5455 47.1994 20.3711 47.1417 20.2839 47.0939C20.1953 47.0489 20.0491 46.9378 20.0547 46.7114L20.1953 42.6192C20.2066 42.2761 20.0786 41.9428 19.8409 41.6967C19.6033 41.4492 19.2742 41.31 18.9311 41.31H13.0516C11.1363 41.31 9.57812 39.7533 9.57812 37.8366V21.1022C9.57812 19.1798 11.1363 17.6161 13.0516 17.6161H28.6469C29.3458 17.6161 29.9125 17.0494 29.9125 16.3505C29.9125 15.6516 29.3458 15.0848 28.6469 15.0848H13.0516C9.74125 15.0848 7.04688 17.7848 7.04688 21.1036V37.8366C7.04688 41.1469 9.74125 43.8427 13.0516 43.8427H17.6205L17.5248 46.6298C17.4911 47.7745 18.1 48.8152 19.1167 49.3425C19.5512 49.5689 20.0195 49.68 20.4836 49.68C21.1066 49.68 21.7239 49.4789 22.2498 49.0866L29.2234 43.8427H37.2658C40.5761 43.8427 43.2705 41.1483 43.2705 37.8366V27.6005C43.2719 26.9002 42.7052 26.3334 42.0062 26.3334Z" fill="#A7A7A7"/>
<path d="M48.8476 14.2777C48.6183 13.5745 48.0544 13.0486 47.3386 12.8714L44.1043 12.0656L42.338 9.23908C41.5547 7.98189 39.5101 7.9847 38.7282 9.23908L36.9619 12.0656L33.7276 12.8714C33.0118 13.0486 32.4465 13.5745 32.2186 14.2777C31.9908 14.9808 32.1371 15.7388 32.6124 16.3055L34.7555 18.8564L34.5221 22.1808C34.4701 22.9177 34.7963 23.6166 35.394 24.0511C35.7652 24.3211 36.2011 24.4603 36.6427 24.4603C36.9113 24.4603 37.1827 24.4083 37.4429 24.3028L40.5338 23.0541L43.6233 24.3028C44.3082 24.5813 45.0732 24.4856 45.6722 24.0525C46.2699 23.618 46.5961 22.9191 46.5455 22.1808L46.3121 18.8564L48.4552 16.3041C48.9291 15.7388 49.0768 14.9808 48.8476 14.2777ZM44.0438 17.6203C43.8329 17.872 43.7274 18.1955 43.7513 18.5245L43.9763 21.7167L41.0091 20.5172C40.8572 20.4553 40.6955 20.4244 40.5352 20.4244C40.3749 20.4244 40.2132 20.4553 40.0613 20.5172L37.0955 21.7167L37.3191 18.5245C37.3416 18.1969 37.2361 17.872 37.0266 17.6203L34.9693 15.1706L38.0743 14.3958C38.3921 14.3156 38.6677 14.1174 38.8407 13.8389L40.5366 11.1263L42.2326 13.8389C42.4069 14.1174 42.6811 14.317 42.999 14.3958L46.104 15.1706L44.0438 17.6203Z" fill="#A7A7A7"/>
<path d="M62.6725 50.5071C63.0467 50.1328 63.0467 49.526 62.6725 49.1518L60.9783 47.4577L62.6725 45.7635C63.0467 45.3893 63.0467 44.7825 62.6725 44.4083C62.2982 44.034 61.6914 44.034 61.3172 44.4083L59.6231 46.1024L57.9289 44.4083C57.5547 44.034 56.9479 44.034 56.5737 44.4083C56.1994 44.7825 56.1994 45.3893 56.5737 45.7635L58.2678 47.4577L56.5737 49.1518C56.1994 49.526 56.1994 50.1328 56.5737 50.5071C56.9479 50.8813 57.5547 50.8813 57.9289 50.5071L59.6231 48.8129L61.3172 50.5071C61.6914 50.8813 62.2982 50.8813 62.6725 50.5071Z" fill="#A7A7A7"/>
<path fill-rule="evenodd" clip-rule="evenodd" d="M53.2521 40.6068C56.8954 36.9634 62.8025 36.9634 66.4459 40.6068C69.8604 44.0214 70.0749 49.4243 67.0891 53.0886C63.4303 57.5788 56.6666 57.2152 53.2521 53.8006C49.6087 50.1572 49.6087 44.2502 53.2521 40.6068ZM65.0906 41.9621C62.1957 39.0672 57.5022 39.0672 54.6073 41.9621C51.7125 44.8569 51.7125 49.5504 54.6073 52.4453C57.5022 55.3402 62.1957 55.3402 65.0906 52.4453C67.9854 49.5504 67.9854 44.8569 65.0906 41.9621Z" fill="#A7A7A7"/>
</svg>
