<svg width="72" height="58" viewBox="0 0 72 58" fill="none" xmlns="http://www.w3.org/2000/svg">
<g clip-path="url(#clip0_12253_19143)">
<path d="M39.6758 9.19189C35.735 9.19189 32.3099 10.9958 29.7709 14.4084C29.4446 14.8469 29.1533 15.2856 28.8945 15.7112C28.6358 15.2855 28.3445 14.8469 28.0182 14.4084C25.4792 10.9958 22.0541 9.19189 18.1133 9.19189C10.8149 9.19189 5.89453 15.0545 5.89453 22.2419C5.89453 31.6221 14.8099 37.5277 27.7442 48.3066C28.0773 48.5842 28.4859 48.7231 28.8945 48.7231C29.3031 48.7231 29.7117 48.5843 30.0449 48.3066C42.9761 37.5307 51.8945 31.6233 51.8945 22.2419C51.8945 15.0587 46.9784 9.19189 39.6758 9.19189ZM28.8945 44.5908C16.9847 34.7376 9.48828 29.5159 9.48828 22.2419C9.48828 17.5428 12.451 12.7856 18.1133 12.7856C20.8804 12.7856 23.222 14.0256 25.0731 16.4711C26.5397 18.4088 27.1492 20.4086 27.1689 20.474C27.3916 21.2416 28.0949 21.77 28.8945 21.77C29.6954 21.77 30.3996 21.24 30.6212 20.4704C30.6433 20.3936 32.9128 12.7856 39.6758 12.7856C45.3381 12.7856 48.3008 17.5428 48.3008 22.2419C48.3008 29.523 40.7666 34.7693 28.8945 44.5908Z" fill="#A7A7A7"/>
</g>
<path d="M63.1744 50.5071C63.5487 50.1328 63.5487 49.526 63.1744 49.1518L61.4803 47.4577L63.1744 45.7635C63.5487 45.3893 63.5487 44.7825 63.1744 44.4083C62.8002 44.034 62.1934 44.034 61.8191 44.4083L60.125 46.1024L58.4309 44.4083C58.0566 44.034 57.4499 44.034 57.0756 44.4083C56.7014 44.7825 56.7014 45.3893 57.0756 45.7635L58.7697 47.4577L57.0756 49.1518C56.7014 49.526 56.7014 50.1328 57.0756 50.5071C57.4499 50.8813 58.0566 50.8813 58.4309 50.5071L60.125 48.8129L61.8191 50.5071C62.1934 50.8813 62.8002 50.8813 63.1744 50.5071Z" fill="#A7A7A7"/>
<path fill-rule="evenodd" clip-rule="evenodd" d="M53.753 40.6068C57.3964 36.9634 63.3035 36.9634 66.9469 40.6068C70.3614 44.0214 70.5759 49.4243 67.5901 53.0886C63.9313 57.5788 57.1676 57.2152 53.753 53.8006C50.1097 50.1572 50.1097 44.2502 53.753 40.6068ZM65.5916 41.9621C62.6966 39.0672 58.0032 39.0672 55.1083 41.9621C52.2135 44.8569 52.2135 49.5504 55.1083 52.4453C58.0032 55.3402 62.6966 55.3402 65.5916 52.4453C68.4864 49.5504 68.4864 44.8569 65.5916 41.9621Z" fill="#A7A7A7"/>
<defs>
<clipPath id="clip0_12253_19143">
<rect width="46" height="46" fill="white" transform="translate(5.89453 5.95752)"/>
</clipPath>
</defs>
</svg>
