<svg width="15" height="16" viewBox="0 0 15 16" fill="none" xmlns="http://www.w3.org/2000/svg">
<path d="M14.46 3.78301V1.53125C14.46 1.22012 14.2086 0.96875 13.8975 0.96875H2.01466C1.70353 0.96875 1.45216 1.22012 1.45216 1.53125V3.78301C1.1586 3.80059 0.924816 4.04492 0.924816 4.34375V6.65879C0.92369 7.08426 1.00984 7.50544 1.17794 7.89629C1.25353 8.07559 1.34669 8.24434 1.45216 8.4043V14.4688C1.45216 14.7781 1.70353 15.0312 2.01466 15.0312H6.83107V11.9375H9.08107V15.0312H13.8975C14.2086 15.0312 14.46 14.7799 14.46 14.4688V8.4043C14.5671 8.24393 14.6589 8.07385 14.7342 7.89629C14.9012 7.5043 14.9873 7.0877 14.9873 6.65879V4.34375C14.9873 4.04492 14.7535 3.80059 14.46 3.78301ZM13.1943 13.7674H10.2061V11.375C10.2061 11.0639 9.9547 10.8125 9.64357 10.8125H6.26857C5.95743 10.8125 5.70607 11.0639 5.70607 11.375V13.7674H2.71778V9.50996C2.76876 9.53457 2.8215 9.55918 2.87599 9.58027C3.26798 9.74551 3.68458 9.82812 4.11349 9.82812C4.54239 9.82812 4.95724 9.74551 5.35099 9.58027C5.59357 9.47832 5.82208 9.34824 6.03126 9.1918C6.03478 9.19004 6.03829 9.19004 6.04181 9.1918C6.25164 9.34891 6.48014 9.4794 6.72208 9.58027C7.11407 9.74551 7.53067 9.82812 7.95958 9.82812C8.38849 9.82812 8.80333 9.74551 9.19708 9.58027C9.43966 9.47832 9.66817 9.34824 9.87735 9.1918C9.88087 9.19004 9.88439 9.19004 9.8879 9.1918C10.0977 9.34891 10.3262 9.4794 10.5682 9.58027C10.9602 9.74551 11.3768 9.82812 11.8057 9.82812C12.2346 9.82812 12.6494 9.74551 13.0432 9.58027C13.0959 9.55742 13.1486 9.53457 13.2014 9.50996V13.7674H13.1943ZM13.1943 3.78125H2.71778V2.23438H13.1943V3.78125Z" fill="#334257"/>
</svg>
