<svg width="624" height="593" viewBox="0 0 624 593" fill="none" xmlns="http://www.w3.org/2000/svg">
<mask id="mask0_626_2368" style="mask-type:luminance" maskUnits="userSpaceOnUse" x="62" y="0" width="500" height="500">
<path d="M562 0H62V500H562V0Z" fill="white"/>
</mask>
<g mask="url(#mask0_626_2368)">
<path d="M499.846 402.41C498.006 407.51 493.121 411.155 487.386 411.155H101.786C94.471 411.155 88.541 405.225 88.541 397.91V141.315C88.541 136.09 91.566 131.575 95.966 129.42C95.456 130.825 95.181 132.34 95.181 133.92V390.515C95.181 397.83 101.111 403.76 108.426 403.76H494.026C496.116 403.76 498.091 403.275 499.846 402.41Z" fill="#C5C6CF"/>
<path d="M487.386 411.405H101.786C94.346 411.405 88.291 405.35 88.291 397.91V141.315C88.291 136.125 91.191 131.48 95.856 129.195L96.411 128.925L96.201 129.51C95.691 130.92 95.431 132.405 95.431 133.925V390.52C95.431 397.685 101.261 403.515 108.426 403.515H494.026C496.031 403.515 497.951 403.07 499.736 402.19L500.291 401.915L500.081 402.5C498.156 407.83 493.056 411.41 487.386 411.41V411.405ZM95.531 129.93C91.356 132.215 88.791 136.525 88.791 141.32V397.915C88.791 405.08 94.621 410.91 101.786 410.91H487.386C492.641 410.91 497.386 407.72 499.386 402.905C497.696 403.645 495.896 404.015 494.026 404.015H108.426C100.986 404.015 94.931 397.96 94.931 390.52V133.92C94.931 132.55 95.131 131.21 95.531 129.925V129.93Z" fill="#C5C6CF"/>
<g opacity="0.75">
<path d="M507.245 391.31C506.955 396.195 504.015 400.37 499.845 402.41C498.09 403.275 496.115 403.76 494.025 403.76H108.425C101.11 403.76 95.1797 397.83 95.1797 390.515V133.92C95.1797 132.34 95.4547 130.825 95.9647 129.42C97.5347 125.065 101.33 121.775 105.98 120.91C105.965 121.17 105.955 121.435 105.955 121.7V378.295C105.955 385.61 111.885 391.54 119.2 391.54H504.8C505.635 391.54 506.455 391.465 507.245 391.31Z" fill="#C5C6CF"/>
<path d="M494.025 404.01H108.425C100.985 404.01 94.9297 397.955 94.9297 390.515V133.92C94.9297 132.34 95.1997 130.8 95.7297 129.335C97.3447 124.855 101.255 121.535 105.935 120.665L106.25 120.605L106.23 120.925C106.215 121.18 106.205 121.44 106.205 121.7V378.295C106.205 385.46 112.035 391.29 119.2 391.29H504.8C505.63 391.29 506.435 391.215 507.195 391.065L507.51 391.005L507.49 391.325C507.2 396.165 504.315 400.5 499.95 402.635C498.1 403.55 496.105 404.01 494.02 404.01H494.025ZM105.715 121.22C101.345 122.145 97.7197 125.295 96.1997 129.505C95.6897 130.915 95.4297 132.4 95.4297 133.92V390.515C95.4297 397.68 101.26 403.51 108.425 403.51H494.025C496.03 403.51 497.95 403.065 499.735 402.185C503.84 400.175 506.59 396.145 506.975 391.615C506.275 391.73 505.545 391.79 504.8 391.79H119.2C111.76 391.79 105.705 385.735 105.705 378.295V121.7C105.705 121.54 105.705 121.38 105.715 121.22Z" fill="#C5C6CF"/>
</g>
<path opacity="0.5" d="M105.955 144.115V378.295C105.955 385.61 111.885 391.54 119.2 391.54H504.8C505.635 391.54 506.455 391.465 507.245 391.31C513.39 390.17 518.045 384.775 518.045 378.295V144.115H105.955ZM383.33 310.005H375.925L394.88 342.835C400.565 352.695 393.46 365.005 382.08 365.005H265.155C264.355 365.005 263.575 364.945 262.82 364.83C263.575 364.95 264.355 365.01 265.155 365.01H251.155C239.775 365.01 232.665 352.695 238.35 342.835L257.305 310.005H223.09C190.47 310.005 175.94 263.215 197.565 237.685C219.19 212.16 253.935 234.495 253.935 234.495C253.935 234.495 252.56 165.05 321.695 165.05C390.83 165.05 388.425 231.235 388.425 231.235C388.425 231.235 425.495 230.955 426.35 270.29C427.2 309.625 383.33 310.005 383.33 310.005Z" fill="#C5C6CF"/>
<path d="M504.8 393.04H119.2C111.07 393.04 104.455 386.425 104.455 378.295V142.615H519.545V378.295C519.545 385.4 514.485 391.49 507.52 392.785C506.66 392.955 505.74 393.04 504.8 393.04ZM107.455 145.615V378.295C107.455 384.77 112.725 390.04 119.2 390.04H504.8C505.545 390.04 506.275 389.97 506.955 389.84C512.515 388.81 516.545 383.955 516.545 378.295V145.615H107.455Z" fill="#C5C6CF"/>
<path d="M265.154 366.51H251.154C245.269 366.51 239.999 363.47 237.054 358.375C234.109 353.275 234.109 347.19 237.049 342.085L254.704 311.505H223.089C209.274 311.505 197.124 303.085 190.584 288.975C182.454 271.435 184.799 250.435 196.419 236.715C205.639 225.835 218.694 221.8 234.169 225.05C242.369 226.775 249.129 230.065 252.479 231.91C252.804 223.895 255.244 199.435 272.424 181.91C284.369 169.73 300.944 163.55 321.694 163.55C342.444 163.55 359.814 169.765 371.634 182.02C388.494 199.5 389.874 223.53 389.934 229.79C393.019 229.98 400.314 230.835 407.754 234.68C416.669 239.29 427.389 249.205 427.849 270.26C428.094 281.545 424.774 290.815 417.984 297.815C405.029 311.17 384.219 311.5 383.339 311.51H378.519L396.174 342.09C399.114 347.195 399.114 353.28 396.174 358.375C393.234 363.47 387.964 366.51 382.079 366.51H265.154ZM223.964 226.93C213.784 226.93 205.319 230.85 198.709 238.65C186.144 253.485 186.944 273.98 193.304 287.71C199.429 300.92 210.284 308.5 223.089 308.5H259.904L239.649 343.58C237.249 347.74 237.249 352.71 239.649 356.87C242.049 361.025 246.349 363.505 251.149 363.505H263.014L263.039 363.34C263.729 363.445 264.439 363.5 265.149 363.5H382.074C386.874 363.5 391.174 361.02 393.574 356.865C395.974 352.71 395.974 347.74 393.574 343.575L373.319 308.495H383.314C383.744 308.49 403.839 308.08 415.839 295.7C422.039 289.3 425.069 280.76 424.844 270.315C424.504 254.64 418.319 243.56 406.469 237.39C397.529 232.735 388.514 232.72 388.429 232.73L386.869 232.74L386.924 231.18C386.934 230.9 387.699 202.975 369.459 184.08C358.229 172.445 342.159 166.55 321.694 166.55C301.229 166.55 285.939 172.42 274.584 183.99C255.084 203.86 255.429 234.16 255.434 234.465L255.489 237.27L253.124 235.755C253.039 235.7 244.474 230.26 233.469 227.965C230.154 227.275 226.984 226.93 223.964 226.93Z" fill="#C5C6CF"/>
<path opacity="0.75" d="M504.8 108.46H119.2C112.15 108.46 106.39 113.96 105.98 120.91C105.965 121.17 105.955 121.435 105.955 121.7V144.115H518.045V121.7C518.045 114.385 512.115 108.46 504.8 108.46ZM128.59 131.805C125.795 131.805 123.53 129.54 123.53 126.745C123.53 123.95 125.795 121.685 128.59 121.685C131.385 121.685 133.65 123.95 133.65 126.745C133.65 129.54 131.385 131.805 128.59 131.805ZM147.445 131.805C144.65 131.805 142.385 129.54 142.385 126.745C142.385 123.95 144.65 121.685 147.445 121.685C150.24 121.685 152.505 123.95 152.505 126.745C152.505 129.54 150.24 131.805 147.445 131.805ZM166.3 131.805C163.51 131.805 161.245 129.54 161.245 126.745C161.245 123.95 163.51 121.685 166.3 121.685C169.09 121.685 171.36 123.95 171.36 126.745C171.36 129.54 169.095 131.805 166.3 131.805ZM493.565 130.325C492.65 131.24 491.38 131.805 489.985 131.805H362.74C359.945 131.805 357.68 129.54 357.68 126.745C357.68 125.35 358.245 124.08 359.16 123.165C360.08 122.25 361.34 121.685 362.74 121.685H489.985C492.78 121.685 495.045 123.95 495.045 126.745C495.045 128.14 494.48 129.41 493.565 130.325Z" fill="#C5C6CF"/>
<path d="M519.545 145.615H104.455V121.7C104.455 121.405 104.465 121.11 104.48 120.825C104.94 113.05 111.405 106.96 119.195 106.96H504.795C512.925 106.96 519.54 113.57 519.54 121.7V145.615H519.545ZM107.455 142.615H516.545V121.7C516.545 115.225 511.275 109.96 504.8 109.96H119.2C112.99 109.96 107.845 114.81 107.48 121C107.465 121.23 107.46 121.465 107.46 121.7V142.615H107.455Z" fill="#C5C6CF"/>
<path d="M128.589 133.305C124.974 133.305 122.029 130.36 122.029 126.745C122.029 123.13 124.974 120.185 128.589 120.185C132.204 120.185 135.149 123.13 135.149 126.745C135.149 130.36 132.204 133.305 128.589 133.305ZM128.589 123.185C126.624 123.185 125.029 124.78 125.029 126.745C125.029 128.71 126.624 130.305 128.589 130.305C130.554 130.305 132.149 128.71 132.149 126.745C132.149 124.78 130.554 123.185 128.589 123.185Z" fill="#C5C6CF"/>
<path d="M147.445 133.305C143.83 133.305 140.885 130.36 140.885 126.745C140.885 123.13 143.83 120.185 147.445 120.185C151.06 120.185 154.005 123.13 154.005 126.745C154.005 130.36 151.06 133.305 147.445 133.305ZM147.445 123.185C145.48 123.185 143.885 124.78 143.885 126.745C143.885 128.71 145.48 130.305 147.445 130.305C149.41 130.305 151.005 128.71 151.005 126.745C151.005 124.78 149.41 123.185 147.445 123.185Z" fill="#C5C6CF"/>
<path d="M166.301 133.305C162.686 133.305 159.746 130.36 159.746 126.745C159.746 123.13 162.686 120.185 166.301 120.185C169.916 120.185 172.861 123.13 172.861 126.745C172.861 130.36 169.916 133.305 166.301 133.305ZM166.301 123.185C164.341 123.185 162.746 124.78 162.746 126.745C162.746 128.71 164.341 130.305 166.301 130.305C168.261 130.305 169.861 128.71 169.861 126.745C169.861 124.78 168.266 123.185 166.301 123.185Z" fill="#C5C6CF"/>
<path d="M489.985 133.305H362.74C359.125 133.305 356.18 130.36 356.18 126.745C356.18 124.99 356.86 123.34 358.1 122.105C359.345 120.865 360.99 120.185 362.74 120.185H489.985C493.6 120.185 496.545 123.13 496.545 126.745C496.545 128.5 495.865 130.15 494.625 131.385C493.385 132.62 491.74 133.305 489.985 133.305ZM362.74 123.185C361.79 123.185 360.895 123.555 360.22 124.23C359.55 124.9 359.18 125.795 359.18 126.745C359.18 128.71 360.775 130.305 362.74 130.305H489.985C490.94 130.305 491.835 129.935 492.505 129.265C493.175 128.595 493.545 127.7 493.545 126.745C493.545 124.78 491.95 123.185 489.985 123.185H362.74Z" fill="#C5C6CF"/>
<g opacity="0.5">
<path d="M133.649 126.745C133.649 129.54 131.384 131.805 128.589 131.805C125.794 131.805 123.529 129.54 123.529 126.745C123.529 123.95 125.794 121.685 128.589 121.685C131.384 121.685 133.649 123.95 133.649 126.745Z" fill="#C5C6CF"/>
<path d="M128.589 132.055C125.659 132.055 123.279 129.675 123.279 126.745C123.279 123.815 125.659 121.435 128.589 121.435C131.519 121.435 133.899 123.815 133.899 126.745C133.899 129.675 131.519 132.055 128.589 132.055ZM128.589 121.935C125.939 121.935 123.779 124.095 123.779 126.745C123.779 129.395 125.939 131.555 128.589 131.555C131.239 131.555 133.399 129.395 133.399 126.745C133.399 124.095 131.239 121.935 128.589 121.935Z" fill="#C5C6CF"/>
<path d="M152.505 126.745C152.505 129.54 150.24 131.805 147.445 131.805C144.65 131.805 142.385 129.54 142.385 126.745C142.385 123.95 144.65 121.685 147.445 121.685C150.24 121.685 152.505 123.95 152.505 126.745Z" fill="#C5C6CF"/>
<path d="M147.445 132.055C144.515 132.055 142.135 129.675 142.135 126.745C142.135 123.815 144.515 121.435 147.445 121.435C150.375 121.435 152.755 123.815 152.755 126.745C152.755 129.675 150.375 132.055 147.445 132.055ZM147.445 121.935C144.795 121.935 142.635 124.095 142.635 126.745C142.635 129.395 144.795 131.555 147.445 131.555C150.095 131.555 152.255 129.395 152.255 126.745C152.255 124.095 150.095 121.935 147.445 121.935Z" fill="#C5C6CF"/>
<path d="M171.359 126.745C171.359 129.54 169.094 131.805 166.299 131.805C163.504 131.805 161.244 129.54 161.244 126.745C161.244 123.95 163.509 121.685 166.299 121.685C169.089 121.685 171.359 123.95 171.359 126.745Z" fill="#C5C6CF"/>
<path d="M166.299 132.055C163.374 132.055 160.994 129.675 160.994 126.745C160.994 123.815 163.374 121.435 166.299 121.435C169.224 121.435 171.609 123.815 171.609 126.745C171.609 129.675 169.229 132.055 166.299 132.055ZM166.299 121.935C163.649 121.935 161.494 124.095 161.494 126.745C161.494 129.395 163.649 131.555 166.299 131.555C168.949 131.555 171.109 129.395 171.109 126.745C171.109 124.095 168.949 121.935 166.299 121.935Z" fill="#C5C6CF"/>
</g>
<g opacity="0.25">
<path d="M383.329 310.005H375.924L336.414 241.58C333.574 236.65 328.594 234.185 323.619 234.185H309.614C304.634 234.185 299.659 236.65 296.814 241.58L257.304 310.005H223.089C190.469 310.005 175.939 263.215 197.564 237.685C219.189 212.16 253.934 234.495 253.934 234.495C253.934 234.495 252.559 165.05 321.694 165.05C390.829 165.05 388.424 231.235 388.424 231.235C388.424 231.235 425.494 230.955 426.349 270.29C427.199 309.625 383.329 310.005 383.329 310.005Z" fill="#C5C6CF"/>
<path d="M383.33 310.255H375.78L375.71 310.13L336.2 241.705C333.575 237.155 328.875 234.435 323.62 234.435H309.615C304.365 234.435 299.66 237.155 297.03 241.705L257.45 310.255H223.09C209.575 310.255 198.14 302.31 191.72 288.45C183.79 271.345 186.065 250.875 197.375 237.525C208.625 224.245 223.455 224.075 233.91 226.275C243.875 228.37 251.87 232.955 253.685 234.05C253.72 230.135 254.625 201.85 273.315 182.785C285.015 170.85 301.29 164.8 321.695 164.8C342.1 164.8 359.16 170.885 370.735 182.885C388.545 201.35 388.715 228.085 388.68 230.985C390.25 231.02 398.725 231.415 407.18 235.785C415.795 240.24 426.155 249.84 426.6 270.28C426.835 281.22 423.635 290.185 417.09 296.935C404.495 309.915 383.545 310.245 383.335 310.25L383.33 310.255ZM376.065 309.755H383.325C383.645 309.755 404.315 309.385 416.725 296.59C423.175 289.94 426.325 281.095 426.095 270.295C425.655 250.1 415.44 240.625 406.945 236.235C397.735 231.475 388.51 231.49 388.42 231.485H388.16L388.17 231.225C388.18 230.94 388.98 202.525 370.37 183.23C358.895 171.33 342.515 165.3 321.69 165.3C300.865 165.3 285.275 171.3 273.67 183.13C253.8 203.395 254.17 234.18 254.18 234.49L254.19 234.96L253.795 234.705C253.71 234.65 245.005 229.115 233.79 226.76C223.47 224.595 208.84 224.76 197.75 237.845C186.56 251.055 184.32 271.305 192.165 288.24C198.5 301.915 209.77 309.755 223.08 309.755H257.15L296.59 241.455C299.305 236.745 304.175 233.935 309.605 233.935H323.61C329.045 233.935 333.91 236.745 336.62 241.455L376.06 309.755H376.065Z" fill="#C5C6CF"/>
</g>
<g opacity="0.5">
<path d="M495.045 126.745C495.045 128.14 494.48 129.41 493.565 130.325C492.65 131.24 491.38 131.805 489.985 131.805H362.74C359.945 131.805 357.68 129.54 357.68 126.745C357.68 125.35 358.245 124.08 359.16 123.165C360.08 122.25 361.34 121.685 362.74 121.685H489.985C492.78 121.685 495.045 123.95 495.045 126.745Z" fill="#C5C6CF"/>
<path d="M489.985 132.055H362.74C359.81 132.055 357.43 129.675 357.43 126.745C357.43 125.325 357.98 123.99 358.985 122.99C359.99 121.99 361.325 121.435 362.74 121.435H489.985C492.915 121.435 495.295 123.815 495.295 126.745C495.295 128.165 494.745 129.5 493.74 130.5C492.735 131.5 491.405 132.055 489.985 132.055ZM362.74 121.935C361.46 121.935 360.25 122.435 359.335 123.34C358.43 124.245 357.93 125.455 357.93 126.745C357.93 129.395 360.09 131.555 362.74 131.555H489.985C491.275 131.555 492.48 131.055 493.39 130.15C494.3 129.245 494.795 128.035 494.795 126.745C494.795 124.095 492.635 121.935 489.985 121.935H362.74Z" fill="#C5C6CF"/>
</g>
<path d="M187.314 166.55H123.529C122.699 166.55 122.029 165.88 122.029 165.05C122.029 164.22 122.699 163.55 123.529 163.55H187.314C188.144 163.55 188.814 164.22 188.814 165.05C188.814 165.88 188.144 166.55 187.314 166.55Z" fill="#C5C6CF"/>
<path d="M187.314 166.8H123.529C122.564 166.8 121.779 166.015 121.779 165.05C121.779 164.085 122.564 163.3 123.529 163.3H187.314C188.279 163.3 189.064 164.085 189.064 165.05C189.064 166.015 188.279 166.8 187.314 166.8ZM123.529 163.8C122.839 163.8 122.279 164.36 122.279 165.05C122.279 165.74 122.839 166.3 123.529 166.3H187.314C188.004 166.3 188.564 165.74 188.564 165.05C188.564 164.36 188.004 163.8 187.314 163.8H123.529Z" fill="#C5C6CF"/>
<path d="M221.349 184.085H123.529C122.699 184.085 122.029 183.415 122.029 182.585C122.029 181.755 122.699 181.085 123.529 181.085H221.349C222.179 181.085 222.849 181.755 222.849 182.585C222.849 183.415 222.179 184.085 221.349 184.085Z" fill="#C5C6CF"/>
<path d="M221.349 184.335H123.529C122.564 184.335 121.779 183.55 121.779 182.585C121.779 181.62 122.564 180.835 123.529 180.835H221.349C222.314 180.835 223.099 181.62 223.099 182.585C223.099 183.55 222.314 184.335 221.349 184.335ZM123.529 181.335C122.839 181.335 122.279 181.895 122.279 182.585C122.279 183.275 122.839 183.835 123.529 183.835H221.349C222.039 183.835 222.599 183.275 222.599 182.585C222.599 181.895 222.039 181.335 221.349 181.335H123.529Z" fill="#C5C6CF"/>
<path d="M490.46 330.685H420.225C419.395 330.685 418.725 330.015 418.725 329.185C418.725 328.355 419.395 327.685 420.225 327.685H490.46C491.29 327.685 491.96 328.355 491.96 329.185C491.96 330.015 491.29 330.685 490.46 330.685Z" fill="#C5C6CF"/>
<path d="M490.46 330.935H420.225C419.26 330.935 418.475 330.15 418.475 329.185C418.475 328.22 419.26 327.435 420.225 327.435H490.46C491.425 327.435 492.21 328.22 492.21 329.185C492.21 330.15 491.425 330.935 490.46 330.935ZM420.225 327.935C419.535 327.935 418.975 328.495 418.975 329.185C418.975 329.875 419.535 330.435 420.225 330.435H490.46C491.15 330.435 491.71 329.875 491.71 329.185C491.71 328.495 491.15 327.935 490.46 327.935H420.225Z" fill="#C5C6CF"/>
<path d="M166.299 201.62H123.529C122.699 201.62 122.029 200.95 122.029 200.12C122.029 199.29 122.699 198.62 123.529 198.62H166.299C167.129 198.62 167.799 199.29 167.799 200.12C167.799 200.95 167.129 201.62 166.299 201.62Z" fill="#C5C6CF"/>
<path d="M166.299 201.87H123.529C122.564 201.87 121.779 201.085 121.779 200.12C121.779 199.155 122.564 198.37 123.529 198.37H166.299C167.264 198.37 168.049 199.155 168.049 200.12C168.049 201.085 167.264 201.87 166.299 201.87ZM123.529 198.87C122.839 198.87 122.279 199.43 122.279 200.12C122.279 200.81 122.839 201.37 123.529 201.37H166.299C166.989 201.37 167.549 200.81 167.549 200.12C167.549 199.43 166.989 198.87 166.299 198.87H123.529Z" fill="#C5C6CF"/>
<path d="M166.299 219.15H123.529C122.699 219.15 122.029 218.48 122.029 217.65C122.029 216.82 122.699 216.15 123.529 216.15H166.299C167.129 216.15 167.799 216.82 167.799 217.65C167.799 218.48 167.129 219.15 166.299 219.15Z" fill="#C5C6CF"/>
<path d="M166.299 219.4H123.529C122.564 219.4 121.779 218.615 121.779 217.65C121.779 216.685 122.564 215.9 123.529 215.9H166.299C167.264 215.9 168.049 216.685 168.049 217.65C168.049 218.615 167.264 219.4 166.299 219.4ZM123.529 216.4C122.839 216.4 122.279 216.96 122.279 217.65C122.279 218.34 122.839 218.9 123.529 218.9H166.299C166.989 218.9 167.549 218.34 167.549 217.65C167.549 216.96 166.989 216.4 166.299 216.4H123.529Z" fill="#C5C6CF"/>
<path d="M166.299 236.685H123.529C122.699 236.685 122.029 236.015 122.029 235.185C122.029 234.355 122.699 233.685 123.529 233.685H166.299C167.129 233.685 167.799 234.355 167.799 235.185C167.799 236.015 167.129 236.685 166.299 236.685Z" fill="#C5C6CF"/>
<path d="M166.299 236.935H123.529C122.564 236.935 121.779 236.15 121.779 235.185C121.779 234.22 122.564 233.435 123.529 233.435H166.299C167.264 233.435 168.049 234.22 168.049 235.185C168.049 236.15 167.264 236.935 166.299 236.935ZM123.529 233.935C122.839 233.935 122.279 234.495 122.279 235.185C122.279 235.875 122.839 236.435 123.529 236.435H166.299C166.989 236.435 167.549 235.875 167.549 235.185C167.549 234.495 166.989 233.935 166.299 233.935H123.529Z" fill="#C5C6CF"/>
<path d="M462.995 348.245H420.225C419.395 348.245 418.725 347.575 418.725 346.745C418.725 345.915 419.395 345.245 420.225 345.245H462.995C463.825 345.245 464.495 345.915 464.495 346.745C464.495 347.575 463.825 348.245 462.995 348.245Z" fill="#C5C6CF"/>
<path d="M462.995 348.495H420.225C419.26 348.495 418.475 347.71 418.475 346.745C418.475 345.78 419.26 344.995 420.225 344.995H462.995C463.96 344.995 464.745 345.78 464.745 346.745C464.745 347.71 463.96 348.495 462.995 348.495ZM420.225 345.495C419.535 345.495 418.975 346.055 418.975 346.745C418.975 347.435 419.535 347.995 420.225 347.995H462.995C463.685 347.995 464.245 347.435 464.245 346.745C464.245 346.055 463.685 345.495 462.995 345.495H420.225Z" fill="#C5C6CF"/>
<path d="M462.995 364.3H420.225C419.395 364.3 418.725 363.63 418.725 362.8C418.725 361.97 419.395 361.3 420.225 361.3H462.995C463.825 361.3 464.495 361.97 464.495 362.8C464.495 363.63 463.825 364.3 462.995 364.3Z" fill="#C5C6CF"/>
<path d="M462.995 364.55H420.225C419.26 364.55 418.475 363.765 418.475 362.8C418.475 361.835 419.26 361.05 420.225 361.05H462.995C463.96 361.05 464.745 361.835 464.745 362.8C464.745 363.765 463.96 364.55 462.995 364.55ZM420.225 361.55C419.535 361.55 418.975 362.11 418.975 362.8C418.975 363.49 419.535 364.05 420.225 364.05H462.995C463.685 364.05 464.245 363.49 464.245 362.8C464.245 362.11 463.685 361.55 462.995 361.55H420.225Z" fill="#C5C6CF"/>
<path d="M251.02 362.8H264.9C253.625 362.8 246.575 350.595 252.21 340.82L310.16 240.455C312.98 235.565 317.915 233.125 322.85 233.125H308.97C304.035 233.125 299.1 235.565 296.28 240.455L238.33 340.82C232.69 350.59 239.745 362.8 251.02 362.8Z" fill="#C5C6CF"/>
<path d="M264.9 363.05H251.02C245.635 363.05 240.81 360.265 238.115 355.6C235.42 350.935 235.42 345.365 238.115 340.695L296.065 240.33C298.755 235.66 303.58 232.875 308.97 232.875H322.85V233.375C317.64 233.375 312.98 236.07 310.38 240.58L252.43 340.945C249.825 345.455 249.83 350.84 252.43 355.35C255.035 359.86 259.695 362.55 264.9 362.55V363.05ZM308.97 233.375C303.76 233.375 299.1 236.07 296.5 240.58L238.55 340.945C235.945 345.455 235.95 350.84 238.55 355.35C241.155 359.86 245.815 362.55 251.02 362.55H261.02C257.25 361.555 254.02 359.11 251.995 355.6C249.3 350.935 249.3 345.36 251.995 340.695L309.945 240.33C311.97 236.82 315.2 234.37 318.97 233.375H308.97Z" fill="#C5C6CF"/>
<path d="M264.901 364.3H251.021C245.186 364.3 239.956 361.28 237.036 356.225C234.116 351.17 234.116 345.13 237.036 340.07L294.986 239.705C297.901 234.645 303.131 231.625 308.971 231.625H322.851V234.625C318.096 234.625 313.836 237.085 311.461 241.205L253.511 341.57C251.136 345.69 251.136 350.605 253.511 354.725C255.886 358.84 260.146 361.3 264.896 361.3V364.3H264.901ZM308.971 234.625C304.216 234.625 299.956 237.085 297.581 241.205L239.631 341.57C237.256 345.69 237.256 350.61 239.631 354.725C242.006 358.84 246.266 361.3 251.016 361.3H255.481C253.656 359.985 252.096 358.275 250.911 356.225C247.991 351.17 247.991 345.13 250.911 340.07L308.861 239.705C310.041 237.655 311.606 235.94 313.431 234.625H308.966H308.971Z" fill="#C5C6CF"/>
<path d="M265.149 364.55H251.019C245.089 364.55 239.784 361.485 236.819 356.35C233.854 351.215 233.854 345.08 236.819 339.945L294.769 239.58C297.729 234.44 303.039 231.375 308.974 231.375H323.104V234.875H322.854C318.189 234.875 314.009 237.29 311.679 241.33L253.729 341.695C251.399 345.735 251.399 350.56 253.729 354.6C256.064 358.64 260.239 361.05 264.899 361.05H265.149V364.55ZM308.969 231.875C303.219 231.875 298.069 234.85 295.199 239.83L237.249 340.195C234.374 345.175 234.379 351.12 237.249 356.1C240.124 361.075 245.269 364.05 251.019 364.05H264.649V361.55C259.909 361.465 255.674 358.975 253.294 354.855C250.869 350.66 250.869 345.645 253.294 341.45L311.244 241.085C313.624 236.96 317.854 234.465 322.599 234.38V231.88H308.969V231.875ZM256.259 361.55H251.019C246.174 361.55 241.839 359.045 239.414 354.85C236.989 350.655 236.989 345.645 239.414 341.445L297.364 241.08C299.784 236.88 304.124 234.375 308.969 234.375H314.209L313.579 234.83C311.744 236.15 310.229 237.83 309.079 239.835L251.129 340.2C248.254 345.18 248.254 351.125 251.129 356.105C252.284 358.1 253.794 359.785 255.629 361.1L256.259 361.555V361.55ZM308.969 234.875C304.304 234.875 300.129 237.29 297.799 241.33L239.849 341.695C237.519 345.735 237.519 350.56 239.849 354.6C242.184 358.64 246.359 361.05 251.019 361.05H254.734C253.114 359.765 251.754 358.19 250.694 356.35C247.729 351.215 247.729 345.08 250.694 339.945L308.644 239.58C309.704 237.74 311.064 236.16 312.684 234.875H308.964H308.969Z" fill="#C5C6CF"/>
<g opacity="0.75">
<path d="M264.906 362.795H380.801C392.081 362.795 399.126 350.59 393.486 340.815L335.536 240.45C332.721 235.56 327.781 233.12 322.851 233.12C317.921 233.12 312.981 235.56 310.166 240.45L252.211 340.815C246.576 350.59 253.626 362.795 264.901 362.795H264.906ZM258.981 344.725L316.936 244.355C318.711 241.265 321.666 240.93 322.856 240.93C324.046 240.93 327.001 241.26 328.776 244.355L386.726 344.72C388.511 347.81 387.321 350.535 386.726 351.565C386.131 352.59 384.366 354.98 380.806 354.98H264.911C261.351 354.98 259.586 352.59 258.991 351.565C258.396 350.53 257.206 347.81 258.986 344.725H258.981Z" fill="#C5C6CF"/>
<path d="M380.8 363.045H264.905C259.52 363.045 254.695 360.26 252.005 355.6C249.31 350.935 249.305 345.36 251.995 340.69L309.95 240.325C312.64 235.66 317.465 232.87 322.85 232.87C328.235 232.87 333.065 235.655 335.755 240.325L393.705 340.69C396.4 345.36 396.4 350.935 393.705 355.6C391.01 360.26 386.19 363.045 380.805 363.045H380.8ZM322.85 233.375C317.64 233.375 312.98 236.07 310.38 240.58L252.425 340.945C249.825 345.46 249.825 350.845 252.435 355.355C255.04 359.86 259.7 362.55 264.905 362.55H380.8C386.005 362.55 390.665 359.86 393.27 355.355C395.875 350.845 395.875 345.46 393.27 340.945L335.32 240.58C332.72 236.07 328.06 233.375 322.85 233.375ZM380.8 355.235H264.905C261.215 355.235 259.385 352.76 258.77 351.695C258.155 350.625 256.925 347.8 258.765 344.605L316.72 244.235C318.56 241.03 321.625 240.685 322.855 240.685C324.085 240.685 327.15 241.03 328.995 244.235L386.945 344.6C388.79 347.8 387.56 350.63 386.945 351.695C386.33 352.76 384.495 355.235 380.81 355.235H380.8ZM259.195 344.855C257.485 347.825 258.63 350.455 259.2 351.445C259.775 352.435 261.475 354.735 264.905 354.735H380.8C384.23 354.735 385.93 352.435 386.505 351.445C387.075 350.455 388.22 347.825 386.505 344.85L328.555 244.485C326.845 241.51 323.995 241.185 322.85 241.185C321.705 241.185 318.855 241.505 317.145 244.485L259.19 344.855H259.195Z" fill="#C5C6CF"/>
</g>
<path d="M380.8 364.295H264.905C259.07 364.295 253.84 361.28 250.92 356.225C248 351.17 247.995 345.125 250.91 340.065L308.865 239.7C311.78 234.64 317.01 231.62 322.85 231.62C328.69 231.62 333.92 234.64 336.835 239.7L394.78 340.06C397.7 345.12 397.7 351.165 394.78 356.22C391.86 361.275 386.635 364.29 380.795 364.29L380.8 364.295ZM322.85 234.625C318.095 234.625 313.835 237.085 311.465 241.205L253.51 341.57C251.135 345.69 251.135 350.61 253.515 354.73C255.89 358.845 260.15 361.3 264.9 361.3H380.795C385.55 361.3 389.805 358.845 392.18 354.73C394.56 350.61 394.56 345.695 392.18 341.57L334.23 241.21C331.855 237.09 327.6 234.63 322.84 234.63L322.85 234.625ZM380.8 356.485H264.905C260.565 356.485 258.41 353.57 257.685 352.32C256.96 351.06 255.515 347.735 257.675 343.98L315.63 243.61C317.795 239.845 321.4 239.435 322.85 239.435C324.3 239.435 327.905 239.84 330.07 243.61L388.015 343.97C390.185 347.735 388.74 351.06 388.015 352.315C387.29 353.57 385.135 356.485 380.795 356.485H380.8ZM260.275 345.475C258.94 347.795 259.705 349.815 260.28 350.815C260.855 351.81 262.225 353.48 264.9 353.48H380.795C383.47 353.48 384.84 351.81 385.415 350.81C385.99 349.815 386.755 347.79 385.415 345.465L327.465 245.1C326.13 242.775 323.995 242.425 322.845 242.425C321.695 242.425 319.56 242.77 318.225 245.095L260.27 345.465L260.275 345.475Z" fill="#C5C6CF"/>
<path d="M380.8 364.545H264.905C258.98 364.545 253.67 361.48 250.705 356.35C247.74 351.215 247.735 345.08 250.695 339.94L308.65 239.575C311.61 234.44 316.92 231.37 322.85 231.37C328.78 231.37 334.095 234.435 337.055 239.575L395 339.935C397.965 345.075 397.965 351.21 395 356.345C392.035 361.475 386.73 364.54 380.8 364.54V364.545ZM322.85 231.875C317.1 231.875 311.95 234.85 309.08 239.83L251.125 340.195C248.255 345.18 248.255 351.125 251.135 356.105C254.01 361.08 259.155 364.05 264.905 364.05H380.8C386.545 364.05 391.695 361.08 394.57 356.105C397.445 351.125 397.445 345.18 394.57 340.195L336.625 239.835C333.755 234.855 328.605 231.88 322.855 231.88L322.85 231.875ZM380.8 361.545H264.905C260.06 361.545 255.725 359.04 253.3 354.85C250.875 350.655 250.87 345.64 253.29 341.44L311.245 241.075C313.665 236.88 318 234.37 322.85 234.37C327.7 234.37 332.035 236.875 334.455 241.075L392.4 341.435C394.825 345.635 394.825 350.65 392.4 354.845C389.98 359.04 385.64 361.54 380.795 361.54L380.8 361.545ZM322.85 234.875C318.185 234.875 314.01 237.285 311.68 241.33L253.725 341.695C251.395 345.74 251.4 350.565 253.73 354.605C256.065 358.64 260.24 361.05 264.9 361.05H380.795C385.46 361.05 389.635 358.64 391.965 354.605C394.3 350.565 394.3 345.74 391.965 341.695L334.02 241.335C331.69 237.295 327.515 234.88 322.85 234.88V234.875ZM380.8 356.735H264.905C260.435 356.735 258.215 353.735 257.47 352.445C256.725 351.15 255.235 347.725 257.46 343.855L315.415 243.485C317.645 239.605 321.36 239.185 322.85 239.185C324.34 239.185 328.055 239.605 330.29 243.485L388.235 343.845C390.47 347.72 388.98 351.145 388.235 352.44C387.485 353.73 385.265 356.735 380.8 356.735ZM322.85 239.685C321.445 239.685 317.95 240.08 315.85 243.735L257.895 344.105C255.795 347.75 257.2 350.98 257.9 352.195C258.605 353.41 260.695 356.235 264.9 356.235H380.795C385.005 356.235 387.095 353.405 387.8 352.19C388.5 350.97 389.905 347.745 387.8 344.095L329.855 243.735C327.755 240.08 324.255 239.685 322.85 239.685ZM380.8 353.735H264.905C262.1 353.735 260.67 351.985 260.07 350.945C259.465 349.9 258.665 347.78 260.065 345.355L318.02 244.985C319.42 242.55 321.65 242.19 322.855 242.19C324.06 242.19 326.295 242.555 327.695 244.99L385.64 345.35C387.045 347.785 386.245 349.9 385.64 350.945C385.035 351.99 383.605 353.74 380.8 353.74V353.735ZM260.49 345.6C259.215 347.81 259.95 349.74 260.495 350.695C261.045 351.645 262.345 353.235 264.9 353.235H380.795C383.35 353.235 384.65 351.64 385.2 350.69C385.75 349.74 386.475 347.81 385.2 345.595L327.25 245.23C325.975 243.015 323.94 242.68 322.845 242.68C321.75 242.68 319.715 243.01 318.44 245.225L260.485 345.595L260.49 345.6Z" fill="#C5C6CF"/>
<path opacity="0.25" d="M258.986 351.57C259.581 352.595 261.346 354.985 264.906 354.985H380.801C384.361 354.985 386.126 352.595 386.721 351.57C387.316 350.535 388.506 347.815 386.721 344.725L328.771 244.36C326.996 241.27 324.041 240.935 322.851 240.935C321.661 240.935 318.706 241.265 316.931 244.36L258.976 344.73C257.201 347.815 258.386 350.54 258.981 351.57H258.986ZM330.186 271.935L328.571 319.795H317.186L315.576 271.935H330.186ZM315.196 334.545C315.196 332.425 315.901 330.685 317.306 329.325C318.716 327.965 320.571 327.285 322.881 327.285C325.191 327.285 327.001 327.975 328.406 329.35C329.811 330.725 330.516 332.455 330.516 334.545C330.516 336.635 329.816 338.355 328.406 339.715C326.996 341.075 325.151 341.755 322.881 341.755C320.611 341.755 318.711 341.075 317.306 339.715C315.906 338.355 315.196 336.63 315.196 334.545Z" fill="#C5C6CF"/>
<g opacity="0.75">
<path d="M315.189 334.545C315.189 336.63 315.894 338.355 317.299 339.715C318.709 341.075 320.564 341.755 322.874 341.755C325.184 341.755 326.994 341.075 328.399 339.715C329.809 338.355 330.509 336.63 330.509 334.545C330.509 332.46 329.809 330.725 328.399 329.35C326.989 327.975 325.144 327.285 322.874 327.285C320.604 327.285 318.704 327.965 317.299 329.325C315.899 330.685 315.189 332.425 315.189 334.545Z" fill="#C5C6CF"/>
<path d="M322.874 342.005C320.509 342.005 318.574 341.295 317.124 339.895C315.674 338.49 314.939 336.69 314.939 334.545C314.939 332.4 315.674 330.55 317.124 329.145C318.574 327.745 320.509 327.035 322.874 327.035C325.239 327.035 327.124 327.755 328.574 329.17C330.024 330.585 330.759 332.395 330.759 334.545C330.759 336.695 330.024 338.495 328.574 339.895C327.124 341.295 325.204 342.005 322.874 342.005ZM322.874 327.535C320.644 327.535 318.829 328.2 317.469 329.505C316.119 330.81 315.439 332.505 315.439 334.545C315.439 336.585 316.124 338.23 317.474 339.535C318.829 340.84 320.649 341.505 322.879 341.505C325.109 341.505 326.874 340.84 328.234 339.535C329.584 338.235 330.264 336.555 330.264 334.545C330.264 332.535 329.599 330.865 328.229 329.53C326.874 328.205 325.074 327.535 322.879 327.535H322.874Z" fill="#C5C6CF"/>
<path d="M315.574 271.935L317.179 319.795H328.564L330.179 271.935H315.574Z" fill="#C5C6CF"/>
<path d="M328.809 320.045H316.939L316.929 319.805L315.314 271.685H330.439L328.809 320.045ZM317.424 319.545H328.324L329.924 272.185H315.834L317.424 319.545Z" fill="#C5C6CF"/>
</g>
<g opacity="0.25">
<path d="M128.91 99.9951H193.91C204.215 99.9951 213.795 103.115 221.75 108.46H434.09C442.05 103.115 451.63 99.9951 461.935 99.9951H495.08C508.885 99.9951 521.385 94.3951 530.435 85.3501C539.485 76.3001 545.08 63.8051 545.08 49.9951C545.08 22.3851 522.695 -0.00488281 495.08 -0.00488281H128.91C115.1 -0.00488281 102.605 5.59512 93.5551 14.6401C84.5101 23.6901 78.9102 36.1851 78.9102 49.9951C78.9102 77.6051 101.295 99.9951 128.91 99.9951Z" fill="#C5C6CF"/>
<path d="M434.17 108.71H221.675L221.61 108.67C213.41 103.16 203.83 100.245 193.91 100.245H128.91C101.205 100.245 78.6602 77.705 78.6602 49.995C78.6602 36.58 83.8852 23.96 93.3752 14.465C102.88 4.975 115.495 -0.25 128.915 -0.25H495.09C522.795 -0.25 545.34 22.29 545.34 50C545.34 63.42 540.115 76.04 530.625 85.53C521.125 95.02 508.51 100.245 495.095 100.245H461.95C452.03 100.245 442.45 103.16 434.24 108.67L434.175 108.71H434.17ZM221.83 108.21H434.02C442.295 102.67 451.95 99.745 461.945 99.745H495.09C508.37 99.745 520.865 94.57 530.27 85.175C539.665 75.78 544.84 63.285 544.84 49.995C544.84 22.565 522.525 0.244999 495.09 0.244999H128.915C115.635 0.244999 103.14 5.42 93.7351 14.815C84.3401 24.215 79.1652 36.71 79.1652 49.995C79.1652 77.425 101.48 99.745 128.915 99.745H193.915C203.91 99.745 213.56 102.67 221.835 108.21H221.83Z" fill="#C5C6CF"/>
<path d="M88.541 220.505C82.491 228.775 78.916 238.97 78.916 249.995C78.916 261.02 82.491 271.225 88.541 279.495V220.505Z" fill="#C5C6CF"/>
<path d="M88.791 280.26L88.341 279.64C82.011 270.99 78.666 260.74 78.666 249.995C78.666 239.25 82.011 229.01 88.341 220.355L88.791 219.735V280.255V280.26ZM88.291 221.28C82.316 229.71 79.166 239.625 79.166 249.995C79.166 260.365 82.316 270.29 88.291 278.72V221.28Z" fill="#C5C6CF"/>
<path d="M502.645 400.565C501.8 401.29 500.86 401.915 499.845 402.41C498.005 407.51 493.12 411.155 487.385 411.155H101.785C100.5 411.155 99.2601 410.97 98.0851 410.63C96.4951 411.875 94.9851 413.215 93.5551 414.64C84.5101 423.69 78.9102 436.185 78.9102 449.995C78.9102 477.615 101.295 500 128.91 500H495.085C508.89 500 521.39 494.405 530.44 485.355C539.49 476.305 545.085 463.805 545.085 449.995C545.085 424.95 526.67 404.21 502.645 400.565Z" fill="#C5C6CF"/>
<path d="M495.086 500.25H128.916C101.211 500.25 78.666 477.705 78.666 449.995C78.666 436.58 83.891 423.96 93.381 414.465C94.806 413.04 96.341 411.685 97.931 410.435L98.031 410.355L98.156 410.39C99.336 410.735 100.556 410.905 101.786 410.905H487.386C492.846 410.905 497.761 407.455 499.611 402.325L499.646 402.23L499.736 402.185C500.716 401.705 501.641 401.095 502.481 400.375L502.566 400.3L502.681 400.315C514.441 402.1 525.231 408.055 533.061 417.09C540.976 426.215 545.331 437.9 545.331 449.995C545.331 463.42 540.106 476.045 530.616 485.535C521.126 495.025 508.506 500.25 495.086 500.25ZM98.141 410.905C96.601 412.12 95.116 413.435 93.736 414.82C84.341 424.225 79.166 436.715 79.166 450C79.166 477.435 101.481 499.755 128.916 499.755H495.091C508.381 499.755 520.871 494.58 530.271 485.185C539.666 475.79 544.841 463.295 544.841 450C544.841 425.65 526.741 404.535 502.726 400.835C501.901 401.53 501.001 402.125 500.051 402.595C498.101 407.87 493.026 411.41 487.391 411.41H101.786C100.556 411.41 99.331 411.24 98.141 410.91V410.905Z" fill="#C5C6CF"/>
<path d="M518.045 205.57V294.425C522.64 292.045 526.815 288.98 530.44 285.355C539.49 276.305 545.085 263.805 545.085 249.995C545.085 230.66 534.105 213.89 518.045 205.57Z" fill="#C5C6CF"/>
<path d="M517.795 294.835V205.16L518.16 205.35C534.925 214.03 545.335 231.14 545.335 249.995C545.335 263.42 540.11 276.045 530.62 285.535C526.95 289.2 522.76 292.265 518.16 294.65L517.795 294.84V294.835ZM518.295 205.985V294.01C522.705 291.68 526.73 288.71 530.265 285.18C539.66 275.785 544.835 263.29 544.835 249.995C544.835 231.46 534.675 214.635 518.295 205.985Z" fill="#C5C6CF"/>
</g>
</g>
<path d="M16.5085 580.517C14.0464 580.517 11.8428 580.055 9.89773 579.132C7.95265 578.196 6.40767 576.916 5.26278 575.291C4.13021 573.666 3.52699 571.807 3.45312 569.714H10.1009C10.224 571.266 10.8949 572.534 12.1136 573.518C13.3324 574.491 14.7973 574.977 16.5085 574.977C17.8504 574.977 19.0445 574.67 20.0909 574.054C21.1373 573.438 21.9621 572.583 22.5653 571.487C23.1686 570.392 23.464 569.142 23.4517 567.739C23.464 566.311 23.1624 565.043 22.5469 563.935C21.9313 562.827 21.0881 561.959 20.017 561.331C18.946 560.691 17.715 560.371 16.3239 560.371C15.1913 560.358 14.0772 560.568 12.9815 560.999C11.8859 561.429 11.018 561.996 10.3778 562.697L4.19176 561.682L6.16761 542.182H28.1051V547.906H11.8366L10.7472 557.933H10.9688C11.6705 557.108 12.6615 556.425 13.9418 555.884C15.2221 555.33 16.6255 555.053 18.152 555.053C20.4418 555.053 22.4853 555.594 24.2827 556.678C26.08 557.749 27.4957 559.226 28.5298 561.109C29.5639 562.993 30.081 565.147 30.081 567.572C30.081 570.071 29.5024 572.3 28.3452 574.257C27.2003 576.202 25.6061 577.735 23.5625 578.855C21.5312 579.963 19.1799 580.517 16.5085 580.517ZM50.2457 580.72C47.205 580.72 44.5952 579.951 42.4162 578.412C40.2495 576.861 38.5814 574.626 37.4119 571.709C36.2547 568.779 35.6761 565.252 35.6761 561.128C35.6884 557.004 36.2732 553.495 37.4304 550.602C38.5999 547.697 40.268 545.481 42.4347 543.955C44.6136 542.428 47.2173 541.665 50.2457 541.665C53.2741 541.665 55.8778 542.428 58.0568 543.955C60.2358 545.481 61.9039 547.697 63.0611 550.602C64.2306 553.508 64.8153 557.016 64.8153 561.128C64.8153 565.264 64.2306 568.797 63.0611 571.727C61.9039 574.645 60.2358 576.873 58.0568 578.412C55.8902 579.951 53.2865 580.72 50.2457 580.72ZM50.2457 574.94C52.6094 574.94 54.4744 573.777 55.8409 571.45C57.2197 569.111 57.9091 565.67 57.9091 561.128C57.9091 558.124 57.5952 555.6 56.9673 553.557C56.3395 551.513 55.4531 549.974 54.3082 548.94C53.1634 547.894 51.8092 547.371 50.2457 547.371C47.8944 547.371 46.0355 548.54 44.669 550.879C43.3026 553.206 42.6132 556.622 42.6009 561.128C42.5885 564.144 42.8902 566.68 43.5057 568.736C44.1335 570.792 45.0199 572.343 46.1648 573.389C47.3097 574.423 48.67 574.94 50.2457 574.94ZM84.9293 580.72C81.8886 580.72 79.2788 579.951 77.0998 578.412C74.9331 576.861 73.265 574.626 72.0955 571.709C70.9383 568.779 70.3597 565.252 70.3597 561.128C70.372 557.004 70.9568 553.495 72.114 550.602C73.2835 547.697 74.9516 545.481 77.1183 543.955C79.2972 542.428 81.9009 541.665 84.9293 541.665C87.9577 541.665 90.5614 542.428 92.7404 543.955C94.9194 545.481 96.5875 547.697 97.7447 550.602C98.9142 553.508 99.4989 557.016 99.4989 561.128C99.4989 565.264 98.9142 568.797 97.7447 571.727C96.5875 574.645 94.9194 576.873 92.7404 578.412C90.5737 579.951 87.9701 580.72 84.9293 580.72ZM84.9293 574.94C87.293 574.94 89.158 573.777 90.5245 571.45C91.9033 569.111 92.5927 565.67 92.5927 561.128C92.5927 558.124 92.2788 555.6 91.6509 553.557C91.0231 551.513 90.1367 549.974 88.9918 548.94C87.8469 547.894 86.4928 547.371 84.9293 547.371C82.578 547.371 80.7191 548.54 79.3526 550.879C77.9862 553.206 77.2968 556.622 77.2844 561.128C77.2721 564.144 77.5737 566.68 78.1893 568.736C78.8171 570.792 79.7035 572.343 80.8484 573.389C81.9933 574.423 83.3536 574.94 84.9293 574.94ZM125.753 542.182V580H118.902V542.182H125.753ZM139.561 563.381V580H132.876V551.636H139.265V556.456H139.598C140.25 554.868 141.29 553.606 142.718 552.67C144.159 551.735 145.938 551.267 148.055 551.267C150.012 551.267 151.717 551.686 153.17 552.523C154.635 553.36 155.768 554.572 156.568 556.161C157.38 557.749 157.78 559.675 157.768 561.94V580H151.083V562.974C151.083 561.079 150.591 559.595 149.606 558.524C148.634 557.453 147.286 556.918 145.562 556.918C144.393 556.918 143.352 557.176 142.441 557.693C141.543 558.198 140.835 558.93 140.318 559.891C139.813 560.851 139.561 562.014 139.561 563.381ZM178.727 551.636V556.807H162.422V551.636H178.727ZM166.447 544.841H173.132V571.469C173.132 572.367 173.267 573.057 173.538 573.537C173.821 574.005 174.19 574.325 174.646 574.497C175.101 574.67 175.606 574.756 176.16 574.756C176.579 574.756 176.96 574.725 177.305 574.663C177.662 574.602 177.933 574.546 178.118 574.497L179.244 579.723C178.887 579.846 178.376 579.982 177.711 580.129C177.059 580.277 176.259 580.363 175.311 580.388C173.636 580.437 172.128 580.185 170.787 579.631C169.445 579.064 168.38 578.19 167.592 577.009C166.816 575.827 166.435 574.349 166.447 572.577V544.841ZM196.57 580.554C193.726 580.554 191.27 579.963 189.202 578.781C187.146 577.587 185.564 575.901 184.456 573.722C183.348 571.53 182.794 568.951 182.794 565.984C182.794 563.067 183.348 560.506 184.456 558.303C185.576 556.087 187.14 554.363 189.146 553.132C191.153 551.889 193.51 551.267 196.219 551.267C197.967 551.267 199.616 551.55 201.168 552.116C202.731 552.67 204.11 553.532 205.304 554.702C206.51 555.871 207.458 557.361 208.148 559.17C208.837 560.968 209.182 563.11 209.182 565.597V567.646H185.933V563.141H202.774C202.762 561.86 202.485 560.722 201.943 559.724C201.402 558.715 200.644 557.921 199.672 557.342C198.712 556.764 197.591 556.474 196.311 556.474C194.945 556.474 193.744 556.807 192.71 557.472C191.676 558.124 190.87 558.986 190.291 560.057C189.725 561.116 189.436 562.279 189.423 563.547V567.48C189.423 569.13 189.725 570.545 190.328 571.727C190.931 572.897 191.775 573.795 192.858 574.423C193.941 575.039 195.209 575.347 196.662 575.347C197.634 575.347 198.515 575.211 199.303 574.94C200.09 574.657 200.774 574.245 201.352 573.703C201.931 573.161 202.368 572.491 202.663 571.69L208.905 572.392C208.511 574.042 207.76 575.482 206.652 576.713C205.556 577.932 204.153 578.88 202.442 579.557C200.731 580.222 198.773 580.554 196.57 580.554ZM214.837 580V551.636H221.319V556.364H221.614C222.131 554.726 223.017 553.464 224.273 552.578C225.541 551.679 226.988 551.23 228.613 551.23C228.982 551.23 229.394 551.249 229.85 551.286C230.318 551.31 230.705 551.353 231.013 551.415V557.564C230.73 557.465 230.281 557.379 229.665 557.305C229.062 557.219 228.477 557.176 227.911 557.176C226.692 557.176 225.596 557.441 224.624 557.97C223.664 558.487 222.907 559.207 222.353 560.131C221.799 561.054 221.522 562.119 221.522 563.325V580H214.837ZM242.139 563.381V580H235.454V551.636H241.843V556.456H242.176C242.828 554.868 243.868 553.606 245.297 552.67C246.737 551.735 248.516 551.267 250.633 551.267C252.591 551.267 254.296 551.686 255.748 552.523C257.213 553.36 258.346 554.572 259.146 556.161C259.958 557.749 260.359 559.675 260.346 561.94V580H253.662V562.974C253.662 561.079 253.169 559.595 252.184 558.524C251.212 557.453 249.864 556.918 248.14 556.918C246.971 556.918 245.931 557.176 245.02 557.693C244.121 558.198 243.413 558.93 242.896 559.891C242.391 560.851 242.139 562.014 242.139 563.381ZM275.304 580.572C273.506 580.572 271.887 580.252 270.447 579.612C269.019 578.96 267.886 578 267.049 576.732C266.225 575.464 265.812 573.9 265.812 572.041C265.812 570.441 266.108 569.117 266.699 568.071C267.289 567.025 268.096 566.188 269.118 565.56C270.139 564.932 271.29 564.458 272.571 564.138C273.863 563.805 275.199 563.565 276.578 563.418C278.24 563.245 279.588 563.091 280.622 562.956C281.656 562.808 282.407 562.587 282.875 562.291C283.355 561.983 283.595 561.509 283.595 560.869V560.759C283.595 559.367 283.182 558.29 282.358 557.527C281.533 556.764 280.345 556.382 278.794 556.382C277.156 556.382 275.858 556.739 274.897 557.453C273.949 558.167 273.309 559.01 272.977 559.983L266.735 559.097C267.228 557.373 268.04 555.933 269.173 554.776C270.306 553.606 271.69 552.732 273.328 552.153C274.965 551.562 276.775 551.267 278.757 551.267C280.123 551.267 281.484 551.427 282.838 551.747C284.192 552.067 285.429 552.597 286.549 553.335C287.67 554.062 288.568 555.053 289.245 556.308C289.935 557.564 290.279 559.134 290.279 561.017V580H283.853V576.104H283.632C283.225 576.892 282.653 577.63 281.914 578.32C281.188 578.997 280.271 579.545 279.163 579.963C278.067 580.369 276.781 580.572 275.304 580.572ZM277.039 575.661C278.381 575.661 279.545 575.396 280.529 574.866C281.514 574.325 282.271 573.611 282.801 572.724C283.342 571.838 283.613 570.872 283.613 569.825V566.483C283.404 566.655 283.047 566.815 282.542 566.963C282.05 567.111 281.496 567.24 280.88 567.351C280.265 567.462 279.655 567.56 279.052 567.646C278.449 567.732 277.926 567.806 277.483 567.868C276.485 568.003 275.593 568.225 274.805 568.533C274.017 568.84 273.395 569.271 272.94 569.825C272.484 570.367 272.257 571.069 272.257 571.93C272.257 573.161 272.706 574.091 273.605 574.719C274.503 575.347 275.648 575.661 277.039 575.661ZM303.686 542.182V580H297.001V542.182H303.686ZM344.306 552.578C344.134 550.965 343.407 549.71 342.127 548.811C340.859 547.912 339.21 547.463 337.178 547.463C335.75 547.463 334.525 547.679 333.504 548.109C332.482 548.54 331.7 549.125 331.158 549.864C330.617 550.602 330.34 551.446 330.327 552.393C330.327 553.181 330.506 553.865 330.863 554.443C331.232 555.022 331.731 555.514 332.359 555.92C332.987 556.314 333.682 556.647 334.445 556.918C335.209 557.188 335.978 557.416 336.754 557.601L340.299 558.487C341.727 558.82 343.1 559.269 344.417 559.835C345.746 560.402 346.934 561.116 347.981 561.977C349.04 562.839 349.877 563.879 350.492 565.098C351.108 566.317 351.415 567.745 351.415 569.382C351.415 571.598 350.849 573.549 349.717 575.236C348.584 576.91 346.947 578.221 344.805 579.169C342.675 580.105 340.096 580.572 337.067 580.572C334.125 580.572 331.571 580.117 329.404 579.206C327.25 578.295 325.563 576.965 324.344 575.217C323.138 573.469 322.486 571.339 322.387 568.828H329.127C329.226 570.145 329.632 571.241 330.346 572.115C331.06 572.989 331.989 573.642 333.134 574.072C334.291 574.503 335.584 574.719 337.012 574.719C338.502 574.719 339.807 574.497 340.927 574.054C342.059 573.598 342.946 572.971 343.586 572.17C344.226 571.358 344.552 570.41 344.565 569.327C344.552 568.342 344.263 567.529 343.697 566.889C343.13 566.237 342.336 565.695 341.315 565.264C340.305 564.821 339.123 564.427 337.769 564.082L333.467 562.974C330.352 562.174 327.89 560.962 326.08 559.337C324.283 557.699 323.384 555.527 323.384 552.818C323.384 550.59 323.987 548.639 325.194 546.964C326.413 545.29 328.068 543.991 330.161 543.068C332.254 542.133 334.624 541.665 337.271 541.665C339.954 541.665 342.306 542.133 344.325 543.068C346.356 543.991 347.95 545.278 349.107 546.928C350.264 548.565 350.862 550.448 350.898 552.578H344.306ZM369.784 580.554C366.941 580.554 364.485 579.963 362.417 578.781C360.361 577.587 358.779 575.901 357.671 573.722C356.563 571.53 356.009 568.951 356.009 565.984C356.009 563.067 356.563 560.506 357.671 558.303C358.791 556.087 360.355 554.363 362.361 553.132C364.368 551.889 366.725 551.267 369.434 551.267C371.182 551.267 372.831 551.55 374.382 552.116C375.946 552.67 377.325 553.532 378.519 554.702C379.725 555.871 380.673 557.361 381.363 559.17C382.052 560.968 382.397 563.11 382.397 565.597V567.646H359.148V563.141H375.989C375.977 561.86 375.7 560.722 375.158 559.724C374.616 558.715 373.859 557.921 372.887 557.342C371.926 556.764 370.806 556.474 369.526 556.474C368.159 556.474 366.959 556.807 365.925 557.472C364.891 558.124 364.085 558.986 363.506 560.057C362.94 561.116 362.65 562.279 362.638 563.547V567.48C362.638 569.13 362.94 570.545 363.543 571.727C364.146 572.897 364.989 573.795 366.073 574.423C367.156 575.039 368.424 575.347 369.877 575.347C370.849 575.347 371.73 575.211 372.517 574.94C373.305 574.657 373.989 574.245 374.567 573.703C375.146 573.161 375.583 572.491 375.878 571.69L382.12 572.392C381.726 574.042 380.975 575.482 379.867 576.713C378.771 577.932 377.368 578.88 375.657 579.557C373.945 580.222 371.988 580.554 369.784 580.554ZM388.052 580V551.636H394.533V556.364H394.829C395.346 554.726 396.232 553.464 397.488 552.578C398.756 551.679 400.202 551.23 401.827 551.23C402.197 551.23 402.609 551.249 403.065 551.286C403.532 551.31 403.92 551.353 404.228 551.415V557.564C403.945 557.465 403.496 557.379 402.88 557.305C402.277 557.219 401.692 557.176 401.126 557.176C399.907 557.176 398.811 557.441 397.839 557.97C396.879 558.487 396.121 559.207 395.567 560.131C395.013 561.054 394.737 562.119 394.737 563.325V580H388.052ZM434.868 551.636L424.767 580H417.38L407.279 551.636H414.407L420.926 572.706H421.221L427.758 551.636H434.868ZM451.085 580.554C448.241 580.554 445.786 579.963 443.717 578.781C441.661 577.587 440.08 575.901 438.972 573.722C437.864 571.53 437.31 568.951 437.31 565.984C437.31 563.067 437.864 560.506 438.972 558.303C440.092 556.087 441.655 554.363 443.662 553.132C445.669 551.889 448.026 551.267 450.734 551.267C452.482 551.267 454.132 551.55 455.683 552.116C457.247 552.67 458.625 553.532 459.82 554.702C461.026 555.871 461.974 557.361 462.663 559.17C463.353 560.968 463.697 563.11 463.697 565.597V567.646H440.449V563.141H457.29C457.277 561.86 457 560.722 456.459 559.724C455.917 558.715 455.16 557.921 454.188 557.342C453.227 556.764 452.107 556.474 450.827 556.474C449.46 556.474 448.26 556.807 447.226 557.472C446.192 558.124 445.385 558.986 444.807 560.057C444.241 561.116 443.951 562.279 443.939 563.547V567.48C443.939 569.13 444.241 570.545 444.844 571.727C445.447 572.897 446.29 573.795 447.374 574.423C448.457 575.039 449.725 575.347 451.178 575.347C452.15 575.347 453.03 575.211 453.818 574.94C454.606 574.657 455.289 574.245 455.868 573.703C456.446 573.161 456.884 572.491 457.179 571.69L463.42 572.392C463.027 574.042 462.276 575.482 461.168 576.713C460.072 577.932 458.669 578.88 456.957 579.557C455.246 580.222 453.289 580.554 451.085 580.554ZM469.353 580V551.636H475.834V556.364H476.13C476.647 554.726 477.533 553.464 478.789 552.578C480.057 551.679 481.503 551.23 483.128 551.23C483.498 551.23 483.91 551.249 484.365 551.286C484.833 551.31 485.221 551.353 485.529 551.415V557.564C485.246 557.465 484.796 557.379 484.181 557.305C483.578 557.219 482.993 557.176 482.426 557.176C481.208 557.176 480.112 557.441 479.14 557.97C478.179 558.487 477.422 559.207 476.868 560.131C476.314 561.054 476.037 562.119 476.037 563.325V580H469.353ZM503.164 580V542.182H527.76V547.925H510.015V558.192H526.486V563.935H510.015V574.257H527.908V580H503.164ZM534.454 580V551.636H540.936V556.364H541.231C541.748 554.726 542.635 553.464 543.89 552.578C545.158 551.679 546.605 551.23 548.23 551.23C548.599 551.23 549.011 551.249 549.467 551.286C549.935 551.31 550.323 551.353 550.63 551.415V557.564C550.347 557.465 549.898 557.379 549.282 557.305C548.679 557.219 548.094 557.176 547.528 557.176C546.309 557.176 545.214 557.441 544.241 557.97C543.281 558.487 542.524 559.207 541.97 560.131C541.416 561.054 541.139 562.119 541.139 563.325V580H534.454ZM555.071 580V551.636H561.553V556.364H561.848C562.365 554.726 563.252 553.464 564.507 552.578C565.775 551.679 567.222 551.23 568.847 551.23C569.216 551.23 569.629 551.249 570.084 551.286C570.552 551.31 570.94 551.353 571.248 551.415V557.564C570.964 557.465 570.515 557.379 569.9 557.305C569.296 557.219 568.712 557.176 568.145 557.176C566.926 557.176 565.831 557.441 564.858 557.97C563.898 558.487 563.141 559.207 562.587 560.131C562.033 561.054 561.756 562.119 561.756 563.325V580H555.071ZM586.893 580.554C584.123 580.554 581.722 579.945 579.691 578.726C577.66 577.507 576.084 575.802 574.964 573.611C573.856 571.42 573.302 568.859 573.302 565.929C573.302 562.999 573.856 560.432 574.964 558.229C576.084 556.025 577.66 554.314 579.691 553.095C581.722 551.876 584.123 551.267 586.893 551.267C589.663 551.267 592.063 551.876 594.094 553.095C596.126 554.314 597.695 556.025 598.803 558.229C599.924 560.432 600.484 562.999 600.484 565.929C600.484 568.859 599.924 571.42 598.803 573.611C597.695 575.802 596.126 577.507 594.094 578.726C592.063 579.945 589.663 580.554 586.893 580.554ZM586.93 575.199C588.432 575.199 589.687 574.786 590.697 573.962C591.706 573.125 592.457 572.004 592.95 570.601C593.454 569.197 593.707 567.634 593.707 565.911C593.707 564.175 593.454 562.605 592.95 561.202C592.457 559.786 591.706 558.66 590.697 557.822C589.687 556.985 588.432 556.567 586.93 556.567C585.391 556.567 584.111 556.985 583.089 557.822C582.079 558.66 581.322 559.786 580.817 561.202C580.325 562.605 580.079 564.175 580.079 565.911C580.079 567.634 580.325 569.197 580.817 570.601C581.322 572.004 582.079 573.125 583.089 573.962C584.111 574.786 585.391 575.199 586.93 575.199ZM606.157 580V551.636H612.639V556.364H612.934C613.451 554.726 614.338 553.464 615.593 552.578C616.861 551.679 618.308 551.23 619.933 551.23C620.302 551.23 620.715 551.249 621.17 551.286C621.638 551.31 622.026 551.353 622.333 551.415V557.564C622.05 557.465 621.601 557.379 620.985 557.305C620.382 557.219 619.797 557.176 619.231 557.176C618.012 557.176 616.917 557.441 615.944 557.97C614.984 558.487 614.227 559.207 613.673 560.131C613.119 561.054 612.842 562.119 612.842 563.325V580H606.157Z" fill="#6C6C6C"/>
</svg>
