<svg width="61" height="60" viewBox="0 0 61 60" fill="none" xmlns="http://www.w3.org/2000/svg">
<g id="Capa_1">
<g id="Group">
<g id="Group_2">
<path id="Vector" d="M59.6602 19.7957L56.3957 6.73061C55.9953 5.12543 54.5525 4 52.8968 4H8.82111C7.16543 4 5.72257 5.12543 5.31857 6.73061L2.05411 19.7957C2.01804 19.9364 2 20.0842 2 20.2321C2 25.2028 5.84161 29.25 10.567 29.25C13.312 29.25 15.7613 27.8829 17.3304 25.7619C18.8995 27.8829 21.3487 29.25 24.0938 29.25C26.8388 29.25 29.288 27.8829 30.8571 25.7619C32.4263 27.8829 34.8719 29.25 37.6205 29.25C40.3692 29.25 42.8148 27.8829 44.3839 25.7619C45.953 27.8829 48.3987 29.25 51.1473 29.25C55.8727 29.25 59.7143 25.2028 59.7143 20.2321C59.7143 20.0842 59.6963 19.9364 59.6602 19.7957Z" fill="url(#paint0_linear_8425_44512)"/>
</g>
</g>
<g id="Group_3">
<g id="Group_4">
<path id="Vector_2" d="M51.1774 33.9107C48.727 33.9107 46.399 33.1622 44.4307 31.7949C40.4943 34.5332 34.8739 34.5332 30.9375 31.7949C27.001 34.5332 21.3806 34.5332 17.4442 31.7949C15.476 33.1622 13.1479 33.9107 10.6975 33.9107C8.93082 33.9107 7.26485 33.4969 5.75 32.7916V51.9017C5.75 53.8879 7.362 55.4999 9.34821 55.4999H23.741V41.1071H38.1339V55.4999H52.5267C54.5129 55.4999 56.1249 53.8879 56.1249 51.9017V32.7916C54.6101 33.4969 52.9441 33.9107 51.1774 33.9107Z" fill="url(#paint1_linear_8425_44512)"/>
</g>
</g>
</g>
<defs>
<linearGradient id="paint0_linear_8425_44512" x1="30.8609" y1="29.2466" x2="30.8609" y2="3.989" gradientUnits="userSpaceOnUse">
<stop stop-color="#9B9B9B"/>
<stop offset="1" stop-color="#DDDDDD"/>
</linearGradient>
<linearGradient id="paint1_linear_8425_44512" x1="30.9407" y1="55.4968" x2="30.9407" y2="31.7846" gradientUnits="userSpaceOnUse">
<stop stop-color="#9B9B9B"/>
<stop offset="1" stop-color="#DDDDDD"/>
</linearGradient>
</defs>
</svg>
