<svg width="60" height="60" viewBox="0 0 60 60" fill="none" xmlns="http://www.w3.org/2000/svg">
<g id="Layer_1" clip-path="url(#clip0_8425_44623)">
<g id="Group">
<path id="Vector" d="M44.0599 33.0408L42.2542 27.7743C42.1973 27.6091 42.1051 27.462 41.9885 27.3374C41.9073 28.5526 40.9263 29.5459 39.68 29.6098C39.372 29.6252 39.0685 29.6332 38.778 29.6332H38.7505C37.9219 29.633 37.1342 29.572 36.3866 29.4612C36.3829 29.6142 36.4066 29.7703 36.4639 29.9223C36.7017 30.5523 37.4052 30.8699 38.0358 30.6321V30.6316L40.3545 29.7552L45.8569 45.8022C46.8094 44.7611 48.013 43.97 49.3862 43.5044C50.2692 43.2051 51.1866 43.0526 52.1114 43.0526C55.0575 43.0526 57.7345 44.572 59.2678 46.9803C60.1801 46.9366 60.4138 46.4024 58.9478 44.4923C56.5842 41.4123 53.2963 40.8151 50.9839 40.8461C50.8388 40.4549 50.6888 40.0461 50.5324 39.6138C49.1155 35.6959 45.933 33.8299 44.0599 33.0408Z" fill="black"/>
<path id="Vector_2" d="M33.0034 8.87692C33.0034 8.89327 33.0039 8.9101 33.0053 8.92888C33.0678 10.109 33.3363 10.931 33.3402 11.7464C33.3412 12.167 33.26 12.5868 33.0312 13.0114C33.009 13.0529 32.9731 13.0885 32.9309 13.1109C32.2597 13.47 31.5384 13.5827 30.8047 13.5827C30.1636 13.5822 29.5092 13.4985 28.8486 13.4122C28.2322 13.3319 27.688 13.2051 27.2026 13.0324C27.9481 13.9969 29.0174 14.7206 30.2973 15.0184C33.2488 15.7058 36.198 13.8703 36.8861 10.919C37.1901 9.61333 36.9996 8.30809 36.4376 7.19873C35.455 7.31923 34.1325 7.56388 33.4651 8.07929C33.1605 8.31322 33.0061 8.55909 33.0034 8.87692Z" fill="black"/>
<path id="Vector_3" d="M24.2899 20.3676L24.2884 20.3641L24.2779 20.3417C24.0079 19.7487 23.9854 19.0857 24.214 18.4759C24.4425 17.8661 24.8955 17.3814 25.4882 17.1122C25.8083 16.966 26.1478 16.8926 26.4971 16.8926C27.4516 16.8926 28.3234 17.4536 28.7183 18.322L28.7302 18.3462C28.7483 18.383 28.7783 18.4423 28.8202 18.5206C28.9051 18.6806 29.0483 18.9355 29.2473 19.246C29.4801 19.6104 29.8172 20.0934 30.2552 20.6183C30.695 18.313 29.7681 15.7703 27.8338 15.2886C25.7514 14.7693 22.7329 15.9003 21.5047 19.4716C19.8448 24.3928 19.488 27.5957 20.1188 33.0145C20.7288 36.1538 22.5712 37.0404 24.4274 37.2556C24.4357 37.257 24.4435 37.2595 24.4518 37.2607L33.7016 38.6989L37.1666 47.4816C37.6395 48.6807 38.7882 49.4125 40.0036 49.4125C40.3759 49.4125 40.7547 49.3439 41.122 49.199C42.688 48.5809 43.4569 46.8101 42.8392 45.2441L38.733 34.8364C38.3364 33.8319 37.4317 33.1082 36.3653 32.9423L28.7014 31.7502C28.6617 29.9518 28.8598 28.0892 29.143 26.3147C28.5827 25.8741 28.0863 25.4256 27.6545 24.9941C25.5953 22.9439 24.5589 20.9347 24.2899 20.3676Z" fill="black"/>
<path id="Vector_4" d="M38.7507 29.1453H38.7783C39.0683 29.1453 39.3606 29.1372 39.6552 29.1223C40.7316 29.0672 41.5598 28.1508 41.5049 27.0746C41.45 25.9982 40.5328 25.1703 39.4571 25.2252C39.2237 25.2371 38.9976 25.2427 38.7783 25.2427C35.0397 25.2347 32.5 23.596 30.7486 21.8773C29.8841 21.0207 29.2472 20.1506 28.8372 19.5093C28.6321 19.1888 28.4835 18.9249 28.3901 18.7507C28.3438 18.6634 28.3106 18.5985 28.2918 18.559C28.2838 18.5429 28.2781 18.5309 28.2745 18.5241C27.8279 17.5431 26.6714 17.1096 25.6906 17.5562C24.7093 18.0021 24.2761 19.1588 24.7222 20.1399C24.7871 20.2743 25.7687 22.4283 28.0006 24.6488C30.2083 26.8565 33.8001 29.145 38.7507 29.1453Z" fill="black"/>
<path id="Vector_5" d="M18.0093 35.7912V20.6021C18.0093 19.8833 17.4266 19.3003 16.7078 19.3003H1.30157C0.582733 19.3005 0 19.8835 0 20.6024V35.7915C0 36.5105 0.582733 37.0933 1.30157 37.0933H16.7078C17.4266 37.0933 18.0093 36.5105 18.0093 35.7912Z" fill="black"/>
<path id="Vector_6" d="M22.8668 49.208C21.5779 45.4072 17.4524 43.3704 13.6511 44.6593C9.8503 45.948 7.81355 50.0742 9.10244 53.875C10.3911 57.6758 14.5168 59.7126 18.3181 58.4239C22.1189 57.135 24.1554 53.0088 22.8668 49.208ZM16.9063 54.2604C15.4047 54.7697 13.7743 53.9645 13.2655 52.4634C12.7566 50.9618 13.5614 49.3314 15.0625 48.8226C16.564 48.3133 18.1944 49.1185 18.7033 50.6196C19.2128 52.1212 18.4081 53.7511 16.9063 54.2604Z" fill="black"/>
<path id="Vector_7" d="M48.3373 32.6316C50.3913 32.6316 50.3913 25.1919 48.3373 25.1919C46.2829 25.1919 44.6174 26.8572 44.6174 28.9117C44.6174 30.9663 46.2829 32.6316 48.3373 32.6316Z" fill="black"/>
<path id="Vector_8" d="M43.719 50.2655H28.1667C26.8222 47.5529 26.3597 44.7836 26.2065 42.9822C26.6058 42.86 26.8981 42.4927 26.8981 42.0534V39.3702C26.8981 38.8314 26.4612 38.3945 25.9224 38.3945H6.04262C5.50379 38.3945 5.06692 38.8314 5.06692 39.3702V42.0534C5.06692 42.5922 5.50379 43.0291 6.04262 43.0291H6.15019C5.09058 45.6291 3.45532 50.136 3.45532 53.1926H7.66105C7.29516 51.3673 7.53665 49.4828 8.37428 47.7858C9.37802 45.7532 11.1128 44.2323 13.2593 43.505C14.1431 43.2049 15.0597 43.0535 15.9849 43.0535C19.6233 43.0535 22.8528 45.3693 24.0215 48.8171C24.5166 50.277 24.5874 51.7796 24.3047 53.1926H26.0182H30.043H43.788C43.5931 52.2211 43.5705 51.2334 43.719 50.2655Z" fill="black"/>
<path id="Vector_9" d="M49.7778 44.6592C45.977 45.9478 43.9403 50.0741 45.2291 53.8749C46.5178 57.6757 50.6435 59.7124 54.4448 58.4238C58.2456 57.1351 60.2824 53.0089 58.9935 49.2081C57.7048 45.4073 53.5791 43.3706 49.7778 44.6592ZM53.0332 54.2605C51.5316 54.7698 49.9013 53.9646 49.3924 52.4635C48.8836 50.9619 49.6883 49.3316 51.1894 48.8227C52.691 48.3134 54.3214 49.1186 54.8302 50.6197C55.3395 52.1213 54.5348 53.7512 53.0332 54.2605Z" fill="black"/>
<path id="Vector_10" d="M37.0451 6.64504C36.941 5.90425 36.7071 5.19882 36.3639 4.55486C35.4318 2.80618 33.701 1.51948 31.5869 1.24287C31.3081 1.20628 31.031 1.18896 30.7571 1.18896C30.7568 1.18896 30.7566 1.18896 30.7561 1.18896C27.6207 1.18896 24.8936 3.51575 24.477 6.71017C24.4409 6.988 24.4229 7.26412 24.4229 7.53658C24.4229 7.91369 24.4565 8.28469 24.5214 8.64741C24.7621 9.99899 25.169 10.9696 25.8432 11.6477C26.5169 12.3253 27.4821 12.7409 28.912 12.9287C29.5711 13.0151 30.2072 13.0953 30.8046 13.0946C31.4647 13.0946 32.0737 12.9983 32.6345 12.7156C32.7965 12.3892 32.8514 12.0867 32.8524 11.7467C32.8563 11.0491 32.5877 10.1951 32.5184 8.95695C32.5165 8.9306 32.516 8.90401 32.5155 8.87718C32.5135 8.37494 32.7921 7.9715 33.1714 7.69025C33.5524 7.40389 34.0439 7.20728 34.562 7.05898C35.4577 6.80432 36.4427 6.7009 37.0451 6.64504Z" fill="black"/>
</g>
<g id="Group_2">
<path id="Vector_11" d="M44.0599 33.0408L42.2542 27.7743C42.1973 27.6091 42.1051 27.462 41.9885 27.3374C41.9073 28.5526 40.9263 29.5459 39.68 29.6098C39.372 29.6252 39.0685 29.6332 38.778 29.6332H38.7505C37.9219 29.633 37.1342 29.572 36.3866 29.4612C36.3829 29.6142 36.4066 29.7703 36.4639 29.9223C36.7017 30.5523 37.4052 30.8699 38.0358 30.6321V30.6316L40.3545 29.7552L45.8569 45.8022C46.8094 44.7611 48.013 43.97 49.3862 43.5044C50.2692 43.2051 51.1866 43.0526 52.1114 43.0526C55.0575 43.0526 57.7345 44.572 59.2678 46.9803C60.1801 46.9366 60.4138 46.4024 58.9478 44.4923C56.5842 41.4123 53.2963 40.8151 50.9839 40.8461C50.8388 40.4549 50.6888 40.0461 50.5324 39.6138C49.1155 35.6959 45.933 33.8299 44.0599 33.0408Z" fill="url(#paint0_linear_8425_44623)"/>
<path id="Vector_12" d="M33.0034 8.87692C33.0034 8.89327 33.0039 8.9101 33.0053 8.92888C33.0678 10.109 33.3363 10.931 33.3402 11.7464C33.3412 12.167 33.26 12.5868 33.0312 13.0114C33.009 13.0529 32.9731 13.0885 32.9309 13.1109C32.2597 13.47 31.5384 13.5827 30.8047 13.5827C30.1636 13.5822 29.5092 13.4985 28.8486 13.4122C28.2322 13.3319 27.688 13.2051 27.2026 13.0324C27.9481 13.9969 29.0174 14.7206 30.2973 15.0184C33.2488 15.7058 36.198 13.8703 36.8861 10.919C37.1901 9.61333 36.9996 8.30809 36.4376 7.19873C35.455 7.31923 34.1325 7.56388 33.4651 8.07929C33.1605 8.31322 33.0061 8.55909 33.0034 8.87692Z" fill="url(#paint1_linear_8425_44623)"/>
<path id="Vector_13" d="M24.2899 20.3676L24.2884 20.3641L24.2779 20.3417C24.0079 19.7487 23.9854 19.0857 24.214 18.4759C24.4425 17.8661 24.8955 17.3814 25.4882 17.1122C25.8083 16.966 26.1478 16.8926 26.4971 16.8926C27.4516 16.8926 28.3234 17.4536 28.7183 18.322L28.7302 18.3462C28.7483 18.383 28.7783 18.4423 28.8202 18.5206C28.9051 18.6806 29.0483 18.9355 29.2473 19.246C29.4801 19.6104 29.8172 20.0934 30.2552 20.6183C30.695 18.313 29.7681 15.7703 27.8338 15.2886C25.7514 14.7693 22.7329 15.9003 21.5047 19.4716C19.8448 24.3928 19.488 27.5957 20.1188 33.0145C20.7288 36.1538 22.5712 37.0404 24.4274 37.2556C24.4357 37.257 24.4435 37.2595 24.4518 37.2607L33.7016 38.6989L37.1666 47.4816C37.6395 48.6807 38.7882 49.4125 40.0036 49.4125C40.3759 49.4125 40.7547 49.3439 41.122 49.199C42.688 48.5809 43.4569 46.8101 42.8392 45.2441L38.733 34.8364C38.3364 33.8319 37.4317 33.1082 36.3653 32.9423L28.7014 31.7502C28.6617 29.9518 28.8598 28.0892 29.143 26.3147C28.5827 25.8741 28.0863 25.4256 27.6545 24.9941C25.5953 22.9439 24.5589 20.9347 24.2899 20.3676Z" fill="url(#paint2_linear_8425_44623)"/>
<path id="Vector_14" d="M38.7507 29.1453H38.7783C39.0683 29.1453 39.3606 29.1372 39.6552 29.1223C40.7316 29.0672 41.5598 28.1508 41.5049 27.0746C41.45 25.9982 40.5328 25.1703 39.4571 25.2252C39.2237 25.2371 38.9976 25.2427 38.7783 25.2427C35.0397 25.2347 32.5 23.596 30.7486 21.8773C29.8841 21.0207 29.2472 20.1506 28.8372 19.5093C28.6321 19.1888 28.4835 18.9249 28.3901 18.7507C28.3438 18.6634 28.3106 18.5985 28.2918 18.559C28.2838 18.5429 28.2781 18.5309 28.2745 18.5241C27.8279 17.5431 26.6714 17.1096 25.6906 17.5562C24.7093 18.0021 24.2761 19.1588 24.7222 20.1399C24.7871 20.2743 25.7687 22.4283 28.0006 24.6488C30.2083 26.8565 33.8001 29.145 38.7507 29.1453Z" fill="url(#paint3_linear_8425_44623)"/>
<path id="Vector_15" d="M18.0093 35.7912V20.6021C18.0093 19.8833 17.4266 19.3003 16.7078 19.3003H1.30157C0.582733 19.3005 0 19.8835 0 20.6024V35.7915C0 36.5105 0.582733 37.0933 1.30157 37.0933H16.7078C17.4266 37.0933 18.0093 36.5105 18.0093 35.7912Z" fill="url(#paint4_linear_8425_44623)"/>
<path id="Vector_16" d="M22.8668 49.208C21.5779 45.4072 17.4524 43.3704 13.6511 44.6593C9.8503 45.948 7.81355 50.0742 9.10244 53.875C10.3911 57.6758 14.5168 59.7126 18.3181 58.4239C22.1189 57.135 24.1554 53.0088 22.8668 49.208ZM16.9063 54.2604C15.4047 54.7697 13.7743 53.9645 13.2655 52.4634C12.7566 50.9618 13.5614 49.3314 15.0625 48.8226C16.564 48.3133 18.1944 49.1185 18.7033 50.6196C19.2128 52.1212 18.4081 53.7511 16.9063 54.2604Z" fill="url(#paint5_linear_8425_44623)"/>
<path id="Vector_17" d="M48.3373 32.6316C50.3913 32.6316 50.3913 25.1919 48.3373 25.1919C46.2829 25.1919 44.6174 26.8572 44.6174 28.9117C44.6174 30.9663 46.2829 32.6316 48.3373 32.6316Z" fill="url(#paint6_linear_8425_44623)"/>
<path id="Vector_18" d="M43.719 50.2655H28.1667C26.8222 47.5529 26.3597 44.7836 26.2065 42.9822C26.6058 42.86 26.8981 42.4927 26.8981 42.0534V39.3702C26.8981 38.8314 26.4612 38.3945 25.9224 38.3945H6.04262C5.50379 38.3945 5.06692 38.8314 5.06692 39.3702V42.0534C5.06692 42.5922 5.50379 43.0291 6.04262 43.0291H6.15019C5.09058 45.6291 3.45532 50.136 3.45532 53.1926H7.66105C7.29516 51.3673 7.53665 49.4828 8.37428 47.7858C9.37802 45.7532 11.1128 44.2323 13.2593 43.505C14.1431 43.2049 15.0597 43.0535 15.9849 43.0535C19.6233 43.0535 22.8528 45.3693 24.0215 48.8171C24.5166 50.277 24.5874 51.7796 24.3047 53.1926H26.0182H30.043H43.788C43.5931 52.2211 43.5705 51.2334 43.719 50.2655Z" fill="url(#paint7_linear_8425_44623)"/>
<path id="Vector_19" d="M49.7778 44.6592C45.977 45.9478 43.9403 50.0741 45.2291 53.8749C46.5178 57.6757 50.6435 59.7124 54.4448 58.4238C58.2456 57.1351 60.2824 53.0089 58.9935 49.2081C57.7048 45.4073 53.5791 43.3706 49.7778 44.6592ZM53.0332 54.2605C51.5316 54.7698 49.9013 53.9646 49.3924 52.4635C48.8836 50.9619 49.6883 49.3316 51.1894 48.8227C52.691 48.3134 54.3214 49.1186 54.8302 50.6197C55.3395 52.1213 54.5348 53.7512 53.0332 54.2605Z" fill="url(#paint8_linear_8425_44623)"/>
<path id="Vector_20" d="M37.0451 6.64504C36.941 5.90425 36.7071 5.19882 36.3639 4.55486C35.4318 2.80618 33.701 1.51948 31.5869 1.24287C31.3081 1.20628 31.031 1.18896 30.7571 1.18896C30.7568 1.18896 30.7566 1.18896 30.7561 1.18896C27.6207 1.18896 24.8936 3.51575 24.477 6.71017C24.4409 6.988 24.4229 7.26412 24.4229 7.53658C24.4229 7.91369 24.4565 8.28469 24.5214 8.64741C24.7621 9.99899 25.169 10.9696 25.8432 11.6477C26.5169 12.3253 27.4821 12.7409 28.912 12.9287C29.5711 13.0151 30.2072 13.0953 30.8046 13.0946C31.4647 13.0946 32.0737 12.9983 32.6345 12.7156C32.7965 12.3892 32.8514 12.0867 32.8524 11.7467C32.8563 11.0491 32.5877 10.1951 32.5184 8.95695C32.5165 8.9306 32.516 8.90401 32.5155 8.87718C32.5135 8.37494 32.7921 7.9715 33.1714 7.69025C33.5524 7.40389 34.0439 7.20728 34.562 7.05898C35.4577 6.80432 36.4427 6.7009 37.0451 6.64504Z" fill="url(#paint9_linear_8425_44623)"/>
</g>
</g>
<defs>
<linearGradient id="paint0_linear_8425_44623" x1="48.1946" y1="46.9777" x2="48.1946" y2="27.3288" gradientUnits="userSpaceOnUse">
<stop stop-color="#9B9B9B"/>
<stop offset="1" stop-color="#DDDDDD"/>
</linearGradient>
<linearGradient id="paint1_linear_8425_44623" x1="32.117" y1="15.1616" x2="32.117" y2="7.19526" gradientUnits="userSpaceOnUse">
<stop stop-color="#9B9B9B"/>
<stop offset="1" stop-color="#DDDDDD"/>
</linearGradient>
<linearGradient id="paint2_linear_8425_44623" x1="31.4409" y1="49.4079" x2="31.4409" y2="15.154" gradientUnits="userSpaceOnUse">
<stop stop-color="#9B9B9B"/>
<stop offset="1" stop-color="#DDDDDD"/>
</linearGradient>
<linearGradient id="paint3_linear_8425_44623" x1="33.0281" y1="29.1437" x2="33.0281" y2="17.3752" gradientUnits="userSpaceOnUse">
<stop stop-color="#9B9B9B"/>
<stop offset="1" stop-color="#DDDDDD"/>
</linearGradient>
<linearGradient id="paint4_linear_8425_44623" x1="9.00584" y1="37.0909" x2="9.00584" y2="19.2925" gradientUnits="userSpaceOnUse">
<stop stop-color="#9B9B9B"/>
<stop offset="1" stop-color="#DDDDDD"/>
</linearGradient>
<linearGradient id="paint5_linear_8425_44623" x1="15.9855" y1="58.8087" x2="15.9855" y2="44.2661" gradientUnits="userSpaceOnUse">
<stop stop-color="#9B9B9B"/>
<stop offset="1" stop-color="#DDDDDD"/>
</linearGradient>
<linearGradient id="paint6_linear_8425_44623" x1="47.248" y1="32.6306" x2="47.248" y2="25.1887" gradientUnits="userSpaceOnUse">
<stop stop-color="#9B9B9B"/>
<stop offset="1" stop-color="#DDDDDD"/>
</linearGradient>
<linearGradient id="paint7_linear_8425_44623" x1="23.6243" y1="53.1907" x2="23.6243" y2="38.3881" gradientUnits="userSpaceOnUse">
<stop stop-color="#9B9B9B"/>
<stop offset="1" stop-color="#DDDDDD"/>
</linearGradient>
<linearGradient id="paint8_linear_8425_44623" x1="52.1123" y1="58.8086" x2="52.1123" y2="44.2661" gradientUnits="userSpaceOnUse">
<stop stop-color="#9B9B9B"/>
<stop offset="1" stop-color="#DDDDDD"/>
</linearGradient>
<linearGradient id="paint9_linear_8425_44623" x1="30.7348" y1="13.093" x2="30.7348" y2="1.18378" gradientUnits="userSpaceOnUse">
<stop stop-color="#9B9B9B"/>
<stop offset="1" stop-color="#DDDDDD"/>
</linearGradient>
<clipPath id="clip0_8425_44623">
<rect width="60" height="60" fill="white"/>
</clipPath>
</defs>
</svg>
