<svg width="61" height="60" viewBox="0 0 61 60" fill="none" xmlns="http://www.w3.org/2000/svg">
<g id="Layer_1" clip-path="url(#clip0_8425_44754)">
<g id="Layer_2_00000173859480907515692050000004923024774254250922_">
<g id="Layer_1_copy_6">
<g id="_76">
<path id="Vector" d="M5 30.7266H22.4141V30.7149C22.4258 27.4688 23.6914 24.3399 25.9297 21.9844C29.5625 18.1641 38.0117 13.8868 43.8945 13.8868C44.3047 13.8868 44.7148 13.9102 45.1133 13.9453C44.3047 10.6875 41.457 8.33207 38.1055 8.15628C37.8242 8.14457 37.543 8.14457 37.2617 8.15628C36.6758 8.19144 36.1719 7.74613 36.1367 7.16019C36.1367 7.13675 36.1367 7.11332 36.1367 7.1016V7.08988C36.1484 3.17582 32.9727 -0.0116839 29.0586 -0.0116839C25.2969 -0.0234026 22.1797 2.918 21.9688 6.668C21.957 6.89066 21.957 7.11332 21.957 7.33597V7.37113C21.957 7.83988 21.5703 8.21488 21.1133 8.20316C16.5781 8.20316 12.9102 11.8711 12.9102 16.4063C12.9102 17.3672 13.3555 18.75 13.707 19.6993C13.8594 20.1328 13.6484 20.6016 13.2148 20.7657C13.1562 20.7891 13.0859 20.8008 13.0156 20.8125C8.10547 21.375 4.39062 25.5352 4.39062 30.4805V30.7735C4.58984 30.7383 4.80078 30.7266 5 30.7266Z" fill="url(#paint0_linear_8425_44754)"/>
<path id="Vector_2" d="M52.7187 30.7266C52.6133 30.4688 52.4961 30.2227 52.3672 29.9766C52.0625 29.4258 52.0391 28.7578 52.2969 28.1836C52.8125 27.0703 53.0352 25.8398 52.9414 24.6211C52.8477 23.3438 52.3906 22.1133 51.6406 21.0703C51.875 24.5039 50.7031 28.2891 49.7422 30.7266H52.7187Z" fill="url(#paint1_linear_8425_44754)"/>
<path id="Vector_3" d="M58.168 9.96078C57.7227 9.5389 57.1484 9.26937 56.5391 9.21078C56.0938 9.1639 55.7305 8.82406 55.6602 8.37875C55.4141 6.85531 53.9727 5.81234 52.4492 6.05843C51.8164 6.1639 51.2422 6.48031 50.8086 6.94906C50.1172 7.7225 49.918 8.82406 50.2695 9.79671C50.5039 10.4647 50.3516 11.203 49.8594 11.7069L46.0742 15.6912C45.8281 15.6327 45.5703 15.5741 45.3242 15.5389C39.6875 14.6834 30.5586 19.3475 27.043 23.0506C25.0742 25.1248 23.9727 27.867 23.9492 30.7264H48.0781C49.7305 26.7303 50.6797 22.3123 49.7773 19.2655C49.7656 19.2303 49.7539 19.1834 49.7422 19.1483L53.5273 15.1639C54.0078 14.6483 54.7461 14.4491 55.4141 14.66C56.8906 15.1287 58.4609 14.3084 58.9297 12.8319C59.2461 11.8123 58.9531 10.6991 58.168 9.96078Z" fill="url(#paint2_linear_8425_44754)"/>
<path id="Vector_4" d="M53.0938 32.2734H5C3.32422 32.2734 1.95312 33.6328 1.95312 35.3086C1.95312 44.4141 6.96875 52.793 15.0078 57.082C14.9844 57.1641 14.9727 57.2344 14.9727 57.3164V58.1719C14.9727 59.1797 15.7812 59.9883 16.7891 59.9883H41.3047C42.3125 59.9883 43.1211 59.1797 43.1211 58.1719V57.3164C43.1211 57.2344 43.1094 57.1641 43.0859 57.082C51.125 52.793 56.1406 44.4141 56.1406 35.3086C56.1289 33.6445 54.7695 32.2734 53.0938 32.2734Z" fill="url(#paint3_linear_8425_44754)"/>
</g>
</g>
</g>
</g>
<defs>
<linearGradient id="paint0_linear_8425_44754" x1="24.7546" y1="30.7694" x2="24.7546" y2="-0.0251252" gradientUnits="userSpaceOnUse">
<stop stop-color="#9B9B9B"/>
<stop offset="1" stop-color="#DDDDDD"/>
</linearGradient>
<linearGradient id="paint1_linear_8425_44754" x1="51.3525" y1="30.7253" x2="51.3525" y2="21.0661" gradientUnits="userSpaceOnUse">
<stop stop-color="#9B9B9B"/>
<stop offset="1" stop-color="#DDDDDD"/>
</linearGradient>
<linearGradient id="paint2_linear_8425_44754" x1="41.5044" y1="30.7231" x2="41.5044" y2="6.0117" gradientUnits="userSpaceOnUse">
<stop stop-color="#9B9B9B"/>
<stop offset="1" stop-color="#DDDDDD"/>
</linearGradient>
<linearGradient id="paint3_linear_8425_44754" x1="29.0504" y1="59.9846" x2="29.0504" y2="32.2614" gradientUnits="userSpaceOnUse">
<stop stop-color="#9B9B9B"/>
<stop offset="1" stop-color="#DDDDDD"/>
</linearGradient>
<clipPath id="clip0_8425_44754">
<rect width="60" height="60" fill="white" transform="translate(0.5)"/>
</clipPath>
</defs>
</svg>
