<svg width="61" height="60" viewBox="0 0 61 60" fill="none" xmlns="http://www.w3.org/2000/svg">
<g id="Frame">
<g id="group">
<path id="Vector" d="M30.4999 32.8294C37.6325 32.8294 43.4146 27.0473 43.4146 19.9147C43.4146 12.7821 37.6325 7 30.4999 7C23.3673 7 17.5852 12.7821 17.5852 19.9147C17.5852 27.0473 23.3673 32.8294 30.4999 32.8294Z" fill="url(#paint0_linear_8425_44610)"/>
<path id="Vector_2" d="M39.5945 33.9102C36.9753 35.619 33.8546 36.6221 30.5001 36.6221C27.1455 36.6221 24.0248 35.619 21.4056 33.9102C16.1399 36.0679 12.4292 41.2388 12.4292 47.2821V49.3471C12.4292 50.8874 13.5102 52.2149 15.021 52.5036C19.3364 53.3296 24.5621 53.9723 30.5001 53.9723C36.438 53.9723 41.6637 53.3296 45.9791 52.5036C47.4921 52.2149 48.5709 50.8874 48.5709 49.3471V47.2821C48.5709 41.2409 44.8602 36.07 39.5945 33.9102Z" fill="url(#paint1_linear_8425_44610)"/>
<path id="Vector_3" d="M45.6967 11.897C45.5197 11.897 45.3575 11.9391 45.1826 11.9497C46.4722 14.3181 47.2076 17.0321 47.2076 19.9168C47.2076 24.523 45.3343 28.6972 42.3105 31.7231C43.3747 32.0982 44.5041 32.3426 45.6967 32.3426C51.3418 32.3426 55.9185 27.7659 55.9185 22.1208C55.9185 16.4737 51.3418 11.897 45.6967 11.897Z" fill="url(#paint2_linear_8425_44610)"/>
<path id="Vector_4" d="M13.7925 19.9147C13.7925 17.0321 14.5258 14.3181 15.8174 11.9475C15.6447 11.9412 15.4803 11.897 15.3033 11.897C9.65826 11.897 5.08154 16.4737 5.08154 22.1187C5.08154 27.7638 9.65826 32.3405 15.3033 32.3405C16.4959 32.3405 17.6254 32.0961 18.6895 31.721C15.6657 28.6972 13.7925 24.5209 13.7925 19.9147Z" fill="url(#paint3_linear_8425_44610)"/>
<path id="Vector_5" d="M53.729 33.5859C52.1318 34.7069 50.286 35.4845 48.301 35.8638C50.857 39.0329 52.3636 43.0112 52.3636 47.2845V48.7342C54.3886 48.5256 56.2576 48.239 57.9475 47.9166C59.1444 47.6848 59.9999 46.6334 59.9999 45.4154V43.7803C59.9999 39.3258 57.446 35.4739 53.729 33.5859Z" fill="url(#paint4_linear_8425_44610)"/>
<path id="Vector_6" d="M8.63629 47.2825C8.63629 43.0092 10.1429 39.0331 12.6989 35.8618C10.7139 35.4825 8.86807 34.7071 7.27086 33.584C3.55386 35.4741 1 39.326 1 43.7805V45.4156C1 46.6335 1.8555 47.685 3.05236 47.9147C4.74229 48.2392 6.61132 48.5257 8.63629 48.7322V47.2825Z" fill="url(#paint5_linear_8425_44610)"/>
</g>
</g>
<defs>
<linearGradient id="paint0_linear_8425_44610" x1="30.5016" y1="32.8259" x2="30.5016" y2="6.98875" gradientUnits="userSpaceOnUse">
<stop stop-color="#9B9B9B"/>
<stop offset="1" stop-color="#DDDDDD"/>
</linearGradient>
<linearGradient id="paint1_linear_8425_44610" x1="30.5024" y1="53.9696" x2="30.5024" y2="33.9014" gradientUnits="userSpaceOnUse">
<stop stop-color="#9B9B9B"/>
<stop offset="1" stop-color="#DDDDDD"/>
</linearGradient>
<linearGradient id="paint2_linear_8425_44610" x1="49.1154" y1="32.3399" x2="49.1154" y2="11.8881" gradientUnits="userSpaceOnUse">
<stop stop-color="#9B9B9B"/>
<stop offset="1" stop-color="#DDDDDD"/>
</linearGradient>
<linearGradient id="paint3_linear_8425_44610" x1="11.8864" y1="32.3378" x2="11.8864" y2="11.8881" gradientUnits="userSpaceOnUse">
<stop stop-color="#9B9B9B"/>
<stop offset="1" stop-color="#DDDDDD"/>
</linearGradient>
<linearGradient id="paint4_linear_8425_44610" x1="54.1512" y1="48.7322" x2="54.1512" y2="33.5793" gradientUnits="userSpaceOnUse">
<stop stop-color="#9B9B9B"/>
<stop offset="1" stop-color="#DDDDDD"/>
</linearGradient>
<linearGradient id="paint5_linear_8425_44610" x1="6.85019" y1="48.7302" x2="6.85019" y2="33.5774" gradientUnits="userSpaceOnUse">
<stop stop-color="#9B9B9B"/>
<stop offset="1" stop-color="#DDDDDD"/>
</linearGradient>
</defs>
</svg>
